SplineFontDB: 1.0
FontName: OpenSymbol
FullName: OpenSymbol
FamilyName: OpenSymbol
Weight: Book
Copyright: (c) 2005 Sun Microsystems Inc.
Version: 1.10
ItalicAngle: 0
UnderlinePosition: -133
UnderlineWidth: 20
Ascent: 1878
Descent: 170
Order2: 1
XUID: [1021 397 263452892 2106040]
FSType: 8
PfmFamily: 81
TTFWeight: 400
TTFWidth: 5
LineGap: 0
VLineGap: 0
Panose: 5 1 0 0 0 0 0 0 0 0
OS2TypoAscent: 1638
OS2TypoAOffset: 0
OS2TypoDescent: 410
OS2TypoDOffset: 0
OS2TypoLinegap: 0
OS2WinAscent: 1638
OS2WinAOffset: 0
OS2WinDescent: 410
OS2WinDOffset: 0
HheadAscent: 0
HheadAOffset: 1
HheadDescent: 0
HheadDOffset: 1
OS2SubXSize: 409
OS2SubYSize: 409
OS2SubXOff: 0
OS2SubYOff: 409
OS2SupXSize: 409
OS2SupYSize: 409
OS2SupXOff: 0
OS2SupYOff: 409
OS2StrikeYSize: 102
OS2StrikeYPos: 530
OS2Vendor: 'PfEd'
ScriptLang: 2
 1 DFLT 1 dflt 
 1 latn 1 dflt 
TableOrder: GSUB 0
TtfTable: cvt  4
!!!".
EndTtf
TtfTable: maxp 32
!!*'"",Htd!%@mJ!!!!#!!!!"!!*'"!'gMaz
EndTtf
LangName: 1033 "" "" "Regular" "OpenSymbol" "" "Version 1.10" 
Encoding: UnicodeBmp
UnicodeInterp: none
NameList: Adobe Glyph List
DisplaySize: -36
AntiAlias: 1
FitToEm: 1
WinInfo: 8684 26 14
TeXData: 1 0 0 524288 262144 174762 0 -1048576 174762 783286 444596 497025 792723 393216 433062 380633 303038 157286 324010 404750 52429 2506097 1059062 262144
BeginChars: 65538 908
StartChar: .notdef
Encoding: 65536 -1 0
Width: 1024
Flags: W
Fore
129 0 m 1,0,-1
 129 1638 l 1,1,-1
 897 1638 l 1,2,-1
 897 0 l 1,3,-1
 129 0 l 1,0,-1
256 129 m 1,4,-1
 768 129 l 1,5,-1
 768 1511 l 1,6,-1
 256 1511 l 1,7,-1
 256 129 l 1,4,-1
EndSplineSet
EndChar
StartChar: exclam
Encoding: 33 33 3
Width: 606
GlyphClass: 2
Flags: W
Fore
319 358 m 1,0,-1
 281 358 l 1,1,-1
 221 803 l 2,2,3
 186 1072 186 1072 186 1247 c 0,4,5
 186 1302 186 1302 217 1345 c 0,6,7
 248 1386 248 1386 301 1386 c 0,8,9
 414 1386 414 1386 414 1237 c 0,10,11
 414 1062 414 1062 379 797 c 2,12,-1
 319 358 l 1,0,-1
299 193 m 0,13,14
 342 193 342 193 376 160 c 0,15,16
 410 126 410 126 410 84 c 0,17,18
 410 38 410 38 377 4 c 0,19,20
 344 -29 344 -29 299 -29 c 0,21,22
 255 -29 255 -29 221 5 c 0,23,24
 188 40 188 40 188 84 c 0,25,26
 188 126 188 126 222 160 c 0,27,28
 256 193 256 193 299 193 c 0,13,14
EndSplineSet
EndChar
StartChar: quotedbl
Encoding: 34 34 4
Width: 727
GlyphClass: 2
Flags: W
Fore
143 946 m 1,0,-1
 111 1085 l 2,1,2
 94 1170 94 1170 94 1227 c 2,3,-1
 94 1466 l 1,4,-1
 299 1466 l 1,5,-1
 299 1227 l 2,6,7
 299 1158 299 1158 254 946 c 1,8,-1
 143 946 l 1,0,-1
475 946 m 1,9,-1
 442 1085 l 2,10,11
 426 1165 426 1165 426 1227 c 2,12,-1
 426 1466 l 1,13,-1
 631 1466 l 1,14,-1
 631 1227 l 2,15,16
 631 1179 631 1179 584 946 c 1,17,-1
 475 946 l 1,9,-1
EndSplineSet
EndChar
StartChar: numbersign
Encoding: 35 35 5
Width: 1138
GlyphClass: 2
Flags: W
Fore
102 -25 m 1,0,-1
 188 401 l 1,1,-1
 20 401 l 1,2,-1
 20 551 l 1,3,-1
 219 551 l 1,4,-1
 293 913 l 1,5,-1
 20 913 l 1,6,-1
 20 1063 l 1,7,-1
 324 1063 l 1,8,-1
 412 1491 l 1,9,-1
 559 1491 l 1,10,-1
 473 1063 l 1,11,-1
 788 1063 l 1,12,-1
 877 1491 l 1,13,-1
 1026 1491 l 1,14,-1
 938 1063 l 1,15,-1
 1112 1063 l 1,16,-1
 1112 913 l 1,17,-1
 909 913 l 1,18,-1
 834 551 l 1,19,-1
 1112 551 l 1,20,-1
 1112 401 l 1,21,-1
 805 401 l 1,22,-1
 719 -25 l 1,23,-1
 567 -25 l 1,24,-1
 653 401 l 1,25,-1
 340 401 l 1,26,-1
 254 -25 l 1,27,-1
 102 -25 l 1,0,-1
369 551 m 1,28,-1
 684 551 l 1,29,-1
 758 913 l 1,30,-1
 444 913 l 1,31,-1
 369 551 l 1,28,-1
EndSplineSet
EndChar
StartChar: percent
Encoding: 37 37 6
Width: 1705
GlyphClass: 2
Flags: W
Fore
289 1386 m 0,0,1
 429 1386 429 1386 508 1268 c 0,2,3
 575 1166 575 1166 575 1018 c 0,4,5
 575 872 575 872 508 770 c 0,6,7
 430 653 430 653 291 653 c 0,8,9
 153 653 153 653 72 770 c 0,10,11
 0 875 0 875 0 1018 c 0,12,13
 0 1160 0 1160 72 1266 c 0,14,15
 153 1386 153 1386 289 1386 c 0,0,1
291 1331 m 0,16,17
 160 1331 160 1331 160 1020 c 0,18,19
 160 705 160 705 287 705 c 0,20,21
 418 705 418 705 418 1014 c 0,22,23
 418 1331 418 1331 291 1331 c 0,16,17
1321 1386 m 1,24,-1
 332 -55 l 1,25,-1
 244 -55 l 1,26,-1
 1231 1386 l 1,27,-1
 1321 1386 l 1,24,-1
1278 674 m 0,28,29
 1415 674 1415 674 1493 555 c 0,30,31
 1563 449 1563 449 1563 307 c 0,32,33
 1563 165 1563 165 1495 61 c 0,34,35
 1415 -55 1415 -55 1278 -55 c 0,36,37
 1142 -55 1142 -55 1061 61 c 0,38,39
 987 168 987 168 987 307 c 0,40,41
 987 450 987 450 1059 555 c 0,42,43
 1140 674 1140 674 1278 674 c 0,28,29
1278 621 m 0,44,45
 1147 621 1147 621 1147 301 c 0,46,47
 1147 0 1147 0 1276 0 c 128,-1,48
 1405 0 1405 0 1405 305 c 0,49,50
 1405 621 1405 621 1278 621 c 0,44,45
EndSplineSet
EndChar
StartChar: ampersand
Encoding: 38 38 7
Width: 1593
GlyphClass: 2
Flags: W
Fore
971 872 m 1,0,-1
 1391 872 l 1,1,-1
 1391 836 l 1,2,3
 1313 827 1313 827 1262 799 c 0,4,5
 1232 784 1232 784 1102 573 c 0,6,7
 948 328 948 328 934 309 c 1,8,9
 1093 123 1093 123 1233 123 c 0,10,11
 1377 123 1377 123 1419 270 c 1,12,-1
 1456 244 l 1,13,14
 1387 -31 1387 -31 1147 -31 c 0,15,16
 975 -31 975 -31 795 164 c 1,17,18
 568 -31 568 -31 358 -31 c 0,19,20
 211 -31 211 -31 111 43 c 0,21,22
 0 126 0 126 0 268 c 0,23,24
 0 542 0 542 416 758 c 1,25,26
 334 938 334 938 334 1055 c 0,27,28
 334 1206 334 1206 431 1296 c 0,29,30
 528 1386 528 1386 682 1386 c 0,31,32
 799 1386 799 1386 874 1321 c 0,33,34
 952 1255 952 1255 952 1143 c 0,35,36
 952 944 952 944 623 782 c 1,37,38
 765 537 765 537 887 369 c 1,39,40
 1063 580 1063 580 1063 721 c 0,41,42
 1063 835 1063 835 971 836 c 1,43,-1
 971 872 l 1,0,-1
588 848 m 1,44,45
 836 965 836 965 836 1147 c 0,46,47
 836 1216 836 1216 792 1265 c 0,48,49
 747 1313 747 1313 680 1313 c 0,50,51
 603 1313 603 1313 553 1261 c 0,52,53
 504 1209 504 1209 504 1130 c 0,54,55
 504 1036 504 1036 588 848 c 1,44,45
743 221 m 1,56,57
 528 517 528 517 449 690 c 1,58,59
 207 557 207 557 207 358 c 0,60,61
 207 241 207 241 276 166 c 0,62,63
 346 90 346 90 463 90 c 0,64,65
 583 90 583 90 743 221 c 1,56,57
EndSplineSet
EndChar
StartChar: parenleft
Encoding: 40 40 8
Width: 696
GlyphClass: 2
Flags: W
Fore
573 -434 m 1,0,-1
 573 -483 l 1,1,2
 172 -147 172 -147 172 641 c 0,3,4
 172 1438 172 1438 573 1767 c 1,5,-1
 573 1716 l 1,6,7
 281 1428 281 1428 281 641 c 0,8,9
 281 -154 281 -154 573 -434 c 1,0,-1
EndSplineSet
EndChar
StartChar: parenright
Encoding: 41 41 9
Width: 696
GlyphClass: 2
Flags: W
Fore
123 -434 m 1,0,1
 416 -152 416 -152 416 641 c 0,2,3
 416 1423 416 1423 123 1716 c 1,4,-1
 123 1767 l 1,5,6
 342 1593 342 1593 442 1253 c 0,7,8
 524 985 524 985 524 641 c 0,9,10
 524 -157 524 -157 123 -483 c 1,11,-1
 123 -434 l 1,0,1
EndSplineSet
EndChar
StartChar: asterisk
Encoding: 42 42 10
Width: 796
GlyphClass: 2
Flags: W
Fore
63 1196 m 1,0,-1
 111 1339 l 1,1,2
 198 1309 198 1309 340 1241 c 1,3,4
 336 1311 336 1311 319 1491 c 1,5,-1
 467 1491 l 1,6,7
 466 1394 466 1394 442 1243 c 1,8,9
 542 1294 542 1294 680 1339 c 1,10,-1
 725 1196 l 1,11,12
 604 1158 604 1158 475 1141 c 1,13,14
 529 1095 529 1095 647 952 c 1,15,-1
 528 866 l 1,16,17
 449 977 449 977 391 1081 c 1,18,19
 333 982 333 982 260 866 c 1,20,-1
 141 952 l 1,21,22
 203 1032 203 1032 307 1141 c 1,23,24
 217 1157 217 1157 63 1196 c 1,0,-1
EndSplineSet
EndChar
StartChar: plus
Encoding: 43 43 11
Width: 1196
GlyphClass: 2
Flags: W
Fore
512 115 m 1,0,-1
 512 516 l 1,1,-1
 115 516 l 1,2,-1
 115 684 l 1,3,-1
 512 684 l 1,4,-1
 512 1083 l 1,5,-1
 682 1083 l 1,6,-1
 682 684 l 1,7,-1
 1081 684 l 1,8,-1
 1081 516 l 1,9,-1
 682 516 l 1,10,-1
 682 115 l 1,11,-1
 512 115 l 1,0,-1
EndSplineSet
EndChar
StartChar: comma
Encoding: 44 44 12
Width: 512
GlyphClass: 2
Flags: W
Fore
111 -342 m 1,0,-1
 111 -297 l 1,1,2
 202 -265 202 -265 260 -203 c 0,3,4
 326 -130 326 -130 326 -41 c 2,5,-1
 317 -8 l 1,6,-1
 303 0 l 1,7,-1
 217 -29 l 1,8,9
 111 -29 111 -29 111 82 c 0,10,11
 111 132 111 132 150 167 c 0,12,13
 189 201 189 201 240 201 c 0,14,15
 315 201 315 201 365 131 c 0,16,17
 408 68 408 68 408 -10 c 0,18,19
 408 -243 408 -243 111 -342 c 1,0,-1
EndSplineSet
EndChar
StartChar: hyphen
Encoding: 45 45 13
Width: 681
GlyphClass: 2
Flags: W
Fore
66 502 m 1,0,-1
 66 682 l 1,1,-1
 618 682 l 1,2,-1
 618 502 l 1,3,-1
 66 502 l 1,0,-1
EndSplineSet
EndChar
StartChar: period
Encoding: 46 46 14
Width: 512
GlyphClass: 2
Flags: W
Fore
256 195 m 0,0,1
 301 195 301 195 334 162 c 128,-1,2
 367 129 367 129 367 84 c 0,3,4
 367 38 367 38 334 4 c 0,5,6
 301 -29 301 -29 256 -29 c 0,7,8
 212 -29 212 -29 178 5 c 0,9,10
 145 40 145 40 145 84 c 0,11,12
 145 129 145 129 178 162 c 128,-1,13
 211 195 211 195 256 195 c 0,0,1
EndSplineSet
EndChar
StartChar: slash
Encoding: 47 47 15
Width: 569
GlyphClass: 2
Flags: W
Fore
0 -25 m 1,0,-1
 426 1491 l 1,1,-1
 569 1491 l 1,2,-1
 145 -25 l 1,3,-1
 0 -25 l 1,0,-1
EndSplineSet
EndChar
StartChar: colon
Encoding: 58 58 16
Width: 569
GlyphClass: 2
Flags: W
Fore
289 944 m 0,0,1
 334 944 334 944 367 911 c 0,2,3
 399 879 399 879 399 834 c 0,4,5
 399 790 399 790 367 756 c 0,6,7
 334 723 334 723 289 723 c 128,-1,8
 244 723 244 723 211 756 c 128,-1,9
 178 789 178 789 178 834 c 0,10,11
 178 880 178 880 211 911 c 0,12,13
 244 944 244 944 289 944 c 0,0,1
287 195 m 0,14,15
 332 195 332 195 366 162 c 0,16,17
 399 129 399 129 399 84 c 0,18,19
 399 38 399 38 365 4 c 0,20,21
 332 -29 332 -29 287 -29 c 0,22,23
 243 -29 243 -29 209 5 c 0,24,25
 176 40 176 40 176 84 c 0,26,27
 176 129 176 129 209 162 c 128,-1,28
 242 195 242 195 287 195 c 0,14,15
EndSplineSet
EndChar
StartChar: semicolon
Encoding: 59 59 17
Width: 569
GlyphClass: 2
Flags: W
Fore
283 944 m 0,0,1
 326 944 326 944 359 911 c 0,2,3
 393 880 393 880 393 836 c 0,4,5
 393 791 393 791 360 758 c 0,6,7
 328 725 328 725 283 725 c 0,8,9
 237 725 237 725 204 758 c 0,10,11
 170 791 170 791 170 836 c 0,12,13
 170 881 170 881 204 912 c 0,14,15
 236 944 236 944 283 944 c 0,0,1
141 -342 m 1,16,-1
 141 -297 l 1,17,18
 233 -266 233 -266 293 -203 c 0,19,20
 358 -132 358 -132 358 -41 c 0,21,22
 358 -10 358 -10 336 0 c 1,23,-1
 250 -29 l 1,24,25
 141 -29 141 -29 141 82 c 0,26,27
 141 132 141 132 180 166 c 0,28,29
 220 201 220 201 270 201 c 0,30,31
 349 201 349 201 397 133 c 0,32,33
 440 73 440 73 440 -10 c 0,34,35
 440 -243 440 -243 141 -342 c 1,16,-1
EndSplineSet
EndChar
StartChar: less
Encoding: 60 60 18
Width: 1196
GlyphClass: 2
Flags: W
Fore
113 518 m 1,0,-1
 113 686 l 1,1,-1
 1083 1096 l 1,2,-1
 1083 918 l 1,3,-1
 313 602 l 1,4,-1
 1083 283 l 1,5,-1
 1083 102 l 1,6,-1
 113 518 l 1,0,-1
EndSplineSet
EndChar
StartChar: equal
Encoding: 61 61 19
Width: 1628
GlyphClass: 2
Flags: W
Fore
221 358 m 1,0,-1
 221 457 l 1,1,-1
 1405 457 l 1,2,-1
 1405 358 l 1,3,-1
 221 358 l 1,0,-1
221 791 m 1,4,-1
 221 889 l 1,5,-1
 1405 889 l 1,6,-1
 1405 791 l 1,7,-1
 221 791 l 1,4,-1
EndSplineSet
EndChar
StartChar: greater
Encoding: 62 62 20
Width: 1196
GlyphClass: 2
Flags: W
Fore
1083 518 m 1,0,-1
 113 102 l 1,1,-1
 113 283 l 1,2,-1
 881 602 l 1,3,-1
 113 918 l 1,4,-1
 113 1096 l 1,5,-1
 1083 686 l 1,6,-1
 1083 518 l 1,0,-1
EndSplineSet
EndChar
StartChar: bracketleft
Encoding: 91 91 21
Width: 577
GlyphClass: 2
Flags: W
Fore
150 -403 m 1,0,-1
 150 1622 l 1,1,-1
 504 1622 l 1,2,-1
 504 1581 l 1,3,-1
 248 1581 l 1,4,-1
 248 -360 l 1,5,-1
 504 -360 l 1,6,-1
 504 -403 l 1,7,-1
 150 -403 l 1,0,-1
EndSplineSet
EndChar
StartChar: bracketright
Encoding: 93 93 22
Width: 577
GlyphClass: 2
Flags: W
Fore
428 -403 m 1,0,-1
 74 -403 l 1,1,-1
 74 -360 l 1,2,-1
 330 -360 l 1,3,-1
 330 1581 l 1,4,-1
 74 1581 l 1,5,-1
 74 1622 l 1,6,-1
 428 1622 l 1,7,-1
 428 -403 l 1,0,-1
EndSplineSet
EndChar
StartChar: braceleft
Encoding: 123 123 23
Width: 782
GlyphClass: 2
Flags: W
Fore
496 -453 m 1,0,-1
 485 -453 l 2,1,2
 351 -453 351 -453 281 -362 c 0,3,4
 215 -281 215 -281 215 -145 c 2,5,-1
 217 459 l 2,6,7
 217 587 217 587 92 588 c 1,8,-1
 92 621 l 1,9,-1
 129 623 l 2,10,11
 217 638 217 638 217 752 c 2,12,-1
 215 1356 l 2,13,14
 215 1494 215 1494 288 1576 c 0,15,16
 360 1659 360 1659 496 1659 c 1,17,-1
 496 1626 l 1,18,-1
 450 1623 l 1,19,-1
 413 1613 l 2,20,21
 298 1569 298 1569 295 1384 c 2,22,-1
 287 809 l 2,23,24
 284 667 284 667 156 604 c 1,25,26
 284 543 284 543 287 397 c 2,27,-1
 295 -176 l 2,28,29
 299 -418 299 -418 491 -420 c 0,30,31
 494 -420 494 -420 496 -420 c 1,32,-1
 496 -453 l 1,0,-1
EndSplineSet
EndChar
StartChar: braceright
Encoding: 125 125 24
Width: 782
GlyphClass: 2
Flags: W
Fore
92 -453 m 1,0,-1
 92 -420 l 1,1,-1
 138 -417 l 2,2,3
 293 -391 293 -391 293 -176 c 0,4,5
 293 -80 293 -80 287 112 c 0,6,7
 281 302 281 302 281 399 c 0,8,9
 281 535 281 535 414 604 c 1,10,11
 281 667 281 667 281 809 c 0,12,13
 281 904 281 904 287 1098 c 0,14,15
 293 1290 293 1290 293 1386 c 0,16,17
 293 1626 293 1626 92 1626 c 1,18,-1
 92 1659 l 1,19,-1
 102 1659 l 2,20,21
 234 1659 234 1659 303 1574 c 0,22,23
 373 1489 373 1489 373 1354 c 0,24,25
 373 1245 373 1245 360 1053 c 0,26,27
 348 852 348 852 348 752 c 0,28,29
 348 621 348 621 480 621 c 0,30,31
 496 621 l 1,32,-1
 496 588 l 1,33,-1
 452 586 l 2,34,35
 348 572 348 572 348 457 c 0,36,37
 348 356 348 356 360 156 c 0,38,39
 373 -38 373 -38 373 -145 c 0,40,41
 373 -453 373 -453 92 -453 c 1,0,-1
EndSplineSet
EndChar
StartChar: asciitilde
Encoding: 126 126 25
Width: 1628
GlyphClass: 2
Flags: W
Fore
283 526 m 1,0,-1
 221 526 l 1,1,2
 236 846 236 846 485 846 c 0,3,4
 600 846 600 846 843 726 c 128,-1,5
 1086 606 1086 606 1176 606 c 0,6,7
 1320 606 1320 606 1343 823 c 1,8,-1
 1405 823 l 1,9,10
 1387 504 1387 504 1141 504 c 0,11,12
 1014 504 1014 504 795 624 c 0,13,14
 575 743 575 743 449 743 c 0,15,16
 370 743 370 743 324 672 c 0,17,18
 283 609 283 609 283 526 c 1,0,-1
EndSplineSet
EndChar
StartChar: cent
Encoding: 162 162 26
Width: 876
GlyphClass: 2
Flags: W
Fore
426 940 m 1,0,1
 320 916 320 916 264 793 c 0,2,3
 221 690 221 690 221 567 c 0,4,5
 221 436 221 436 266 334 c 0,6,7
 320 210 320 210 426 166 c 1,8,-1
 426 940 l 1,0,1
508 1243 m 1,9,-1
 508 1018 l 1,10,11
 532 1022 532 1022 555 1022 c 0,12,13
 650 1022 650 1022 723 965 c 0,14,15
 805 901 805 901 805 811 c 0,16,17
 805 770 805 770 782 735 c 0,18,19
 759 700 759 700 721 700 c 0,20,21
 674 700 674 700 612 807 c 0,22,23
 545 923 545 923 508 940 c 1,24,-1
 508 154 l 1,25,26
 706 154 706 154 811 383 c 1,27,-1
 856 369 l 1,28,29
 783 199 783 199 729 127 c 0,30,31
 638 4 638 4 508 -14 c 1,32,-1
 508 -244 l 1,33,-1
 426 -244 l 1,34,-1
 426 -14 l 1,35,36
 241 3 241 3 141 156 c 0,37,38
 55 292 55 292 55 487 c 0,39,40
 55 675 55 675 147 821 c 0,41,42
 250 980 250 980 426 1012 c 1,43,-1
 426 1243 l 1,44,-1
 508 1243 l 1,9,-1
EndSplineSet
EndChar
StartChar: currency
Encoding: 164 164 27
Width: 1024
GlyphClass: 2
Flags: W
Fore
795 1020 m 1,0,-1
 938 1161 l 1,1,-1
 995 1104 l 1,2,-1
 852 963 l 1,3,4
 954 831 954 831 954 682 c 0,5,6
 954 529 954 529 852 397 c 1,7,-1
 995 254 l 1,8,-1
 938 199 l 1,9,-1
 795 342 l 1,10,11
 661 238 661 238 524 238 c 0,12,13
 327 238 327 238 229 342 c 1,14,-1
 84 199 l 1,15,-1
 27 254 l 1,16,-1
 170 397 l 1,17,18
 70 513 70 513 70 680 c 0,19,20
 70 838 70 838 170 963 c 1,21,-1
 27 1104 l 1,22,-1
 84 1161 l 1,23,-1
 229 1020 l 1,24,25
 348 1120 348 1120 514 1120 c 0,26,27
 676 1120 676 1120 795 1020 c 1,0,-1
512 1040 m 0,28,29
 362 1040 362 1040 256 934 c 128,-1,30
 150 828 150 828 150 678 c 0,31,32
 150 528 150 528 256 423 c 0,33,34
 364 317 364 317 512 317 c 0,35,36
 659 317 659 317 767 425 c 0,37,38
 874 532 874 532 874 680 c 0,39,40
 874 828 874 828 767 934 c 0,41,42
 660 1040 660 1040 512 1040 c 0,28,29
EndSplineSet
EndChar
StartChar: yen
Encoding: 165 165 28
Width: 1024
GlyphClass: 2
Flags: W
Fore
598 426 m 1,0,-1
 1024 426 l 1,1,-1
 1024 352 l 1,2,-1
 598 352 l 1,3,-1
 598 244 l 2,4,5
 598 124 598 124 621 88 c 0,6,7
 651 41 651 41 760 41 c 0,8,9
 768 41 l 1,10,-1
 768 0 l 1,11,-1
 254 0 l 1,12,-1
 254 41 l 1,13,-1
 307 44 l 2,14,15
 359 50 359 50 388 75 c 0,16,17
 430 111 430 111 430 201 c 0,18,19
 430 210 430 210 428 278 c 0,20,21
 426 344 426 344 426 352 c 1,22,-1
 2 352 l 1,23,-1
 2 426 l 1,24,-1
 426 426 l 1,25,-1
 426 569 l 1,26,-1
 412 604 l 1,27,-1
 2 604 l 1,28,-1
 2 678 l 1,29,-1
 379 678 l 1,30,-1
 166 1174 l 2,31,32
 104 1317 104 1317 2 1319 c 1,33,-1
 2 1356 l 1,34,-1
 444 1356 l 1,35,-1
 444 1319 l 1,36,37
 324 1314 324 1314 324 1255 c 0,38,39
 324 1210 324 1210 555 678 c 1,40,41
 788 1190 788 1190 788 1257 c 0,42,43
 788 1310 788 1310 678 1319 c 1,44,-1
 678 1356 l 1,45,-1
 1024 1356 l 1,46,-1
 1024 1319 l 1,47,48
 919 1319 919 1319 850 1163 c 2,49,-1
 637 678 l 1,50,-1
 1024 678 l 1,51,-1
 1024 604 l 1,52,-1
 604 604 l 1,53,-1
 598 590 l 1,54,-1
 598 426 l 1,0,-1
EndSplineSet
EndChar
StartChar: section
Encoding: 167 167 29
Width: 1138
GlyphClass: 2
Flags: W
Fore
141 -70 m 1,0,1
 164 -246 164 -246 285 -340 c 0,2,3
 399 -430 399 -430 580 -430 c 0,4,5
 740 -430 740 -430 852 -348 c 0,6,7
 977 -256 977 -256 977 -102 c 0,8,9
 977 55 977 55 817 178 c 1,10,11
 1044 268 1044 268 1044 465 c 0,12,13
 1044 618 1044 618 864 756 c 2,14,-1
 532 965 l 2,15,16
 352 1080 352 1080 352 1184 c 0,17,18
 352 1256 352 1256 420 1303 c 0,19,20
 481 1343 481 1343 557 1343 c 0,21,22
 739 1343 739 1343 772 1124 c 1,23,-1
 958 1145 l 1,24,25
 918 1491 918 1491 543 1491 c 0,26,27
 398 1491 398 1491 291 1407 c 0,28,29
 176 1317 176 1317 176 1176 c 0,30,31
 176 1045 176 1045 305 928 c 1,32,33
 208 900 208 900 143 821 c 0,34,35
 80 743 80 743 80 643 c 0,36,37
 80 480 80 480 264 338 c 2,38,-1
 610 121 l 2,39,40
 795 -1 795 -1 795 -104 c 0,41,42
 795 -188 795 -188 727 -236 c 0,43,44
 666 -279 666 -279 580 -279 c 0,45,46
 372 -279 372 -279 324 -43 c 1,47,-1
 141 -70 l 1,0,1
727 244 m 1,48,49
 515 370 515 370 440 424 c 0,50,51
 244 568 244 568 244 664 c 0,52,53
 244 778 244 778 393 858 c 1,54,55
 619 717 619 717 678 674 c 0,56,57
 874 529 874 529 874 430 c 0,58,59
 874 314 874 314 727 244 c 1,48,49
EndSplineSet
EndChar
StartChar: dieresis
Encoding: 168 168 30
Width: 542
GlyphClass: 2
Flags: W
Fore
25 1376 m 0,0,1
 25 1415 25 1415 53 1446 c 0,2,3
 82 1477 82 1477 121 1477 c 0,4,5
 162 1477 162 1477 191 1447 c 0,6,7
 221 1417 221 1417 221 1376 c 0,8,9
 221 1333 221 1333 193 1306 c 0,10,11
 164 1278 164 1278 121 1278 c 0,12,13
 81 1278 81 1278 52 1307 c 0,14,15
 25 1336 25 1336 25 1376 c 0,0,1
319 1378 m 0,16,17
 319 1416 319 1416 348 1448 c 0,18,19
 377 1479 377 1479 416 1479 c 0,20,21
 458 1479 458 1479 486 1449 c 0,22,23
 516 1419 516 1419 516 1378 c 0,24,25
 516 1334 516 1334 487 1308 c 0,26,27
 459 1280 459 1280 416 1280 c 0,28,29
 376 1280 376 1280 347 1309 c 0,30,31
 319 1339 319 1339 319 1378 c 0,16,17
EndSplineSet
EndChar
StartChar: guillemotleft
Encoding: 171 171 31
Width: 1138
GlyphClass: 2
Flags: W
Fore
340 528 m 1,0,-1
 600 983 l 1,1,-1
 453 983 l 1,2,-1
 133 528 l 1,3,-1
 453 72 l 1,4,-1
 598 72 l 1,5,-1
 340 528 l 1,0,-1
727 528 m 1,6,-1
 991 983 l 1,7,-1
 840 983 l 1,8,-1
 524 528 l 1,9,-1
 840 72 l 1,10,-1
 991 72 l 1,11,-1
 727 528 l 1,6,-1
EndSplineSet
EndChar
StartChar: logicalnot
Encoding: 172 172 32
Width: 1329
GlyphClass: 2
Flags: W
Fore
1120 801 m 1,0,-1
 1122 272 l 1,1,-1
 1028 272 l 1,2,-1
 1028 727 l 1,3,-1
 117 727 l 1,4,-1
 117 801 l 1,5,-1
 1120 801 l 1,0,-1
EndSplineSet
EndChar
StartChar: minussign
Encoding: 8722 8722 33
Width: 1628
GlyphClass: 2
Flags: W
Fore
221 543 m 1,0,-1
 221 641 l 1,1,-1
 1405 641 l 1,2,-1
 1405 543 l 1,3,-1
 221 543 l 1,0,-1
EndSplineSet
EndChar
StartChar: degree
Encoding: 176 176 34
Width: 872
GlyphClass: 2
Flags: W
Fore
426 297 m 0,0,1
 295 297 295 297 213 379 c 0,2,3
 131 460 131 460 131 592 c 0,4,5
 131 724 131 724 213 806 c 0,6,7
 296 889 296 889 426 889 c 0,8,9
 557 889 557 889 640 806 c 128,-1,10
 723 723 723 723 723 592 c 0,11,12
 723 463 723 463 640 380 c 128,-1,13
 557 297 557 297 426 297 c 0,0,1
426 346 m 0,14,15
 535 346 535 346 604 415 c 0,16,17
 674 482 674 482 674 592 c 0,18,19
 674 701 674 701 604 770 c 0,20,21
 534 840 534 840 426 840 c 0,22,23
 319 840 319 840 249 770 c 0,24,25
 180 701 180 701 180 592 c 0,26,27
 180 482 180 482 249 415 c 0,28,29
 318 346 318 346 426 346 c 0,14,15
EndSplineSet
EndChar
StartChar: plusminus
Encoding: 177 177 35
Width: 1628
GlyphClass: 2
Flags: W
Fore
221 0 m 1,0,-1
 221 98 l 1,1,-1
 1407 98 l 1,2,-1
 1407 0 l 1,3,-1
 221 0 l 1,0,-1
766 297 m 1,4,-1
 766 692 l 1,5,-1
 221 692 l 1,6,-1
 221 791 l 1,7,-1
 766 791 l 1,8,-1
 766 1184 l 1,9,-1
 864 1184 l 1,10,-1
 864 791 l 1,11,-1
 1407 791 l 1,12,-1
 1407 692 l 1,13,-1
 864 692 l 1,14,-1
 864 297 l 1,15,-1
 766 297 l 1,4,-1
EndSplineSet
EndChar
StartChar: paragraph
Encoding: 182 182 36
Width: 1099
GlyphClass: 2
Flags: W
Fore
406 -408 m 1,0,-1
 406 639 l 1,1,2
 226 646 226 646 113 758 c 0,3,4
 0 866 0 866 0 1044 c 0,5,6
 0 1252 0 1252 135 1364 c 0,7,8
 262 1466 262 1466 473 1466 c 2,9,-1
 1108 1466 l 1,10,-1
 1108 1292 l 1,11,-1
 963 1292 l 1,12,-1
 963 -408 l 1,13,-1
 793 -408 l 1,14,-1
 793 1292 l 1,15,-1
 569 1292 l 1,16,-1
 569 -408 l 1,17,-1
 406 -408 l 1,0,-1
EndSplineSet
EndChar
StartChar: guillemotright
Encoding: 187 187 37
Width: 1138
GlyphClass: 2
Flags: W
Fore
791 528 m 1,0,-1
 530 72 l 1,1,-1
 678 72 l 1,2,-1
 997 528 l 1,3,-1
 678 983 l 1,4,-1
 528 983 l 1,5,-1
 791 528 l 1,0,-1
403 528 m 1,6,-1
 139 72 l 1,7,-1
 291 72 l 1,8,-1
 604 528 l 1,9,-1
 291 983 l 1,10,-1
 139 983 l 1,11,-1
 403 528 l 1,6,-1
EndSplineSet
EndChar
StartChar: questiondown
Encoding: 191 191 38
Width: 909
GlyphClass: 2
Flags: W
Fore
453 1405 m 0,0,1
 498 1405 498 1405 530 1372 c 0,2,3
 563 1339 563 1339 563 1294 c 0,4,5
 563 1248 563 1248 530 1217 c 0,6,7
 498 1184 498 1184 453 1184 c 0,8,9
 408 1184 408 1184 375 1217 c 0,10,11
 342 1248 342 1248 342 1294 c 0,12,13
 342 1339 342 1339 375 1372 c 128,-1,14
 408 1405 408 1405 453 1405 c 0,0,1
440 1057 m 1,15,-1
 479 1057 l 1,16,17
 476 932 476 932 373 693 c 0,18,19
 270 459 270 459 270 324 c 0,20,21
 270 209 270 209 330 131 c 0,22,23
 394 47 394 47 508 47 c 0,24,25
 578 47 578 47 631 78 c 0,26,27
 694 114 694 114 694 178 c 0,28,29
 694 210 694 210 664 263 c 0,30,31
 633 315 633 315 633 348 c 0,32,33
 633 380 633 380 656 406 c 0,34,35
 680 430 680 430 713 430 c 0,36,37
 766 430 766 430 797 379 c 0,38,39
 823 335 823 335 823 279 c 0,40,41
 823 142 823 142 707 59 c 0,42,43
 601 -12 601 -12 461 -12 c 0,44,45
 313 -12 313 -12 205 72 c 0,46,47
 88 162 88 162 88 305 c 0,48,49
 88 431 88 431 176 559 c 2,50,-1
 342 780 l 2,51,52
 434 919 434 919 440 1057 c 1,15,-1
EndSplineSet
EndChar
StartChar: multiply
Encoding: 215 215 39
Width: 1628
GlyphClass: 2
Flags: W
Fore
221 70 m 1,0,-1
 743 592 l 1,1,-1
 221 1114 l 1,2,-1
 293 1184 l 1,3,-1
 813 662 l 1,4,-1
 1337 1184 l 1,5,-1
 1405 1114 l 1,6,-1
 883 592 l 1,7,-1
 1405 70 l 1,8,-1
 1337 0 l 1,9,-1
 813 522 l 1,10,-1
 293 0 l 1,11,-1
 221 70 l 1,0,-1
EndSplineSet
EndChar
StartChar: divide
Encoding: 247 247 40
Width: 1628
GlyphClass: 2
Flags: W
Fore
715 98 m 1,0,-1
 715 295 l 1,1,-1
 913 295 l 1,2,-1
 913 98 l 1,3,-1
 715 98 l 1,0,-1
221 543 m 1,4,-1
 221 641 l 1,5,-1
 1407 641 l 1,6,-1
 1407 543 l 1,7,-1
 221 543 l 1,4,-1
715 887 m 1,8,-1
 715 1085 l 1,9,-1
 913 1085 l 1,10,-1
 913 887 l 1,11,-1
 715 887 l 1,8,-1
EndSplineSet
EndChar
StartChar: OE
Encoding: 338 338 41
Width: 2058
GlyphClass: 2
Flags: W
Fore
725 1468 m 0,0,1
 747 1468 747 1468 779 1460 c 0,2,3
 817 1452 817 1452 834 1452 c 2,4,-1
 1804 1452 l 1,5,-1
 1831 1126 l 1,6,-1
 1784 1126 l 1,7,8
 1745 1307 1745 1307 1622 1352 c 0,9,10
 1562 1374 1562 1374 1331 1374 c 0,11,12
 1231 1374 1231 1374 1204 1368 c 0,13,14
 1128 1351 1128 1351 1128 1284 c 2,15,-1
 1128 883 l 2,16,17
 1128 819 1128 819 1178 819 c 2,18,-1
 1503 819 l 2,19,20
 1582 819 1582 819 1628 891 c 0,21,22
 1668 953 1668 953 1669 1036 c 1,23,-1
 1716 1036 l 1,24,-1
 1716 512 l 1,25,-1
 1679 512 l 1,26,27
 1663 610 1663 610 1634 657 c 0,28,29
 1593 725 1593 725 1507 725 c 2,30,-1
 1206 725 l 2,31,32
 1128 725 1128 725 1128 651 c 2,33,-1
 1128 182 l 2,34,35
 1128 88 1128 88 1217 88 c 2,36,-1
 1559 88 l 2,37,38
 1708 88 1708 88 1790 170 c 0,39,40
 1854 233 1854 233 1915 387 c 1,41,-1
 1958 387 l 1,42,-1
 1855 0 l 1,43,-1
 852 0 l 2,44,45
 820 0 820 0 749 -11 c 0,46,47
 680 -23 680 -23 645 -23 c 0,48,49
 352 -23 352 -23 180 211 c 0,50,51
 27 422 27 422 27 725 c 0,52,53
 27 1059 27 1059 207 1260 c 0,54,55
 394 1468 394 1468 725 1468 c 0,0,1
905 262 m 2,56,-1
 905 1161 l 2,57,58
 905 1386 905 1386 662 1386 c 0,59,60
 466 1386 466 1386 356 1161 c 0,61,62
 272 986 272 986 272 764 c 0,63,64
 272 496 272 496 350 313 c 0,65,66
 457 63 457 63 688 63 c 0,67,68
 777 63 777 63 842 119 c 0,69,70
 905 174 905 174 905 262 c 2,56,-1
EndSplineSet
EndChar
StartChar: oe
Encoding: 339 339 42
Width: 1748
GlyphClass: 2
Flags: W
Fore
1606 604 m 1,0,-1
 965 604 l 1,1,2
 973 164 973 164 1270 164 c 0,3,4
 1496 164 1496 164 1593 399 c 1,5,-1
 1651 399 l 1,6,7
 1534 -12 1534 -12 1237 -12 c 0,8,9
 978 -12 978 -12 879 217 c 1,10,11
 825 112 825 112 720 49 c 128,-1,12
 615 -14 615 -14 496 -14 c 0,13,14
 280 -14 280 -14 150 135 c 0,15,16
 25 278 25 278 25 496 c 0,17,18
 25 711 25 711 152 862 c 0,19,20
 287 1024 287 1024 498 1024 c 0,21,22
 621 1024 621 1024 715 971 c 0,23,24
 794 923 794 923 877 815 c 1,25,26
 984 1028 984 1028 1219 1028 c 0,27,28
 1388 1028 1388 1028 1499 899 c 0,29,30
 1603 777 1603 777 1606 604 c 1,0,-1
506 70 m 1,31,-1
 547 73 l 2,32,33
 657 91 657 91 717 225 c 0,34,35
 768 342 768 342 768 504 c 0,36,37
 768 669 768 669 707 791 c 0,38,39
 630 946 630 946 483 946 c 0,40,41
 350 946 350 946 279 797 c 0,42,43
 223 676 223 676 223 528 c 0,44,45
 223 360 223 360 283 236 c 0,46,47
 358 72 358 72 506 72 c 1,48,-1
 506 70 l 1,31,-1
1192 924 m 0,49,50
 1004 924 1004 924 969 676 c 1,51,-1
 1403 676 l 1,52,53
 1397 924 1397 924 1192 924 c 0,49,50
EndSplineSet
EndChar
StartChar: Scaron
Encoding: 352 352 43
Width: 1138
GlyphClass: 2
Flags: W
Fore
940 1386 m 1,0,-1
 940 918 l 1,1,-1
 903 918 l 1,2,3
 884 1087 884 1087 793 1190 c 0,4,5
 692 1307 692 1307 528 1307 c 0,6,7
 432 1307 432 1307 356 1241 c 0,8,9
 274 1173 274 1173 274 1079 c 0,10,11
 274 961 274 961 471 852 c 2,12,-1
 834 655 l 2,13,14
 1030 523 1030 523 1030 346 c 0,15,16
 1030 178 1030 178 899 70 c 0,17,18
 775 -31 775 -31 604 -31 c 0,19,20
 538 -31 538 -31 414 8 c 0,21,22
 288 47 288 47 223 47 c 0,23,24
 201 47 201 47 189 20 c 0,25,26
 178 -6 178 -6 180 -31 c 1,27,-1
 141 -31 l 1,28,-1
 141 434 l 1,29,-1
 180 434 l 1,30,31
 240 59 240 59 578 59 c 0,32,33
 684 59 684 59 766 119 c 0,34,35
 856 186 856 186 856 289 c 0,36,37
 856 422 856 422 668 532 c 2,38,-1
 317 725 l 2,39,40
 129 854 129 854 129 1030 c 0,41,42
 129 1188 129 1188 248 1292 c 0,43,44
 366 1397 366 1397 526 1397 c 0,45,46
 586 1397 586 1397 698 1348 c 0,47,48
 810 1298 810 1298 834 1298 c 0,49,50
 863 1298 863 1298 885 1329 c 0,51,52
 902 1354 902 1354 903 1386 c 1,53,-1
 940 1386 l 1,0,-1
657 1483 m 1,54,-1
 473 1483 l 1,55,-1
 283 1812 l 1,56,-1
 313 1812 l 1,57,-1
 563 1587 l 1,58,-1
 815 1812 l 1,59,-1
 846 1812 l 1,60,-1
 657 1483 l 1,54,-1
EndSplineSet
EndChar
StartChar: scaron
Encoding: 353 353 44
Width: 796
GlyphClass: 2
Flags: W
Fore
655 942 m 1,0,-1
 655 631 l 1,1,-1
 623 631 l 1,2,3
 562 877 562 877 373 877 c 0,4,5
 315 877 315 877 270 850 c 0,6,7
 218 819 218 819 217 766 c 0,8,9
 217 666 217 666 348 592 c 2,10,-1
 594 467 l 2,11,12
 724 382 724 382 725 250 c 0,13,14
 725 131 725 131 633 51 c 0,15,16
 539 -29 539 -29 420 -29 c 0,17,18
 378 -29 378 -29 295 -2 c 128,-1,19
 212 25 212 25 170 25 c 0,20,21
 146 25 146 25 137 -14 c 1,22,-1
 104 -14 l 1,23,-1
 104 313 l 1,24,-1
 137 313 l 1,25,26
 160 196 160 196 229 121 c 0,27,28
 306 37 306 37 418 37 c 0,29,30
 481 37 481 37 529 73 c 0,31,32
 578 110 578 110 578 170 c 0,33,34
 578 270 578 270 455 344 c 2,35,-1
 223 467 l 2,36,37
 100 551 100 551 100 678 c 0,38,39
 100 792 100 792 181 867 c 128,-1,40
 262 942 262 942 379 942 c 0,41,42
 414 942 414 942 475 923 c 0,43,44
 540 903 540 903 571 903 c 2,45,-1
 602 911 l 1,46,-1
 623 942 l 1,47,-1
 655 942 l 1,0,-1
492 1055 m 1,48,-1
 307 1055 l 1,49,-1
 117 1384 l 1,50,-1
 147 1384 l 1,51,-1
 397 1153 l 1,52,-1
 649 1384 l 1,53,-1
 680 1384 l 1,54,-1
 492 1055 l 1,48,-1
EndSplineSet
EndChar
StartChar: Ydieresis
Encoding: 376 376 45
Width: 1488
GlyphClass: 2
Flags: W
Fore
434 1839 m 1,0,1
 485 1839 485 1839 520 1805 c 0,2,3
 557 1772 557 1772 557 1724 c 0,4,5
 557 1676 557 1676 522 1639 c 0,6,7
 487 1604 487 1604 438 1604 c 0,8,9
 390 1604 390 1604 353 1639 c 0,10,11
 317 1675 317 1675 317 1724 c 0,12,13
 317 1769 317 1769 354 1803 c 0,14,15
 391 1837 391 1837 436 1837 c 1,16,-1
 434 1839 l 1,0,1
1040 1729 m 0,17,18
 1040 1677 1040 1677 1000 1641 c 0,19,20
 960 1606 960 1606 907 1606 c 0,21,22
 862 1606 862 1606 831 1642 c 0,23,24
 801 1680 801 1680 801 1724 c 0,25,26
 801 1774 801 1774 844 1805 c 0,27,28
 887 1837 887 1837 938 1837 c 0,29,30
 979 1837 979 1837 1010 1803 c 0,31,32
 1040 1770 1040 1770 1040 1729 c 0,17,18
584 1458 m 1,33,-1
 584 1423 l 1,34,35
 432 1423 432 1423 432 1337 c 0,36,37
 432 1302 432 1302 770 758 c 1,38,39
 1114 1291 1114 1291 1114 1352 c 0,40,41
 1114 1420 1114 1420 969 1421 c 1,42,-1
 971 1460 l 1,43,44
 1080 1452 1080 1452 1184 1452 c 0,45,46
 1313 1452 1313 1452 1442 1462 c 1,47,-1
 1442 1417 l 1,48,49
 1327 1417 1327 1417 1192 1255 c 0,50,51
 1096 1145 1096 1145 971 922 c 2,52,-1
 811 631 l 1,53,-1
 811 190 l 2,54,55
 811 51 811 51 1022 41 c 1,56,-1
 1022 0 l 1,57,58
 851 5 851 5 687 5 c 2,59,-1
 412 1 l 1,60,-1
 375 0 l 1,61,-1
 375 41 l 1,62,63
 460 41 460 41 518 80 c 0,64,65
 584 126 584 126 584 207 c 2,66,-1
 582 637 l 1,67,68
 543 688 543 688 412 934 c 0,69,70
 291 1161 291 1161 209 1262 c 0,71,72
 80 1415 80 1415 -49 1415 c 1,73,-1
 -49 1456 l 1,74,75
 506 1456 506 1456 584 1458 c 1,33,-1
EndSplineSet
EndChar
StartChar: Zcaron
Encoding: 381 381 46
Width: 1251
GlyphClass: 2
Flags: W
Fore
1178 1356 m 1,0,-1
 287 82 l 1,1,-1
 825 86 l 2,2,3
 966 87 966 87 1047 158 c 0,4,5
 1120 223 1120 223 1161 365 c 1,6,-1
 1194 358 l 1,7,-1
 1130 0 l 1,8,-1
 27 0 l 1,9,-1
 27 37 l 1,10,-1
 897 1276 l 1,11,-1
 477 1276 l 2,12,13
 332 1276 332 1276 270 1220 c 0,14,15
 210 1164 210 1164 184 1018 c 1,16,-1
 147 1018 l 1,17,-1
 174 1356 l 1,18,-1
 1178 1356 l 1,0,-1
733 1483 m 1,19,-1
 551 1483 l 1,20,-1
 360 1792 l 1,21,-1
 391 1792 l 1,22,-1
 639 1567 l 1,23,-1
 893 1792 l 1,24,-1
 924 1792 l 1,25,-1
 733 1483 l 1,19,-1
EndSplineSet
EndChar
StartChar: zcaron
Encoding: 382 382 47
Width: 909
GlyphClass: 2
Flags: W
Fore
860 281 m 1,0,-1
 850 0 l 1,1,-1
 41 0 l 1,2,-1
 41 37 l 1,3,-1
 649 846 l 1,4,-1
 360 846 l 2,5,6
 247 846 247 846 201 811 c 0,7,8
 146 772 146 772 141 662 c 1,9,-1
 102 662 l 1,10,-1
 109 915 l 1,11,-1
 877 915 l 1,12,-1
 877 879 l 1,13,-1
 262 68 l 1,14,-1
 578 68 l 2,15,16
 708 68 708 68 761 111 c 0,17,18
 816 154 816 154 825 281 c 1,19,-1
 860 281 l 1,0,-1
563 1055 m 1,20,-1
 379 1055 l 1,21,-1
 188 1384 l 1,22,-1
 219 1384 l 1,23,-1
 471 1165 l 1,24,-1
 723 1384 l 1,25,-1
 752 1384 l 1,26,-1
 563 1055 l 1,20,-1
EndSplineSet
EndChar
StartChar: florin
Encoding: 402 402 48
Width: 1024
GlyphClass: 2
Flags: W
Fore
702 897 m 1,0,-1
 885 897 l 1,1,-1
 868 829 l 1,2,-1
 688 829 l 1,3,4
 597 347 597 347 514 96 c 0,5,6
 340 -442 340 -442 125 -442 c 0,7,8
 0 -442 0 -442 0 -334 c 0,9,10
 0 -300 0 -300 23 -271 c 0,11,12
 46 -244 46 -244 80 -244 c 0,13,14
 145 -244 145 -244 145 -294 c 0,15,16
 145 -297 145 -297 145 -301 c 1,17,-1
 121 -358 l 1,18,-1
 129 -375 l 1,19,-1
 147 -381 l 1,20,21
 236 -381 236 -381 309 -117 c 2,22,-1
 385 229 l 1,23,-1
 520 829 l 1,24,-1
 340 829 l 1,25,-1
 354 897 l 1,26,27
 514 901 514 901 584 1036 c 2,28,-1
 676 1286 l 2,29,30
 738 1421 738 1421 881 1421 c 0,31,32
 1022 1421 1022 1421 1022 1307 c 0,33,34
 1022 1229 1022 1229 952 1229 c 0,35,36
 889 1229 889 1229 889 1284 c 0,37,38
 889 1297 889 1297 899 1316 c 128,-1,39
 909 1335 909 1335 909 1348 c 0,40,41
 909 1374 909 1374 874 1374 c 0,42,43
 794 1374 794 1374 745 1171 c 0,44,45
 733 1114 733 1114 702 897 c 1,0,-1
EndSplineSet
EndChar
StartChar: uni019B
Encoding: 411 411 49
Width: 1146
GlyphClass: 2
Flags: W
Fore
72 0 m 1,0,1
 61 47 61 47 61 55 c 0,2,3
 61 196 61 196 252 485 c 2,4,-1
 541 889 l 1,5,-1
 506 977 l 1,6,-1
 514 952 l 1,7,-1
 205 952 l 1,8,-1
 205 1024 l 1,9,-1
 492 1024 l 1,10,11
 437 1189 437 1189 408 1221 c 0,12,13
 360 1272 360 1272 212 1272 c 0,14,15
 208 1272 208 1272 203 1272 c 1,16,-1
 328 1389 l 1,17,-1
 360 1389 l 2,18,19
 642 1389 642 1389 680 1024 c 1,20,-1
 932 1024 l 1,21,-1
 932 952 l 1,22,-1
 702 952 l 1,23,-1
 827 446 l 2,24,25
 925 121 925 121 1055 0 c 1,26,-1
 834 0 l 1,27,28
 738 116 738 116 662 389 c 2,29,-1
 559 815 l 1,30,31
 371 550 371 550 342 500 c 0,32,33
 225 299 225 299 225 147 c 0,34,35
 225 57 225 57 285 0 c 1,36,-1
 72 0 l 1,0,1
EndSplineSet
EndChar
StartChar: circumflex
Encoding: 710 710 50
Width: 681
GlyphClass: 2
Flags: W
Fore
666 1112 m 1,0,-1
 631 1110 l 1,1,-1
 360 1321 l 1,2,-1
 76 1102 l 1,3,-1
 33 1112 l 1,4,-1
 362 1491 l 1,5,-1
 666 1112 l 1,0,-1
EndSplineSet
EndChar
StartChar: dotaccent
Encoding: 729 729 51
Width: 542
GlyphClass: 2
Flags: W
Fore
174 1362 m 0,0,1
 174 1404 174 1404 202 1433 c 0,2,3
 229 1462 229 1462 270 1462 c 0,4,5
 310 1462 310 1462 341 1433 c 0,6,7
 371 1403 371 1403 371 1362 c 0,8,9
 371 1320 371 1320 342 1291 c 0,10,11
 314 1264 314 1264 270 1264 c 0,12,13
 229 1264 229 1264 202 1292 c 0,14,15
 174 1320 174 1320 174 1362 c 0,0,1
EndSplineSet
EndChar
StartChar: ring
Encoding: 730 730 52
Width: 532
GlyphClass: 2
Flags: W
Fore
53 1356 m 0,0,1
 53 1452 53 1452 120 1519 c 0,2,3
 186 1585 186 1585 283 1585 c 0,4,5
 379 1585 379 1585 445 1519 c 0,6,7
 512 1452 512 1452 512 1356 c 0,8,9
 512 1262 512 1262 444 1194 c 128,-1,10
 376 1126 376 1126 283 1126 c 0,11,12
 187 1126 187 1126 120 1193 c 0,13,14
 53 1259 53 1259 53 1356 c 0,0,1
135 1354 m 0,15,16
 135 1292 135 1292 178 1247 c 0,17,18
 223 1204 223 1204 285 1204 c 0,19,20
 346 1204 346 1204 391 1247 c 0,21,22
 434 1290 434 1290 434 1354 c 0,23,24
 434 1415 434 1415 390 1459 c 0,25,26
 347 1503 347 1503 285 1503 c 0,27,28
 221 1503 221 1503 178 1460 c 128,-1,29
 135 1417 135 1417 135 1354 c 0,15,16
EndSplineSet
EndChar
StartChar: tilde
Encoding: 732 732 53
Width: 681
GlyphClass: 2
Flags: W
Fore
53 1217 m 1,0,-1
 23 1217 l 1,1,2
 30 1475 30 1475 211 1475 c 0,3,4
 257 1475 257 1475 535 1335 c 1,5,6
 604 1335 604 1335 631 1475 c 1,7,-1
 662 1475 l 1,8,-1
 662 1462 l 2,9,10
 662 1368 662 1368 616 1294 c 0,11,12
 563 1212 563 1212 471 1212 c 0,13,14
 410 1212 410 1212 147 1354 c 1,15,16
 80 1354 80 1354 53 1217 c 1,0,-1
EndSplineSet
EndChar
StartChar: uni03F1
Encoding: 1009 1009 54
Width: 1132
GlyphClass: 2
Flags: W
Fore
809 -262 m 1,0,-1
 877 -420 l 1,1,2
 766 -369 766 -369 543 -369 c 0,3,4
 339 -369 339 -369 268 -322 c 0,5,6
 154 -246 154 -246 154 12 c 0,7,8
 154 347 154 347 264 571 c 0,9,10
 408 866 408 866 705 866 c 0,11,12
 1014 866 1014 866 1014 582 c 0,13,14
 1014 340 1014 340 858 166 c 0,15,16
 699 -14 699 -14 459 -14 c 0,17,18
 294 -14 294 -14 227 135 c 1,19,20
 221 92 221 92 221 59 c 0,21,22
 221 -137 221 -137 348 -211 c 0,23,24
 437 -266 437 -266 635 -266 c 0,25,26
 686 -266 686 -266 723 -264 c 2,27,-1
 809 -262 l 1,0,-1
508 51 m 0,28,29
 662 51 662 51 758 236 c 0,30,31
 836 388 836 388 836 557 c 0,32,33
 836 809 836 809 666 809 c 0,34,35
 506 809 506 809 420 608 c 0,36,37
 356 454 356 454 356 268 c 0,38,39
 356 51 356 51 508 51 c 0,28,29
EndSplineSet
EndChar
StartChar: endash
Encoding: 8211 8211 55
Width: 1138
GlyphClass: 2
Flags: W
Fore
-4 459 m 1,0,-1
 1135 459 l 1,1,-1
 1135 606 l 1,2,-1
 -4 606 l 1,3,-1
 -4 459 l 1,0,-1
EndSplineSet
EndChar
StartChar: emdash
Encoding: 8212 8212 56
Width: 2048
GlyphClass: 2
Flags: W
Fore
0 459 m 1,0,-1
 2048 459 l 1,1,-1
 2048 606 l 1,2,-1
 0 606 l 1,3,-1
 0 459 l 1,0,-1
EndSplineSet
EndChar
StartChar: quoteleft
Encoding: 8216 8216 57
Width: 481
GlyphClass: 2
Flags: W
Fore
297 1122 m 0,0,1
 344 1122 344 1122 375 1084 c 0,2,3
 406 1045 406 1045 406 999 c 0,4,5
 406 953 406 953 369 923 c 0,6,7
 332 893 332 893 283 893 c 0,8,9
 190 893 190 893 136 965 c 0,10,11
 82 1036 82 1036 82 1130 c 0,12,13
 82 1240 82 1240 166 1350 c 0,14,15
 258 1466 258 1466 365 1466 c 1,16,-1
 373 1450 l 1,17,-1
 246 1329 l 2,18,19
 178 1251 178 1251 178 1174 c 0,20,21
 178 1122 178 1122 215 1092 c 1,22,23
 258 1122 258 1122 297 1122 c 0,0,1
EndSplineSet
EndChar
StartChar: quoteright
Encoding: 8217 8217 58
Width: 481
GlyphClass: 2
Flags: W
Fore
94 1358 m 0,0,1
 94 1406 94 1406 133 1437 c 0,2,3
 171 1468 171 1468 219 1468 c 0,4,5
 308 1468 308 1468 362 1386 c 0,6,7
 412 1315 412 1315 412 1223 c 0,8,9
 412 1107 412 1107 321 999 c 0,10,11
 230 893 230 893 115 893 c 1,12,-1
 100 905 l 1,13,14
 121 942 121 942 178 977 c 0,15,16
 246 1016 246 1016 264 1036 c 0,17,18
 305 1082 305 1082 305 1161 c 0,19,20
 305 1201 305 1201 283 1260 c 1,21,22
 247 1239 247 1239 217 1239 c 0,23,24
 169 1239 169 1239 131 1274 c 0,25,26
 94 1308 94 1308 94 1358 c 0,0,1
EndSplineSet
EndChar
StartChar: quotesinglbase
Encoding: 8218 8218 59
Width: 481
GlyphClass: 2
Flags: W
Fore
180 -39 m 1,0,1
 137 -39 137 -39 106 -2 c 0,2,3
 76 36 76 36 76 80 c 0,4,5
 76 127 76 127 113 160 c 0,6,7
 149 193 149 193 199 193 c 0,8,9
 288 193 288 193 344 122 c 0,10,11
 399 52 399 52 399 -43 c 0,12,13
 399 -148 399 -148 309 -262 c 0,14,15
 215 -383 215 -383 113 -383 c 1,16,-1
 104 -367 l 1,17,18
 207 -278 207 -278 233 -248 c 0,19,20
 299 -172 299 -172 299 -92 c 0,21,22
 299 -46 299 -46 268 -12 c 1,23,24
 228 -37 228 -37 182 -37 c 1,25,-1
 180 -39 l 1,0,1
EndSplineSet
EndChar
StartChar: quotedblleft
Encoding: 8220 8220 60
Width: 827
GlyphClass: 2
Flags: W
Fore
354 1024 m 0,0,1
 354 909 354 909 233 909 c 0,2,3
 148 909 148 909 96 991 c 0,4,5
 51 1063 51 1063 51 1153 c 0,6,7
 51 1281 51 1281 151 1375 c 0,8,9
 249 1470 249 1470 377 1470 c 1,10,-1
 387 1466 l 1,11,-1
 393 1458 l 1,12,-1
 389 1448 l 1,13,14
 156 1332 156 1332 156 1190 c 0,15,16
 156 1156 156 1156 174 1118 c 1,17,18
 218 1143 218 1143 252 1143 c 0,19,20
 294 1143 294 1143 325 1106 c 0,21,22
 354 1068 354 1068 354 1024 c 0,0,1
666 1143 m 1,23,24
 709 1143 709 1143 740 1109 c 0,25,26
 772 1076 772 1076 772 1032 c 0,27,28
 772 980 772 980 730 942 c 0,29,30
 687 905 687 905 633 905 c 0,31,32
 551 905 551 905 502 981 c 0,33,34
 461 1045 461 1045 461 1135 c 0,35,36
 461 1259 461 1259 543 1360 c 0,37,38
 629 1470 629 1470 750 1470 c 2,39,-1
 780 1464 l 1,40,-1
 788 1456 l 1,41,-1
 784 1448 l 1,42,43
 677 1386 677 1386 639 1348 c 0,44,45
 567 1278 567 1278 567 1192 c 0,46,47
 567 1171 567 1171 586 1118 c 1,48,49
 614 1132 614 1132 668 1143 c 1,50,-1
 666 1143 l 1,23,24
EndSplineSet
EndChar
StartChar: quotedblright
Encoding: 8221 8221 61
Width: 827
GlyphClass: 2
Flags: W
Fore
238 1167 m 1,0,1
 238 1204 238 1204 219 1251 c 1,2,3
 184 1231 184 1231 147 1231 c 0,4,5
 101 1231 101 1231 69 1266 c 0,6,7
 35 1300 35 1300 35 1346 c 0,8,9
 35 1394 35 1394 75 1430 c 0,10,11
 113 1464 113 1464 164 1464 c 0,12,13
 250 1464 250 1464 305 1395 c 0,14,15
 354 1332 354 1332 354 1241 c 0,16,17
 354 1120 354 1120 262 1012 c 0,18,19
 170 901 170 901 53 901 c 1,20,-1
 20 915 l 1,21,-1
 37 936 l 1,22,23
 120 966 120 966 174 1024 c 0,24,25
 240 1090 240 1090 240 1169 c 1,26,-1
 238 1167 l 1,0,1
547 1233 m 1,27,28
 504 1233 504 1233 475 1268 c 0,29,30
 446 1303 446 1303 446 1348 c 0,31,32
 446 1396 446 1396 486 1430 c 0,33,34
 527 1462 527 1462 575 1462 c 0,35,36
 660 1462 660 1462 709 1386 c 0,37,38
 750 1321 750 1321 750 1231 c 0,39,40
 750 1106 750 1106 657 1005 c 0,41,42
 566 903 566 903 442 903 c 1,43,-1
 420 920 l 1,44,-1
 565 1022 l 2,45,46
 645 1082 645 1082 645 1169 c 0,47,48
 645 1214 645 1214 635 1247 c 1,49,50
 588 1233 588 1233 545 1233 c 1,51,-1
 547 1233 l 1,27,28
EndSplineSet
EndChar
StartChar: quotedblbase
Encoding: 8222 8222 62
Width: 827
GlyphClass: 2
Flags: W
Fore
31 84 m 0,0,1
 31 134 31 134 70 171 c 0,2,3
 110 209 110 209 158 209 c 0,4,5
 248 209 248 209 297 133 c 0,6,7
 340 68 340 68 340 -29 c 0,8,9
 340 -156 340 -156 248 -259 c 0,10,11
 156 -360 156 -360 29 -360 c 1,12,-1
 2 -346 l 1,13,14
 131 -256 131 -256 150 -240 c 0,15,16
 227 -168 227 -168 227 -84 c 0,17,18
 227 -44 227 -44 215 -6 c 1,19,20
 167 -29 167 -29 131 -29 c 0,21,22
 90 -29 90 -29 60 7 c 0,23,24
 31 44 31 44 31 84 c 0,0,1
449 102 m 0,25,26
 449 149 449 149 484 178 c 0,27,28
 519 209 519 209 565 209 c 0,29,30
 651 209 651 209 705 129 c 0,31,32
 752 57 752 57 752 -33 c 0,33,34
 752 -161 752 -161 654 -261 c 0,35,36
 556 -360 556 -360 430 -360 c 2,37,-1
 408 -354 l 1,38,-1
 406 -346 l 1,39,40
 436 -315 436 -315 505 -269 c 0,41,42
 575 -224 575 -224 600 -193 c 0,43,44
 643 -144 643 -144 643 -74 c 0,45,46
 643 -41 643 -41 633 -8 c 1,47,48
 594 -29 594 -29 551 -29 c 0,49,50
 502 -29 502 -29 473 14 c 0,51,52
 449 52 449 52 449 102 c 0,25,26
EndSplineSet
EndChar
StartChar: dagger
Encoding: 8224 8224 63
Width: 919
GlyphClass: 2
Flags: W
Fore
436 1473 m 0,0,1
 555 1473 555 1473 555 1327 c 0,2,3
 555 1279 555 1279 461 1022 c 1,4,5
 686 1106 686 1106 723 1106 c 0,6,7
 770 1106 770 1106 807 1075 c 0,8,9
 844 1044 844 1044 844 999 c 0,10,11
 844 953 844 953 809 921 c 0,12,13
 776 889 776 889 727 889 c 0,14,15
 671 889 671 889 594 924 c 0,16,17
 499 965 499 965 465 971 c 1,18,19
 492 802 492 802 563 758 c 1,20,21
 461 422 461 422 461 -55 c 0,22,23
 461 -178 461 -178 469 -365 c 1,24,-1
 403 -365 l 1,25,-1
 403 -166 l 2,26,27
 403 494 403 494 301 764 c 1,28,29
 402 836 402 836 403 971 c 1,30,31
 373 965 373 965 281 924 c 0,32,33
 204 891 204 891 156 891 c 0,34,35
 109 891 109 891 76 923 c 0,36,37
 41 955 41 955 41 999 c 0,38,39
 41 1042 41 1042 75 1072 c 0,40,41
 108 1102 108 1102 152 1102 c 0,42,43
 201 1102 201 1102 276 1069 c 0,44,45
 367 1028 367 1028 397 1022 c 1,46,47
 390 1060 390 1060 350 1178 c 0,48,49
 319 1274 319 1274 319 1335 c 0,50,51
 319 1389 319 1389 351 1432 c 0,52,53
 383 1473 383 1473 436 1473 c 0,0,1
EndSplineSet
EndChar
StartChar: daggerdbl
Encoding: 8225 8225 64
Width: 1024
GlyphClass: 2
Flags: W
Fore
530 977 m 1,0,1
 544 869 544 869 625 807 c 1,2,3
 530 668 530 668 530 483 c 0,4,5
 530 311 530 311 625 170 c 1,6,7
 545 104 545 104 530 0 c 1,8,9
 568 6 568 6 659 43 c 0,10,11
 744 74 744 74 793 74 c 0,12,13
 829 74 829 74 857 48 c 0,14,15
 885 23 885 23 885 -14 c 0,16,17
 885 -51 885 -51 857 -79 c 0,18,19
 830 -106 830 -106 793 -106 c 0,20,21
 741 -106 741 -106 662 -74 c 0,22,23
 571 -38 571 -38 530 -37 c 1,24,25
 538 -85 538 -85 578 -186 c 0,26,27
 614 -279 614 -279 614 -338 c 0,28,29
 614 -381 614 -381 585 -412 c 0,30,31
 555 -442 555 -442 512 -442 c 0,32,33
 471 -442 471 -442 442 -410 c 0,34,35
 414 -378 414 -378 414 -334 c 0,36,37
 414 -278 414 -278 450 -181 c 0,38,39
 486 -78 486 -78 489 -37 c 1,40,41
 446 -39 446 -39 362 -73 c 0,42,43
 280 -106 280 -106 231 -106 c 0,44,45
 194 -106 194 -106 168 -81 c 0,46,47
 141 -56 141 -56 141 -18 c 0,48,49
 141 20 141 20 170 47 c 0,50,51
 198 74 198 74 238 74 c 0,52,53
 285 74 285 74 366 41 c 0,54,55
 442 9 442 9 489 6 c 1,56,57
 475 107 475 107 393 170 c 1,58,59
 492 299 492 299 492 496 c 0,60,61
 492 699 492 699 393 807 c 1,62,63
 474 865 474 865 489 977 c 1,64,65
 446 972 446 972 358 940 c 0,66,67
 274 909 274 909 227 909 c 0,68,69
 193 909 193 909 166 936 c 128,-1,70
 139 963 139 963 139 997 c 0,71,72
 139 1032 139 1032 165 1058 c 0,73,74
 190 1083 190 1083 225 1083 c 0,75,76
 273 1083 273 1083 361 1051 c 0,77,78
 451 1017 451 1017 489 1014 c 1,79,80
 488 1062 488 1062 449 1161 c 0,81,82
 410 1257 410 1257 410 1311 c 0,83,84
 410 1355 410 1355 439 1388 c 0,85,86
 469 1421 469 1421 512 1421 c 0,87,88
 608 1421 608 1421 608 1307 c 0,89,90
 608 1250 608 1250 573 1159 c 0,91,92
 535 1063 535 1063 530 1014 c 1,93,94
 570 1017 570 1017 662 1053 c 0,95,96
 744 1083 744 1083 795 1083 c 0,97,98
 832 1083 832 1083 858 1058 c 0,99,100
 885 1032 885 1032 885 995 c 0,101,102
 885 958 885 958 857 933 c 0,103,104
 829 907 829 907 791 907 c 0,105,106
 744 907 744 907 659 938 c 0,107,108
 572 972 572 972 530 977 c 1,0,1
EndSplineSet
EndChar
StartChar: bullet
Encoding: 8226 8226 65
Width: 729
GlyphClass: 2
Flags: W
Fore
346 457 m 0,0,1
 236 457 236 457 155 535 c 0,2,3
 74 612 74 612 74 723 c 0,4,5
 74 833 74 833 155 911 c 128,-1,6
 236 989 236 989 346 989 c 0,7,8
 455 989 455 989 531 910 c 0,9,10
 608 833 608 833 608 723 c 0,11,12
 608 611 608 611 532 535 c 0,13,14
 457 457 457 457 346 457 c 0,0,1
EndSplineSet
EndChar
StartChar: ellipsis
Encoding: 8230 8230 66
Width: 1949
GlyphClass: 3
Flags: W
Fore
381 94 m 0,0,1
 381 47 381 47 348 14 c 0,2,3
 319 -18 319 -18 270 -18 c 0,4,5
 224 -18 224 -18 193 15 c 0,6,7
 160 50 160 50 160 94 c 0,8,9
 160 139 160 139 193 172 c 0,10,11
 224 205 224 205 270 205 c 0,12,13
 315 205 315 205 348 172 c 128,-1,14
 381 139 381 139 381 94 c 0,0,1
1063 94 m 0,15,16
 1063 48 1063 48 1032 16 c 0,17,18
 999 -18 999 -18 954 -18 c 0,19,20
 909 -18 909 -18 876 15 c 0,21,22
 842 49 842 49 842 94 c 0,23,24
 842 139 842 139 876 172 c 0,25,26
 909 205 909 205 954 205 c 0,27,28
 1063 205 1063 205 1063 94 c 0,15,16
1747 94 m 0,29,30
 1747 46 1747 46 1716 14 c 0,31,32
 1684 -18 1684 -18 1636 -18 c 0,33,34
 1590 -18 1590 -18 1559 15 c 0,35,36
 1526 50 1526 50 1526 94 c 0,37,38
 1526 139 1526 139 1559 172 c 0,39,40
 1590 205 1590 205 1636 205 c 0,41,42
 1681 205 1681 205 1714 172 c 128,-1,43
 1747 139 1747 139 1747 94 c 0,29,30
EndSplineSet
Ligature: 0 0 'liga' period period period
EndChar
StartChar: perthousand
Encoding: 8240 8240 67
Width: 1966
GlyphClass: 2
Flags: W
Fore
289 1386 m 0,0,1
 429 1386 429 1386 508 1268 c 0,2,3
 575 1166 575 1166 575 1018 c 0,4,5
 575 872 575 872 508 770 c 0,6,7
 430 653 430 653 291 653 c 0,8,9
 153 653 153 653 72 770 c 0,10,11
 0 875 0 875 0 1018 c 0,12,13
 0 1160 0 1160 72 1266 c 0,14,15
 153 1386 153 1386 289 1386 c 0,0,1
291 1331 m 0,16,17
 160 1331 160 1331 160 1020 c 0,18,19
 160 705 160 705 287 705 c 0,20,21
 418 705 418 705 418 1014 c 0,22,23
 418 1331 418 1331 291 1331 c 0,16,17
1038 1440 m 1,24,-1
 332 -55 l 1,25,-1
 244 -55 l 1,26,-1
 948 1440 l 1,27,-1
 1038 1440 l 1,24,-1
1024 682 m 0,28,29
 1161 682 1161 682 1239 563 c 0,30,31
 1309 458 1309 458 1309 315 c 0,32,33
 1309 173 1309 173 1241 70 c 0,34,35
 1162 -47 1162 -47 1024 -47 c 0,36,37
 890 -47 890 -47 807 70 c 0,38,39
 733 177 733 177 733 315 c 0,40,41
 733 460 733 460 805 563 c 0,42,43
 886 682 886 682 1024 682 c 0,28,29
1024 629 m 0,44,45
 893 629 893 629 893 309 c 0,46,47
 893 8 893 8 1022 8 c 128,-1,48
 1151 8 1151 8 1151 313 c 0,49,50
 1151 629 1151 629 1024 629 c 0,44,45
1675 690 m 0,51,52
 1813 690 1813 690 1890 571 c 0,53,54
 1960 468 1960 468 1960 324 c 0,55,56
 1960 181 1960 181 1892 78 c 0,57,58
 1812 -39 1812 -39 1675 -39 c 0,59,60
 1540 -39 1540 -39 1458 78 c 0,61,62
 1384 185 1384 185 1384 324 c 0,63,64
 1384 468 1384 468 1456 571 c 0,65,66
 1538 690 1538 690 1675 690 c 0,51,52
1675 637 m 0,67,68
 1544 637 1544 637 1544 317 c 0,69,70
 1544 16 1544 16 1673 16 c 128,-1,71
 1802 16 1802 16 1802 322 c 0,72,73
 1802 637 1802 637 1675 637 c 0,67,68
EndSplineSet
EndChar
StartChar: guilsinglleft
Encoding: 8249 8249 68
Width: 681
GlyphClass: 2
Flags: W
Fore
563 -8 m 1,0,-1
 506 -8 l 1,1,-1
 119 465 l 1,2,-1
 506 934 l 1,3,-1
 563 934 l 1,4,-1
 319 465 l 1,5,-1
 563 -8 l 1,0,-1
EndSplineSet
EndChar
StartChar: guilsinglright
Encoding: 8250 8250 69
Width: 681
GlyphClass: 2
Flags: W
Fore
115 934 m 1,0,-1
 172 934 l 1,1,-1
 567 463 l 1,2,-1
 172 -8 l 1,3,-1
 115 -8 l 1,4,-1
 358 463 l 1,5,-1
 115 934 l 1,0,-1
EndSplineSet
EndChar
StartChar: colonmonetary
Encoding: 8353 8353 70
Width: 1366
GlyphClass: 2
Flags: W
Fore
385 287 m 1,0,-1
 717 1311 l 1,1,2
 494 1283 494 1283 387 1073 c 0,3,4
 301 904 301 904 301 655 c 0,5,6
 301 436 301 436 385 287 c 1,0,-1
573 109 m 1,7,-1
 952 1284 l 1,8,9
 883 1312 883 1312 793 1315 c 1,10,-1
 438 213 l 1,11,12
 494 149 494 149 573 109 c 1,7,-1
1106 1522 m 1,13,-1
 1040 1321 l 1,14,15
 1083 1292 1083 1292 1114 1292 c 0,16,17
 1181 1292 1181 1292 1198 1386 c 1,18,-1
 1233 1386 l 1,19,-1
 1264 926 l 1,20,-1
 1233 926 l 1,21,22
 1162 1159 1162 1159 1018 1251 c 1,23,-1
 641 82 l 1,24,25
 722 57 722 57 809 57 c 0,26,27
 1064 57 1064 57 1264 338 c 1,28,-1
 1294 317 l 1,29,30
 1098 -31 1098 -31 733 -31 c 0,31,32
 675 -31 675 -31 606 -20 c 1,33,-1
 547 -207 l 1,34,-1
 479 -184 l 1,35,-1
 537 -6 l 1,36,37
 456 16 456 16 387 57 c 1,38,-1
 322 -145 l 1,39,-1
 254 -123 l 1,40,-1
 326 100 l 1,41,42
 74 301 74 301 74 657 c 0,43,44
 74 954 74 954 260 1166 c 0,45,46
 446 1378 446 1378 741 1386 c 1,47,-1
 811 1606 l 1,48,-1
 881 1583 l 1,49,-1
 815 1384 l 1,50,51
 899 1378 899 1378 975 1350 c 1,52,-1
 1036 1544 l 1,53,-1
 1106 1522 l 1,13,-1
EndSplineSet
EndChar
StartChar: uni20A2
Encoding: 8354 8354 71
Width: 1441
GlyphClass: 2
Flags: W
Fore
1274 373 m 1,0,-1
 1331 336 l 1,1,2
 1256 176 1256 176 1103 74 c 0,3,4
 951 -29 951 -29 776 -29 c 0,5,6
 438 -29 438 -29 227 164 c 0,7,8
 10 363 10 363 10 698 c 0,9,10
 10 1019 10 1019 213 1245 c 0,11,12
 418 1473 418 1473 737 1473 c 0,13,14
 806 1473 806 1473 933 1428 c 0,15,16
 1062 1384 1062 1384 1128 1384 c 0,17,18
 1192 1384 1192 1384 1192 1473 c 1,19,-1
 1241 1473 l 1,20,21
 1241 1164 1241 1164 1280 991 c 1,22,-1
 1227 983 l 1,23,24
 1112 1384 1112 1384 791 1384 c 0,25,26
 541 1384 541 1384 393 1184 c 0,27,28
 262 1003 262 1003 262 743 c 0,29,30
 262 520 262 520 334 354 c 0,31,32
 424 139 424 139 608 94 c 1,33,-1
 606 764 l 2,34,35
 606 883 606 883 502 883 c 0,36,37
 481 883 481 883 457 877 c 1,38,-1
 457 901 l 1,39,40
 589 952 589 952 772 1032 c 1,41,-1
 772 864 l 1,42,43
 888 1026 888 1026 1020 1026 c 0,44,45
 1067 1026 1067 1026 1100 992 c 0,46,47
 1133 959 1133 959 1133 911 c 0,48,49
 1133 874 1133 874 1107 840 c 0,50,51
 1082 807 1082 807 1042 807 c 0,52,53
 981 807 981 807 936 877 c 1,54,-1
 905 881 l 2,55,56
 835 881 835 881 799 793 c 0,57,58
 774 730 774 730 774 645 c 2,59,-1
 776 84 l 1,60,61
 946 84 946 84 1065 158 c 0,62,63
 1163 221 1163 221 1274 373 c 1,0,-1
EndSplineSet
EndChar
StartChar: franc
Encoding: 8355 8355 72
Width: 1267
GlyphClass: 2
Flags: W
Fore
791 1008 m 1,0,-1
 854 864 l 1,1,2
 971 1026 971 1026 1102 1026 c 0,3,4
 1149 1026 1149 1026 1182 992 c 0,5,6
 1214 960 1214 960 1214 911 c 0,7,8
 1214 872 1214 872 1189 840 c 0,9,10
 1164 807 1164 807 1124 807 c 0,11,12
 1067 807 1067 807 1018 877 c 1,13,-1
 987 881 l 2,14,15
 918 881 918 881 883 793 c 0,16,17
 856 728 856 728 856 645 c 2,18,-1
 856 170 l 2,19,20
 856 54 856 54 1030 37 c 1,21,-1
 1036 2 l 1,22,-1
 6 0 l 1,23,-1
 6 41 l 1,24,25
 123 58 123 58 168 111 c 0,26,27
 213 164 213 164 213 283 c 2,28,-1
 213 1231 l 2,29,30
 213 1331 213 1331 156 1370 c 0,31,32
 110 1404 110 1404 4 1405 c 1,33,-1
 4 1452 l 1,34,-1
 1118 1452 l 1,35,-1
 1147 1112 l 1,36,-1
 1087 1112 l 1,37,38
 1063 1242 1063 1242 1008 1300 c 0,39,40
 946 1366 946 1366 817 1366 c 2,41,-1
 430 1366 l 1,42,-1
 430 885 l 1,43,44
 556 919 556 919 791 1008 c 1,0,-1
430 193 m 2,45,46
 430 116 430 116 459 82 c 0,47,48
 486 49 486 49 561 49 c 0,49,50
 690 49 690 49 690 182 c 2,51,-1
 688 764 l 2,52,53
 688 815 688 815 606 842 c 0,54,55
 552 861 552 861 501 861 c 0,56,57
 491 861 491 861 481 860 c 2,58,-1
 430 858 l 1,59,-1
 430 193 l 2,45,46
EndSplineSet
EndChar
StartChar: lira
Encoding: 8356 8356 73
Width: 1050
GlyphClass: 2
Flags: W
Fore
63 113 m 0,0,1
 63 86 63 86 86 68 c 0,2,3
 108 49 108 49 137 49 c 0,4,5
 190 49 190 49 276 143 c 1,6,7
 221 178 221 178 147 178 c 0,8,9
 63 178 63 178 63 113 c 0,0,1
838 506 m 1,10,-1
 528 506 l 1,11,12
 526 363 526 363 446 193 c 1,13,14
 588 154 588 154 688 154 c 0,15,16
 938 154 938 154 981 340 c 1,17,-1
 1020 340 l 1,18,-1
 1020 309 l 2,19,20
 1020 176 1020 176 930 78 c 0,21,22
 842 -20 842 -20 709 -20 c 0,23,24
 576 -20 576 -20 358 92 c 1,25,26
 245 -23 245 -23 121 -23 c 0,27,28
 65 -23 65 -23 20 20 c 0,29,30
 -23 63 -23 63 -23 117 c 0,31,32
 -23 190 -23 190 35 231 c 0,33,34
 86 270 86 270 162 270 c 0,35,36
 210 270 210 270 330 238 c 1,37,38
 346 312 346 312 346 356 c 0,39,40
 346 430 346 430 340 506 c 1,41,-1
 98 506 l 1,42,-1
 98 598 l 1,43,-1
 328 598 l 1,44,45
 323 640 323 640 311 698 c 1,46,-1
 90 698 l 1,47,-1
 90 780 l 1,48,-1
 291 780 l 1,49,50
 252 934 252 934 252 1036 c 0,51,52
 252 1228 252 1228 356 1353 c 0,53,54
 462 1477 462 1477 651 1477 c 0,55,56
 754 1477 754 1477 829 1434 c 0,57,58
 920 1380 920 1380 920 1284 c 0,59,60
 920 1245 920 1245 892 1212 c 0,61,62
 864 1182 864 1182 823 1182 c 0,63,64
 752 1182 752 1182 737 1241 c 2,65,-1
 725 1350 l 2,66,67
 713 1409 713 1409 649 1409 c 0,68,69
 547 1409 547 1409 487 1319 c 0,70,71
 436 1240 436 1240 436 1133 c 0,72,73
 436 1057 436 1057 498 782 c 1,74,-1
 836 782 l 1,75,-1
 836 698 l 1,76,-1
 510 698 l 1,77,78
 521 647 521 647 524 598 c 1,79,-1
 838 598 l 1,80,-1
 838 506 l 1,10,-1
EndSplineSet
EndChar
StartChar: uni20A8
Encoding: 8360 8360 74
Width: 1964
GlyphClass: 2
Flags: W
Fore
1884 942 m 1,0,-1
 1884 631 l 1,1,-1
 1851 631 l 1,2,3
 1789 885 1789 885 1604 885 c 0,4,5
 1549 885 1549 885 1499 854 c 0,6,7
 1446 821 1446 821 1446 766 c 0,8,9
 1446 666 1446 666 1577 592 c 2,10,-1
 1823 467 l 2,11,12
 1953 382 1953 382 1954 250 c 0,13,14
 1954 129 1954 129 1862 49 c 0,15,16
 1769 -29 1769 -29 1649 -29 c 0,17,18
 1604 -29 1604 -29 1512 -6 c 0,19,20
 1425 16 1425 16 1378 16 c 1,21,-1
 1366 6 l 1,22,-1
 1333 6 l 1,23,-1
 1333 0 l 1,24,-1
 1001 0 l 1,25,-1
 543 635 l 1,26,-1
 459 633 l 1,27,-1
 401 635 l 1,28,-1
 401 240 l 2,29,30
 401 118 401 118 438 76 c 0,31,32
 473 37 473 37 580 37 c 0,33,34
 596 37 l 1,35,-1
 596 0 l 1,36,-1
 14 0 l 1,37,-1
 14 37 l 1,38,-1
 76 39 l 2,39,40
 145 46 145 46 172 76 c 0,41,42
 209 116 209 116 209 240 c 2,43,-1
 209 983 l 1,44,-1
 4 983 l 1,45,-1
 4 1055 l 1,46,-1
 209 1055 l 1,47,-1
 209 1116 l 2,48,49
 209 1240 209 1240 172 1280 c 0,50,51
 136 1319 136 1319 23 1319 c 0,52,53
 19 1319 19 1319 14 1319 c 1,54,-1
 14 1356 l 1,55,-1
 522 1356 l 2,56,57
 1030 1356 1030 1356 1069 1055 c 1,58,-1
 1253 1055 l 1,59,-1
 1253 983 l 1,60,-1
 1071 983 l 1,61,62
 1054 731 1054 731 739 659 c 1,63,-1
 1018 270 l 2,64,65
 1164 65 1164 65 1333 41 c 1,66,-1
 1333 313 l 1,67,-1
 1366 313 l 1,68,69
 1390 195 1390 195 1458 119 c 0,70,71
 1537 31 1537 31 1651 31 c 0,72,73
 1715 31 1715 31 1760 70 c 0,74,75
 1806 109 1806 109 1806 170 c 0,76,77
 1806 270 1806 270 1683 344 c 2,78,-1
 1452 467 l 2,79,80
 1329 551 1329 551 1329 678 c 0,81,82
 1329 797 1329 797 1409 869 c 0,83,84
 1488 942 1488 942 1608 942 c 0,85,86
 1642 942 1642 942 1707 924 c 0,87,88
 1770 905 1770 905 1806 905 c 2,89,-1
 1831 911 l 1,90,-1
 1851 942 l 1,91,-1
 1884 942 l 1,0,-1
401 983 m 1,92,-1
 401 696 l 1,93,-1
 457 696 l 2,94,95
 618 696 618 696 719 760 c 0,96,97
 842 834 842 834 848 983 c 1,98,-1
 401 983 l 1,92,-1
842 1055 m 1,99,100
 825 1159 825 1159 745 1220 c 0,101,102
 666 1280 666 1280 557 1280 c 0,103,104
 498 1280 498 1280 401 1262 c 1,105,-1
 401 1055 l 1,106,-1
 842 1055 l 1,99,100
EndSplineSet
EndChar
StartChar: uni20A9
Encoding: 8361 8361 75
Width: 2058
GlyphClass: 2
Flags: W
Fore
850 918 m 1,0,-1
 498 918 l 1,1,-1
 676 440 l 1,2,3
 767 673 767 673 850 918 c 1,0,-1
1534 915 m 1,4,-1
 1190 915 l 1,5,-1
 1366 428 l 1,6,-1
 1534 915 l 1,4,-1
1165 987 m 1,7,-1
 1559 987 l 1,8,-1
 1602 1120 l 1,9,-1
 1118 1120 l 1,10,-1
 1165 987 l 1,7,-1
471 989 m 1,11,-1
 874 989 l 1,12,-1
 901 1073 l 1,13,-1
 887 1122 l 1,14,-1
 424 1122 l 1,15,-1
 471 989 l 1,11,-1
2 989 m 1,16,-1
 250 989 l 1,17,18
 229 1050 229 1050 199 1122 c 1,19,-1
 2 1122 l 1,20,-1
 2 1194 l 1,21,-1
 168 1194 l 1,22,23
 124 1301 124 1301 86 1341 c 0,24,25
 34 1399 34 1399 -66 1411 c 1,26,-1
 -66 1454 l 1,27,-1
 -63 1454 l 2,28,29
 2 1454 2 1454 231 1450 c 2,30,-1
 484 1451 l 2,31,32
 505 1451 505 1451 524 1452 c 1,33,-1
 524 1407 l 1,34,-1
 470 1405 l 1,35,-1
 431 1397 l 1,36,-1
 404 1385 l 2,37,38
 388 1375 388 1375 380 1360 c 2,39,-1
 371 1340 l 1,40,-1
 369 1319 l 2,41,42
 369 1285 369 1285 401 1194 c 1,43,-1
 864 1194 l 1,44,45
 824 1310 824 1310 784 1352 c 0,46,47
 731 1406 731 1406 621 1411 c 1,48,-1
 618 1454 l 1,49,50
 757 1449 757 1449 937 1450 c 0,51,52
 1064 1450 1064 1450 1210 1452 c 1,53,-1
 1210 1405 l 1,54,55
 1059 1405 1059 1405 1059 1317 c 0,56,57
 1059 1287 1059 1287 1094 1192 c 1,58,-1
 1624 1192 l 1,59,60
 1659 1289 1659 1289 1659 1315 c 0,61,62
 1659 1368 1659 1368 1608 1391 c 0,63,64
 1579 1405 1579 1405 1539 1404 c 2,65,-1
 1511 1403 l 1,66,-1
 1509 1454 l 1,67,68
 1620 1449 1620 1449 1766 1450 c 0,69,70
 1869 1450 1869 1450 1987 1452 c 1,71,-1
 1987 1403 l 1,72,73
 1873 1388 1873 1388 1825 1343 c 0,74,75
 1787 1308 1787 1308 1743 1192 c 1,76,-1
 1972 1192 l 1,77,-1
 1972 1120 l 1,78,-1
 1718 1120 l 1,79,-1
 1669 987 l 1,80,-1
 1972 987 l 1,81,-1
 1972 915 l 1,82,-1
 1645 915 l 1,83,-1
 1311 -35 l 1,84,85
 1206 266 1206 266 961 913 c 1,86,87
 918 805 918 805 610 -33 c 1,88,-1
 276 918 l 1,89,-1
 2 918 l 1,90,-1
 2 989 l 1,16,-1
EndSplineSet
EndChar
StartChar: dong
Encoding: 8363 8363 76
Width: 1093
GlyphClass: 2
Flags: W
Fore
569 1499 m 1,0,-1
 567 1532 l 1,1,2
 763 1583 763 1583 901 1665 c 1,3,-1
 899 416 l 2,4,5
 899 307 899 307 999 307 c 0,6,7
 1022 307 1022 307 1051 315 c 1,8,-1
 1051 283 l 1,9,-1
 719 154 l 1,10,-1
 717 303 l 1,11,12
 623 229 623 229 586 207 c 0,13,14
 513 166 513 166 430 166 c 0,15,16
 238 166 238 166 137 334 c 0,17,18
 55 472 55 472 55 678 c 0,19,20
 55 889 55 889 154 1036 c 0,21,22
 266 1206 266 1206 467 1206 c 0,23,24
 612 1206 612 1206 725 1110 c 1,25,-1
 725 1417 l 2,26,27
 725 1507 725 1507 631 1507 c 0,28,29
 598 1507 598 1507 569 1499 c 1,0,-1
508 1126 m 0,30,31
 364 1126 364 1126 291 983 c 0,32,33
 231 870 231 870 231 713 c 0,34,35
 231 544 231 544 293 432 c 0,36,37
 371 297 371 297 528 297 c 0,38,39
 643 297 643 297 723 395 c 1,40,-1
 723 903 l 2,41,42
 723 994 723 994 662 1061 c 0,43,44
 601 1126 601 1126 508 1126 c 0,30,31
102 66 m 1,45,-1
 1012 66 l 1,46,-1
 1012 -6 l 1,47,-1
 102 -6 l 1,48,-1
 102 66 l 1,45,-1
1012 1331 m 1,49,-1
 287 1331 l 1,50,-1
 287 1403 l 1,51,-1
 1012 1403 l 1,52,-1
 1012 1331 l 1,49,-1
EndSplineSet
EndChar
StartChar: Euro
Encoding: 8364 8364 77
Width: 1566
GlyphClass: 2
Flags: W
Fore
1386 1090 m 1,0,1
 1102 1309 1102 1309 891 1309 c 0,2,3
 731 1309 731 1309 596 1200 c 0,4,5
 473 1099 473 1099 414 942 c 1,6,-1
 1333 942 l 1,7,-1
 1247 764 l 1,8,-1
 381 764 l 1,9,-1
 381 700 l 1,10,-1
 1231 700 l 1,11,-1
 1145 526 l 1,12,-1
 412 526 l 1,13,14
 460 367 460 367 594 260 c 0,15,16
 727 154 727 154 891 154 c 0,17,18
 1126 154 1126 154 1405 387 c 1,19,-1
 1405 176 l 1,20,21
 1180 -25 1180 -25 897 -25 c 0,22,23
 663 -25 663 -25 477 137 c 0,24,25
 299 293 299 293 246 526 c 1,26,-1
 -2 526 l 1,27,-1
 78 702 l 1,28,-1
 219 702 l 1,29,-1
 219 764 l 1,30,-1
 0 764 l 1,31,-1
 66 938 l 1,32,-1
 238 938 l 1,33,34
 313 1176 313 1176 475 1323 c 0,35,36
 656 1487 656 1487 891 1487 c 0,37,38
 1177 1487 1177 1487 1485 1260 c 1,39,-1
 1386 1090 l 1,0,1
EndSplineSet
EndChar
StartChar: uni2102
Encoding: 8450 8450 78
Width: 1374
GlyphClass: 2
Flags: W
Fore
426 256 m 1,0,-1
 426 1126 l 1,1,2
 283 989 283 989 283 700 c 0,3,4
 283 392 283 392 426 256 c 1,0,-1
575 1214 m 1,5,-1
 575 168 l 1,6,7
 647 145 647 145 719 145 c 0,8,9
 1042 145 1042 145 1114 487 c 1,10,-1
 1292 442 l 1,11,12
 1241 231 1241 231 1094 111 c 0,13,14
 950 -8 950 -8 733 -8 c 0,15,16
 423 -8 423 -8 254 195 c 0,17,18
 98 382 98 382 98 700 c 0,19,20
 98 1007 98 1007 262 1194 c 0,21,22
 434 1389 434 1389 737 1389 c 0,23,24
 933 1389 933 1389 1075 1285 c 0,25,26
 1216 1181 1216 1181 1270 995 c 1,27,-1
 1094 954 l 1,28,29
 1005 1235 1005 1235 733 1235 c 0,30,31
 647 1235 647 1235 575 1214 c 1,5,-1
EndSplineSet
EndChar
StartChar: uni2107
Encoding: 8455 8455 79
Width: 989
GlyphClass: 2
Flags: W
Fore
866 74 m 1,0,1
 699 -6 699 -6 518 -6 c 0,2,3
 335 -6 335 -6 213 82 c 0,4,5
 76 180 76 180 76 356 c 0,6,7
 76 644 76 644 451 727 c 1,8,9
 164 805 164 805 164 1016 c 0,10,11
 164 1164 164 1164 291 1239 c 0,12,13
 391 1298 391 1298 553 1298 c 0,14,15
 675 1298 675 1298 846 1255 c 1,16,-1
 846 1075 l 1,17,-1
 764 1075 l 1,18,19
 749 1247 749 1247 547 1247 c 0,20,21
 444 1247 444 1247 380 1185 c 0,22,23
 317 1122 317 1122 317 1018 c 0,24,25
 317 865 317 865 420 801 c 0,26,27
 501 750 501 750 666 750 c 1,28,-1
 666 668 l 1,29,30
 240 668 240 668 240 354 c 0,31,32
 240 217 240 217 328 135 c 0,33,34
 414 55 414 55 551 55 c 0,35,36
 784 55 784 55 784 289 c 0,37,38
 784 295 l 1,39,-1
 866 295 l 1,40,-1
 866 74 l 1,0,1
EndSplineSet
EndChar
StartChar: uni210A
Encoding: 8458 8458 80
Width: 1366
GlyphClass: 2
Flags: W
Fore
877 829 m 1,0,-1
 1042 829 l 1,1,-1
 883 29 l 1,2,3
 1165 138 1165 138 1300 367 c 1,4,-1
 1333 348 l 1,5,6
 1170 80 1170 80 874 -18 c 1,7,8
 743 -641 743 -641 295 -641 c 0,9,10
 201 -641 201 -641 129 -596 c 0,11,12
 43 -542 43 -542 43 -455 c 0,13,14
 43 -200 43 -200 711 -12 c 1,15,-1
 745 170 l 1,16,17
 649 -4 649 -4 477 -4 c 0,18,19
 348 -4 348 -4 266 98 c 0,20,21
 190 194 190 194 190 324 c 0,22,23
 190 526 190 526 303 680 c 0,24,25
 428 850 428 850 623 850 c 0,26,27
 791 850 791 850 848 674 c 1,28,-1
 877 829 l 1,0,-1
817 578 m 0,29,30
 817 661 817 661 780 723 c 0,31,32
 737 799 737 799 659 799 c 0,33,34
 513 799 513 799 428 600 c 0,35,36
 360 443 360 443 360 276 c 0,37,38
 360 193 360 193 395 131 c 0,39,40
 439 57 439 57 516 57 c 0,41,42
 673 57 673 57 756 250 c 0,43,44
 817 394 817 394 817 578 c 0,29,30
700 -57 m 1,45,46
 172 -206 172 -206 172 -453 c 0,47,48
 172 -517 172 -517 225 -558 c 0,49,50
 278 -598 278 -598 346 -598 c 0,51,52
 597 -598 597 -598 700 -57 c 1,45,46
EndSplineSet
EndChar
StartChar: uni210F
Encoding: 8463 8463 81
Width: 1007
GlyphClass: 2
Flags: W
Fore
356 1126 m 1,0,1
 389 1242 389 1242 389 1274 c 2,2,-1
 381 1300 l 1,3,4
 349 1314 349 1314 292 1313 c 2,5,-1
 270 1313 l 1,6,-1
 270 1350 l 1,7,-1
 567 1401 l 1,8,9
 566 1326 566 1326 506 1126 c 1,10,-1
 877 1130 l 1,11,-1
 877 1049 l 1,12,-1
 483 1044 l 1,13,-1
 369 631 l 1,14,15
 454 725 454 725 571 811 c 0,16,17
 722 918 722 918 809 918 c 0,18,19
 859 918 859 918 893 872 c 0,20,21
 926 827 926 827 926 774 c 0,22,23
 926 658 926 658 841 436 c 0,24,25
 756 218 756 218 756 98 c 0,26,27
 756 74 756 74 780 74 c 0,28,29
 862 74 862 74 958 233 c 1,30,-1
 967 219 l 1,31,32
 964 138 964 138 872 58 c 0,33,34
 780 -23 780 -23 698 -23 c 0,35,36
 602 -23 602 -23 602 80 c 0,37,38
 602 204 602 204 687 428 c 128,-1,39
 772 652 772 652 772 774 c 1,40,41
 738 805 738 805 717 805 c 0,42,43
 690 805 690 805 672 778 c 2,44,45
 376 653 376 653 199 0 c 1,46,-1
 47 0 l 1,47,-1
 334 1044 l 1,48,-1
 123 1044 l 1,49,-1
 129 1126 l 1,50,-1
 356 1126 l 1,0,1
EndSplineSet
EndChar
StartChar: Ifraktur
Encoding: 8465 8465 82
Width: 1404
GlyphClass: 2
Flags: W
Fore
395 915 m 1,0,-1
 403 883 l 1,1,2
 366 874 366 874 324 874 c 0,3,4
 234 874 234 874 170 938 c 0,5,6
 106 1005 106 1005 106 1094 c 0,7,8
 106 1226 106 1226 215 1311 c 0,9,10
 314 1386 314 1386 451 1386 c 0,11,12
 552 1386 552 1386 737 1313 c 0,13,14
 926 1239 926 1239 1024 1239 c 0,15,16
 1144 1239 1144 1239 1194 1364 c 1,17,-1
 1227 1356 l 1,18,19
 1148 1090 1148 1090 920 1090 c 0,20,21
 816 1090 816 1090 629 1159 c 0,22,23
 441 1229 441 1229 338 1229 c 0,24,25
 265 1229 265 1229 210 1185 c 0,26,27
 156 1140 156 1140 156 1069 c 0,28,29
 156 911 156 911 338 911 c 0,30,31
 355 911 355 911 395 915 c 1,0,-1
1225 934 m 1,32,-1
 1200 915 l 1,33,34
 1133 965 1133 965 1081 965 c 0,35,36
 995 965 995 965 995 874 c 0,37,38
 995 824 995 824 1098 636 c 0,39,40
 1200 447 1200 447 1200 373 c 0,41,42
 1200 182 1200 182 1010 68 c 0,43,44
 845 -31 845 -31 641 -31 c 0,45,46
 526 -31 526 -31 410 31 c 0,47,48
 345 66 345 66 242 147 c 0,49,50
 160 209 160 209 133 209 c 0,51,52
 81 209 81 209 43 150 c 1,53,-1
 0 150 l 1,54,55
 130 315 130 315 264 315 c 0,56,57
 361 315 361 315 463 240 c 2,58,-1
 627 100 l 2,59,60
 718 25 718 25 786 25 c 0,61,62
 883 25 883 25 965 86 c 0,63,64
 1055 154 1055 154 1055 248 c 0,65,66
 1055 304 1055 304 944 503 c 0,67,68
 834 701 834 701 834 772 c 0,69,70
 834 865 834 865 895 939 c 0,71,72
 956 1014 956 1014 1047 1014 c 0,73,74
 1131 1014 1131 1014 1225 934 c 1,32,-1
EndSplineSet
EndChar
StartChar: uni2112
Encoding: 8466 8466 83
Width: 2056
GlyphClass: 2
Flags: W
Fore
537 1042 m 0,0,1
 537 1256 537 1256 756 1380 c 0,2,3
 935 1483 935 1483 1167 1483 c 0,4,5
 1330 1483 1330 1483 1468 1430 c 1,6,-1
 1458 1413 l 1,7,8
 1257 1446 1257 1446 1180 1446 c 0,9,10
 963 1446 963 1446 784 1352 c 0,11,12
 573 1234 573 1234 573 1034 c 0,13,14
 573 868 573 868 731 784 c 0,15,16
 854 719 854 719 1021 719 c 0,17,18
 1028 719 1028 719 1036 719 c 2,19,-1
 1155 721 l 1,20,21
 1318 970 1318 970 1532 1163 c 0,22,23
 1812 1419 1812 1419 2028 1419 c 0,24,25
 2074 1419 2074 1419 2106 1388 c 0,26,27
 2140 1355 2140 1355 2140 1311 c 0,28,29
 2140 1112 2140 1112 1831 920 c 0,30,31
 1608 781 1608 781 1339 700 c 1,32,33
 1174 449 1174 449 1083 352 c 0,34,35
 942 205 942 205 729 106 c 1,36,37
 909 59 909 59 1042 59 c 0,38,39
 1235 59 1235 59 1503 299 c 1,40,-1
 1520 272 l 1,41,42
 1407 146 1407 146 1251 66 c 0,43,44
 1085 -20 1085 -20 926 -20 c 0,45,46
 819 -20 819 -20 567 39 c 1,47,48
 332 -16 332 -16 162 -16 c 0,49,50
 -59 -16 -59 -16 -59 88 c 0,51,52
 -59 160 -59 160 55 199 c 0,53,54
 140 227 140 227 231 227 c 0,55,56
 431 227 431 227 682 127 c 1,57,58
 799 228 799 228 922 391 c 2,59,-1
 1126 686 l 1,60,61
 895 686 895 686 745 752 c 0,62,63
 537 842 537 842 537 1042 c 0,0,1
145 158 m 1,64,-1
 82 155 l 2,65,66
 -20 143 -20 143 -20 82 c 0,67,68
 -20 16 -20 16 190 16 c 0,69,70
 354 16 354 16 504 68 c 1,71,-1
 328 125 l 2,72,73
 221 156 221 156 145 156 c 1,74,-1
 145 158 l 1,64,-1
2019 1393 m 0,75,76
 1788 1393 1788 1393 1356 748 c 1,77,78
 1556 773 1556 773 1812 942 c 0,79,80
 2103 1131 2103 1131 2103 1307 c 0,81,82
 2103 1393 2103 1393 2019 1393 c 0,75,76
EndSplineSet
EndChar
StartChar: afii61289
Encoding: 8467 8467 84
Width: 1116
GlyphClass: 2
Flags: W
Fore
782 457 m 1,0,-1
 819 444 l 1,1,2
 666 -12 666 -12 412 -12 c 0,3,4
 244 -12 244 -12 244 190 c 0,5,6
 244 344 244 344 283 543 c 2,7,-1
 365 889 l 1,8,9
 201 906 201 906 76 1004 c 1,10,-1
 106 1036 l 1,11,12
 215 946 215 946 375 930 c 1,13,14
 398 1137 398 1137 508 1294 c 0,15,16
 637 1479 637 1479 827 1479 c 0,17,18
 1024 1479 1024 1479 1024 1294 c 0,19,20
 1024 1024 1024 1024 535 895 c 1,21,-1
 451 543 l 2,22,23
 403 330 403 330 403 184 c 0,24,25
 403 70 403 70 485 70 c 0,26,27
 578 70 578 70 672 221 c 0,28,29
 737 324 737 324 782 457 c 1,0,-1
543 940 m 1,30,31
 926 1048 926 1048 926 1309 c 0,32,33
 926 1440 926 1440 809 1440 c 0,34,35
 647 1440 647 1440 543 940 c 1,30,31
EndSplineSet
EndChar
StartChar: uni2115
Encoding: 8469 8469 85
Width: 1605
GlyphClass: 2
Flags: W
Fore
365 0 m 1,0,-1
 365 1405 l 1,1,-1
 555 1405 l 1,2,-1
 1292 303 l 1,3,-1
 1292 1405 l 1,4,-1
 1470 1405 l 1,5,-1
 1470 0 l 1,6,-1
 1280 0 l 1,7,-1
 543 1104 l 1,8,-1
 543 0 l 1,9,-1
 365 0 l 1,0,-1
270 1403 m 1,10,-1
 272 -10 l 1,11,-1
 96 -10 l 1,12,-1
 94 1403 l 1,13,-1
 270 1403 l 1,10,-1
EndSplineSet
EndChar
StartChar: weierstrass
Encoding: 8472 8472 86
Width: 1710
GlyphClass: 2
Flags: W
Fore
707 1059 m 1,0,-1
 731 1016 l 1,1,2
 391 811 391 811 391 520 c 0,3,4
 391 451 391 451 422 365 c 1,5,6
 649 608 649 608 772 709 c 0,7,8
 1014 907 1014 907 1198 907 c 0,9,10
 1321 907 1321 907 1391 824 c 0,11,12
 1460 742 1460 742 1460 616 c 0,13,14
 1460 375 1460 375 1305 184 c 0,15,16
 1140 -18 1140 -18 903 -18 c 0,17,18
 812 -18 812 -18 748 37 c 0,19,20
 682 90 682 90 682 178 c 0,21,22
 682 248 682 248 715 299 c 0,23,24
 753 358 753 358 819 358 c 0,25,26
 893 358 893 358 893 285 c 0,27,28
 893 258 893 258 745 135 c 1,29,30
 748 88 748 88 797 55 c 0,31,32
 838 27 838 27 891 27 c 0,33,34
 1072 27 1072 27 1190 260 c 0,35,36
 1288 458 1288 458 1288 657 c 0,37,38
 1288 730 1288 730 1251 782 c 0,39,40
 1209 844 1209 844 1141 844 c 0,41,42
 1000 844 1000 844 762 641 c 0,43,44
 588 490 588 490 446 315 c 1,45,46
 592 15 592 15 592 -121 c 0,47,48
 592 -240 592 -240 530 -336 c 0,49,50
 461 -442 461 -442 346 -442 c 0,51,52
 248 -442 248 -442 185 -369 c 0,53,54
 123 -293 123 -293 123 -195 c 0,55,56
 123 -48 123 -48 291 190 c 1,57,58
 229 335 229 335 229 434 c 0,59,60
 229 770 229 770 707 1059 c 1,0,-1
313 139 m 1,61,62
 168 -69 168 -69 168 -197 c 0,63,64
 168 -271 168 -271 215 -334 c 0,65,66
 261 -395 261 -395 336 -395 c 0,67,68
 393 -395 393 -395 429 -350 c 128,-1,69
 465 -305 465 -305 465 -248 c 0,70,71
 465 -121 465 -121 313 139 c 1,61,62
EndSplineSet
EndChar
StartChar: uni211A
Encoding: 8474 8474 87
Width: 1538
GlyphClass: 2
Flags: W
Fore
1184 147 m 1,0,1
 1302 63 1302 63 1417 20 c 1,2,-1
 1364 -104 l 1,3,4
 1216 -52 1216 -52 1071 61 c 1,5,6
 920 -23 920 -23 735 -23 c 0,7,8
 438 -23 438 -23 258 184 c 0,9,10
 86 380 86 380 86 682 c 0,11,12
 86 990 86 990 256 1186 c 0,13,14
 435 1389 435 1389 739 1389 c 0,15,16
 1046 1389 1046 1389 1223 1188 c 0,17,18
 1391 994 1391 994 1391 684 c 0,19,20
 1391 345 1391 345 1184 147 c 1,0,1
426 252 m 1,21,-1
 426 1116 l 1,22,23
 272 973 272 973 272 682 c 0,24,25
 272 400 272 400 426 252 c 1,21,-1
578 1208 m 1,26,-1
 578 158 l 1,27,28
 652 131 652 131 739 131 c 0,29,30
 839 131 839 131 922 168 c 1,31,32
 838 223 838 223 743 246 c 1,33,-1
 786 377 l 1,34,35
 945 334 945 334 1044 248 c 1,36,37
 1204 393 1204 393 1204 684 c 0,38,39
 1204 918 1204 918 1092 1067 c 0,40,41
 965 1233 965 1233 739 1233 c 0,42,43
 650 1233 650 1233 578 1208 c 1,26,-1
EndSplineSet
EndChar
StartChar: Rfraktur
Encoding: 8476 8476 88
Width: 1628
GlyphClass: 2
Flags: W
Fore
707 1188 m 1,0,1
 864 1265 864 1265 913 1286 c 0,2,3
 1033 1348 1033 1348 1108 1405 c 1,4,5
 1372 1270 1372 1270 1372 1108 c 0,6,7
 1372 927 1372 927 1108 795 c 1,8,9
 1194 724 1194 724 1227 549 c 0,10,11
 1244 403 1244 403 1257 260 c 0,12,13
 1277 123 1277 123 1329 123 c 0,14,15
 1370 123 1370 123 1417 164 c 1,16,-1
 1438 137 l 1,17,-1
 1200 -43 l 1,18,19
 1055 68 1055 68 1055 266 c 0,20,21
 1055 296 1055 296 1058 364 c 0,22,23
 1061 430 1061 430 1061 467 c 0,24,25
 1061 619 1061 619 940 709 c 1,26,-1
 741 631 l 1,27,-1
 743 498 l 1,28,-1
 740 438 l 1,29,-1
 730 383 l 2,30,31
 700 264 700 264 600 168 c 0,32,33
 546 116 546 116 293 -43 c 1,34,-1
 143 115 l 1,35,-1
 76 72 l 1,36,-1
 51 100 l 1,37,-1
 287 250 l 1,38,-1
 432 94 l 1,39,40
 555 154 555 154 555 395 c 2,41,-1
 555 930 l 2,42,43
 555 1122 555 1122 530 1198 c 0,44,45
 485 1343 485 1343 338 1343 c 0,46,47
 250 1343 250 1343 180 1288 c 0,48,49
 104 1229 104 1229 104 1143 c 0,50,51
 104 1064 104 1064 232 945 c 0,52,53
 360 829 360 829 360 729 c 0,54,55
 360 579 360 579 190 479 c 1,56,-1
 182 512 l 1,57,58
 256 551 256 551 256 606 c 0,59,60
 256 685 256 685 128 807 c 0,61,62
 0 927 0 927 0 1020 c 0,63,64
 0 1173 0 1173 119 1280 c 0,65,66
 237 1386 237 1386 393 1386 c 0,67,68
 608 1386 608 1386 707 1188 c 1,0,1
721 1149 m 1,69,70
 754 1020 754 1020 754 866 c 0,71,72
 754 783 754 783 743 678 c 1,73,74
 957 758 957 758 1022 797 c 0,75,76
 1182 894 1182 894 1182 1028 c 0,77,78
 1182 1237 1182 1237 979 1237 c 0,79,80
 867 1237 867 1237 721 1149 c 1,69,70
EndSplineSet
EndChar
StartChar: uni211D
Encoding: 8477 8477 89
Width: 1525
GlyphClass: 2
Flags: W
Fore
377 0 m 1,0,-1
 377 1403 l 1,1,-1
 926 1403 l 2,2,3
 1368 1403 1368 1403 1368 1020 c 0,4,5
 1368 690 1368 690 1018 639 c 1,6,7
 1151 560 1151 560 1280 350 c 0,8,9
 1312 294 1312 294 1470 0 c 1,10,-1
 1264 0 l 1,11,-1
 1090 313 l 2,12,13
 947 554 947 554 899 580 c 0,14,15
 818 623 818 623 731 623 c 2,16,-1
 541 623 l 1,17,-1
 541 0 l 1,18,-1
 377 0 l 1,0,-1
541 784 m 1,19,-1
 893 784 l 2,20,21
 1198 784 1198 784 1198 1020 c 0,22,23
 1198 1247 1198 1247 934 1247 c 2,24,-1
 541 1247 l 1,25,-1
 541 784 l 1,19,-1
279 1405 m 1,26,-1
 279 0 l 1,27,-1
 102 0 l 1,28,-1
 102 1405 l 1,29,-1
 279 1405 l 1,26,-1
EndSplineSet
EndChar
StartChar: trademark
Encoding: 8482 8482 90
Width: 2048
GlyphClass: 2
Flags: W
Fore
487 649 m 1,0,-1
 625 649 l 1,1,-1
 625 1343 l 1,2,-1
 891 1343 l 1,3,-1
 891 1466 l 1,4,-1
 225 1466 l 1,5,-1
 225 1343 l 1,6,-1
 487 1343 l 1,7,-1
 487 649 l 1,0,-1
983 649 m 1,8,-1
 1108 649 l 1,9,-1
 1108 1343 l 1,10,-1
 1325 649 l 1,11,-1
 1450 649 l 1,12,-1
 1659 1333 l 1,13,-1
 1659 649 l 1,14,-1
 1784 649 l 1,15,-1
 1784 1466 l 1,16,-1
 1587 1466 l 1,17,-1
 1389 815 l 1,18,-1
 1182 1466 l 1,19,-1
 983 1466 l 1,20,-1
 983 649 l 1,8,-1
EndSplineSet
EndChar
StartChar: uni2124
Encoding: 8484 8484 91
Width: 1660
GlyphClass: 2
Flags: W
Fore
1552 0 m 1,0,-1
 27 0 l 1,1,-1
 1006 1237 l 1,2,-1
 98 1237 l 1,3,-1
 98 1395 l 1,4,-1
 1552 1393 l 1,5,-1
 586 154 l 1,6,-1
 1501 154 l 1,7,-1
 1552 0 l 1,0,-1
1268 1233 m 1,8,-1
 1147 1233 l 1,9,-1
 297 156 l 1,10,-1
 434 156 l 1,11,-1
 1268 1233 l 1,8,-1
EndSplineSet
EndChar
StartChar: uni2127
Encoding: 8487 8487 92
Width: 1550
GlyphClass: 2
Flags: W
Fore
582 1155 m 1,0,-1
 418 1155 l 2,1,2
 320 1155 320 1155 291 1130 c 0,3,4
 253 1101 253 1101 252 999 c 1,5,-1
 158 999 l 1,6,-1
 158 1264 l 1,7,-1
 655 1264 l 1,8,-1
 655 1155 l 1,9,10
 373 848 373 848 373 547 c 0,11,12
 373 341 373 341 473 205 c 0,13,14
 585 51 585 51 782 51 c 0,15,16
 981 51 981 51 1092 205 c 0,17,18
 1190 342 1190 342 1190 547 c 0,19,20
 1190 847 1190 847 909 1155 c 1,21,-1
 909 1264 l 1,22,-1
 1405 1264 l 1,23,-1
 1405 999 l 1,24,-1
 1313 999 l 1,25,-1
 1312 1048 l 2,26,27
 1307 1107 1307 1107 1274 1130 c 0,28,29
 1240 1155 1240 1155 1137 1155 c 2,30,-1
 983 1155 l 1,31,32
 1166 994 1166 994 1247 889 c 0,33,34
 1376 720 1376 720 1376 547 c 0,35,36
 1376 289 1376 289 1209 138 c 0,37,38
 1042 -12 1042 -12 782 -12 c 0,39,40
 534 -12 534 -12 365 139 c 0,41,42
 188 296 188 296 188 543 c 0,43,44
 188 718 188 718 315 889 c 0,45,46
 397 997 397 997 582 1155 c 1,0,-1
EndSplineSet
EndChar
StartChar: uni2130
Encoding: 8496 8496 93
Width: 1650
GlyphClass: 2
Flags: W
Fore
291 1145 m 0,0,1
 291 1304 291 1304 444 1399 c 0,2,3
 578 1481 578 1481 745 1481 c 0,4,5
 856 1481 856 1481 1004 1430 c 1,6,-1
 993 1411 l 1,7,8
 885 1442 885 1442 803 1442 c 0,9,10
 644 1442 644 1442 506 1374 c 0,11,12
 334 1289 334 1289 334 1147 c 0,13,14
 334 1016 334 1016 477 954 c 0,15,16
 579 912 579 912 733 909 c 1,17,-1
 731 965 l 2,18,19
 724 1168 724 1168 1010 1307 c 0,20,21
 1250 1423 1250 1423 1481 1423 c 0,22,23
 1622 1423 1622 1423 1622 1329 c 0,24,25
 1622 1148 1622 1148 1294 1012 c 0,26,27
 1064 914 1064 914 807 879 c 1,28,-1
 807 858 l 2,29,30
 807 835 807 835 823 817 c 1,31,32
 860 821 860 821 897 821 c 0,33,34
 947 821 947 821 979 795 c 1,35,-1
 979 784 l 2,36,37
 979 756 979 756 938 756 c 0,38,39
 882 756 882 756 807 782 c 1,40,41
 593 697 593 697 430 543 c 0,42,43
 238 356 238 356 238 158 c 0,44,45
 238 80 238 80 319 43 c 0,46,47
 385 14 385 14 471 14 c 0,48,49
 684 14 684 14 879 109 c 0,50,51
 1114 224 1114 224 1114 418 c 0,52,53
 1114 468 1114 468 1063 500 c 0,54,55
 1019 526 1019 526 965 526 c 0,56,57
 688 526 688 526 414 195 c 1,58,-1
 391 184 l 1,59,-1
 383 193 l 1,60,-1
 383 201 l 2,61,62
 383 236 383 236 489 338 c 0,63,64
 722 561 722 561 940 561 c 0,65,66
 1153 561 1153 561 1153 401 c 0,67,68
 1153 206 1153 206 895 82 c 0,69,70
 682 -20 682 -20 463 -20 c 0,71,72
 314 -20 314 -20 221 55 c 0,73,74
 121 137 121 137 121 285 c 0,75,76
 121 678 121 678 788 811 c 1,77,-1
 741 879 l 1,78,79
 291 882 291 882 291 1145 c 0,0,1
1495 1393 m 0,80,81
 1318 1393 1318 1393 1110 1229 c 0,82,83
 945 1097 945 1097 817 913 c 1,84,85
 1250 956 1250 956 1483 1167 c 0,86,87
 1587 1262 1587 1262 1587 1325 c 0,88,89
 1587 1393 1587 1393 1495 1393 c 0,80,81
EndSplineSet
EndChar
StartChar: uni2131
Encoding: 8497 8497 94
Width: 1726
GlyphClass: 2
Flags: W
Fore
496 479 m 1,0,1
 687 604 687 604 989 672 c 1,2,3
 1341 1052 1341 1052 1593 1239 c 1,4,-1
 1606 1214 l 1,5,6
 1335 988 1335 988 1186 713 c 1,7,-1
 1210 713 l 2,8,9
 1264 713 1264 713 1349 782 c 0,10,11
 1432 851 1432 851 1477 856 c 1,12,-1
 1489 848 l 1,13,-1
 1489 842 l 2,14,15
 1489 809 1489 809 1415 758 c 0,16,17
 1361 721 1361 721 1311 700 c 1,18,19
 1259 619 1259 619 1237 504 c 1,20,-1
 1167 481 l 1,21,22
 1188 588 1188 588 1257 684 c 1,23,-1
 1167 664 l 1,24,25
 787 -16 787 -16 211 -16 c 0,26,27
 -72 -16 -72 -16 -72 152 c 0,28,29
 -72 211 -72 211 -29 262 c 0,30,31
 14 311 14 311 76 311 c 0,32,33
 156 311 156 311 156 233 c 0,34,35
 156 203 156 203 129 185 c 0,36,37
 101 168 101 168 72 168 c 0,38,39
 43 168 43 168 0 193 c 1,40,41
 -33 190 -33 190 -33 141 c 0,42,43
 -33 20 -33 20 207 20 c 0,44,45
 420 20 420 20 639 242 c 0,46,47
 722 325 722 325 956 637 c 1,48,49
 680 553 680 553 518 449 c 1,50,-1
 496 479 l 1,0,1
1720 1251 m 0,51,52
 1584 1251 1584 1251 1322 1308 c 0,53,54
 1057 1364 1057 1364 924 1364 c 0,55,56
 732 1364 732 1364 565 1251 c 0,57,58
 381 1127 381 1127 381 942 c 0,59,60
 381 758 381 758 602 758 c 0,61,62
 782 758 782 758 952 874 c 0,63,64
 1108 985 1108 985 1198 1153 c 1,65,-1
 1237 1153 l 1,66,67
 1141 963 1141 963 979 846 c 0,68,69
 803 717 803 717 602 717 c 0,70,71
 487 717 487 717 412 777 c 0,72,73
 336 837 336 837 336 950 c 0,74,75
 336 1184 336 1184 600 1319 c 0,76,77
 813 1430 813 1430 1071 1430 c 0,78,79
 1205 1430 1205 1430 1476 1383 c 0,80,81
 1749 1337 1749 1337 1880 1337 c 0,82,83
 1965 1337 1965 1337 2083 1384 c 1,84,-1
 2095 1362 l 1,85,86
 1922 1251 1922 1251 1720 1251 c 0,51,52
EndSplineSet
EndChar
StartChar: aleph
Encoding: 8501 8501 95
Width: 1685
GlyphClass: 2
Flags: W
Fore
979 655 m 1,0,1
 1165 506 1165 506 1229 449 c 0,2,3
 1395 289 1395 289 1395 197 c 0,4,5
 1395 142 1395 142 1348 59 c 0,6,7
 1295 -28 1295 -28 1245 -31 c 1,8,-1
 1235 -27 l 1,9,-1
 1231 -14 l 1,10,11
 1257 58 1257 58 1257 86 c 0,12,13
 1257 160 1257 160 1180 240 c 0,14,15
 1146 274 1146 274 1044 358 c 2,16,-1
 455 846 l 1,17,18
 332 718 332 718 332 616 c 0,19,20
 332 527 332 527 403 438 c 2,21,-1
 539 297 l 2,22,23
 609 215 609 215 610 135 c 0,24,25
 610 -31 610 -31 375 -31 c 0,26,27
 311 -31 311 -31 285 -14 c 1,28,-1
 279 0 l 1,29,-1
 283 8 l 1,30,31
 371 58 371 58 371 111 c 0,32,33
 371 183 371 183 308 309 c 0,34,35
 246 438 246 438 246 508 c 0,36,37
 246 650 246 650 424 870 c 1,38,39
 315 969 315 969 287 999 c 0,40,41
 205 1087 205 1087 205 1159 c 0,42,43
 205 1218 205 1218 246 1296 c 0,44,45
 291 1384 291 1384 342 1386 c 1,46,-1
 362 1368 l 1,47,48
 351 1293 351 1293 348 1296 c 1,49,50
 348 1184 348 1184 596 965 c 2,51,-1
 950 682 l 1,52,-1
 1217 1012 l 1,53,54
 1075 1124 1075 1124 1075 1212 c 0,55,56
 1075 1351 1075 1351 1257 1386 c 1,57,58
 1220 1339 1220 1339 1219 1294 c 1,59,60
 1442 994 1442 994 1442 961 c 0,61,62
 1442 887 1442 887 1354 838 c 1,63,64
 1328 933 1328 933 1247 989 c 1,65,-1
 979 655 l 1,0,1
EndSplineSet
EndChar
StartChar: arrowleft
Encoding: 8592 8592 96
Width: 1617
GlyphClass: 2
Flags: W
Fore
1468 592 m 1,0,-1
 674 588 l 2,1,2
 592 588 592 588 545 600 c 1,3,-1
 862 252 l 1,4,-1
 713 111 l 1,5,-1
 186 694 l 1,6,-1
 713 1276 l 1,7,-1
 862 1135 l 1,8,-1
 545 786 l 1,9,10
 581 797 581 797 598 797 c 2,11,-1
 1468 797 l 1,12,-1
 1468 592 l 1,0,-1
EndSplineSet
EndChar
StartChar: arrowup
Encoding: 8593 8593 97
Width: 1515
GlyphClass: 2
Flags: W
Fore
1339 807 m 1,0,-1
 1200 657 l 1,1,-1
 850 975 l 1,2,3
 860 939 860 939 860 922 c 2,4,-1
 860 51 l 1,5,-1
 655 51 l 1,6,-1
 651 585 l 1,7,-1
 651 582 l 1,8,-1
 651 838 l 2,9,10
 651 921 651 921 666 975 c 1,11,-1
 315 657 l 1,12,-1
 174 807 l 1,13,-1
 758 1333 l 1,14,-1
 1339 807 l 1,0,-1
EndSplineSet
EndChar
StartChar: arrowright
Encoding: 8594 8594 98
Width: 1617
GlyphClass: 2
Flags: W
Fore
1452 696 m 1,0,-1
 926 115 l 1,1,-1
 776 256 l 1,2,-1
 1094 604 l 1,3,4
 1063 594 1063 594 1040 594 c 2,5,-1
 170 594 l 1,6,-1
 170 799 l 1,7,-1
 958 803 l 2,8,9
 1042 803 1042 803 1094 791 c 1,10,-1
 776 1139 l 1,11,-1
 926 1280 l 1,12,-1
 1452 696 l 1,0,-1
EndSplineSet
EndChar
StartChar: arrowdown
Encoding: 8595 8595 99
Width: 1515
GlyphClass: 2
Flags: W
Fore
1343 578 m 1,0,-1
 760 51 l 1,1,-1
 178 578 l 1,2,-1
 317 727 l 1,3,-1
 668 410 l 1,4,5
 657 451 657 451 657 463 c 2,6,-1
 657 1333 l 1,7,-1
 862 1333 l 1,8,-1
 866 547 l 2,9,10
 866 459 866 459 852 410 c 1,11,-1
 1202 727 l 1,12,-1
 1343 578 l 1,0,-1
EndSplineSet
EndChar
StartChar: arrowboth
Encoding: 8596 8596 100
Width: 2080
GlyphClass: 2
Flags: W
Fore
342 754 m 1,0,-1
 1741 754 l 1,1,2
 1628 864 1628 864 1530 1061 c 1,3,-1
 1595 1061 l 1,4,5
 1786 848 1786 848 2005 735 c 1,6,-1
 2005 680 l 1,7,8
 1784 568 1784 568 1595 354 c 1,9,-1
 1530 354 l 1,10,11
 1626 550 1626 550 1741 662 c 1,12,-1
 342 662 l 1,13,14
 453 552 453 552 553 354 c 1,15,-1
 485 354 l 1,16,17
 295 569 295 569 78 680 c 1,18,-1
 78 735 l 1,19,20
 293 846 293 846 485 1061 c 1,21,-1
 553 1061 l 1,22,23
 459 870 459 870 342 754 c 1,0,-1
EndSplineSet
EndChar
StartChar: arrowupdn
Encoding: 8597 8597 101
Width: 937
GlyphClass: 2
Flags: W
Fore
424 -23 m 1,0,-1
 424 1376 l 1,1,2
 314 1266 314 1266 117 1165 c 1,3,-1
 117 1233 l 1,4,5
 330 1424 330 1424 440 1640 c 1,6,-1
 498 1640 l 1,7,8
 608 1424 608 1424 821 1233 c 1,9,-1
 821 1165 l 1,10,11
 625 1264 625 1264 514 1376 c 1,12,-1
 514 -23 l 1,13,14
 625 91 625 91 821 188 c 1,15,-1
 821 123 l 1,16,17
 608 -69 608 -69 498 -287 c 1,18,-1
 440 -287 l 1,19,20
 332 -69 332 -69 117 123 c 1,21,-1
 117 188 l 1,22,23
 313 91 313 91 424 -23 c 1,0,-1
EndSplineSet
EndChar
StartChar: uni2197
Encoding: 8599 8599 102
Width: 1259
GlyphClass: 2
Flags: W
Fore
506 1262 m 1,0,1
 560 1262 560 1262 696 1237 c 0,2,3
 799 1218 799 1218 864 1218 c 0,4,5
 876 1218 876 1218 887 1219 c 0,6,7
 899 1219 899 1219 928 1223 c 0,8,9
 960 1225 960 1225 969 1225 c 2,10,-1
 1010 1223 l 1,11,12
 1011 1150 1011 1150 1033 976 c 0,13,14
 1055 810 1055 810 1055 721 c 1,15,-1
 1028 700 l 1,16,17
 972 720 972 720 918 1051 c 1,18,-1
 901 1051 l 1,19,-1
 207 -8 l 1,20,21
 156 -4 156 -4 150 43 c 1,22,-1
 840 1112 l 1,23,-1
 842 1128 l 1,24,25
 721 1145 721 1145 649 1161 c 0,26,27
 501 1194 501 1194 492 1233 c 1,28,-1
 506 1262 l 1,0,1
EndSplineSet
EndChar
StartChar: uni2198
Encoding: 8600 8600 103
Width: 1214
GlyphClass: 2
Flags: W
Fore
485 33 m 1,0,1
 549 33 549 33 675 54 c 0,2,3
 798 76 798 76 866 76 c 0,4,5
 872 76 872 76 914 72 c 0,6,7
 943 68 943 68 963 68 c 2,8,-1
 989 72 l 1,9,10
 992 155 992 155 1014 322 c 0,11,12
 1034 491 1034 491 1034 573 c 1,13,-1
 1008 594 l 1,14,15
 953 576 953 576 897 244 c 1,16,-1
 881 244 l 1,17,-1
 186 1303 l 1,18,19
 135 1298 135 1298 129 1251 c 1,20,-1
 819 182 l 1,21,-1
 821 166 l 1,22,23
 702 150 702 150 629 133 c 0,24,25
 481 100 481 100 471 59 c 1,26,-1
 485 33 l 1,0,1
EndSplineSet
EndChar
StartChar: uni21B3
Encoding: 8627 8627 104
Width: 1640
GlyphClass: 2
Flags: W
Fore
152 629 m 1,0,-1
 1300 623 l 1,1,2
 1232 709 1232 709 1192 770 c 0,3,4
 1127 874 1127 874 1122 930 c 1,5,-1
 1157 954 l 1,6,-1
 1300 770 l 2,7,8
 1363 710 1363 710 1487 569 c 1,9,-1
 1331 373 l 2,10,11
 1241 262 1241 262 1163 184 c 1,12,-1
 1145 182 l 1,13,-1
 1122 211 l 1,14,15
 1131 275 1131 275 1300 514 c 1,16,-1
 1288 524 l 1,17,-1
 102 524 l 1,18,-1
 152 629 l 1,0,-1
78 1165 m 1,19,-1
 152 1165 l 1,20,-1
 152 582 l 2,21,22
 152 524 152 524 102 524 c 1,23,-1
 80 537 l 1,24,-1
 78 1165 l 1,19,-1
EndSplineSet
EndChar
StartChar: carriagereturn
Encoding: 8629 8629 105
Width: 1640
GlyphClass: 2
Flags: W
Fore
1446 629 m 1,0,-1
 297 623 l 1,1,2
 359 701 359 701 406 770 c 0,3,4
 471 875 471 875 475 930 c 1,5,-1
 440 954 l 1,6,-1
 297 770 l 2,7,8
 231 707 231 707 111 569 c 1,9,-1
 266 373 l 2,10,11
 356 262 356 262 434 184 c 1,12,-1
 453 182 l 1,13,-1
 475 211 l 1,14,15
 468 272 468 272 297 514 c 1,16,-1
 309 524 l 1,17,-1
 1495 524 l 1,18,-1
 1446 629 l 1,0,-1
1520 1165 m 1,19,-1
 1446 1165 l 1,20,-1
 1446 582 l 2,21,22
 1446 524 1446 524 1495 524 c 1,23,-1
 1518 537 l 1,24,-1
 1520 1165 l 1,19,-1
EndSplineSet
EndChar
StartChar: arrowdblleft
Encoding: 8656 8656 106
Width: 1658
GlyphClass: 2
Flags: W
Fore
139 629 m 0,0,1
 139 668 139 668 346 831 c 0,2,3
 552 995 552 995 600 995 c 0,4,5
 649 995 649 995 649 942 c 0,6,7
 649 904 649 904 532 827 c 1,8,-1
 1561 827 l 1,9,-1
 1561 729 l 1,10,-1
 406 729 l 1,11,-1
 268 625 l 1,12,-1
 428 457 l 1,13,-1
 1561 457 l 1,14,-1
 1561 358 l 1,15,-1
 524 358 l 1,16,17
 627 258 627 258 627 231 c 0,18,19
 627 182 627 182 573 182 c 0,20,21
 539 182 539 182 339 388 c 0,22,23
 139 594 139 594 139 629 c 0,0,1
EndSplineSet
EndChar
StartChar: arrowdblright
Encoding: 8658 8658 107
Width: 1634
GlyphClass: 2
Flags: W
Fore
1106 182 m 0,0,1
 1053 182 1053 182 1053 231 c 0,2,3
 1053 263 1053 263 1157 358 c 1,4,-1
 119 358 l 1,5,-1
 119 457 l 1,6,-1
 1251 457 l 1,7,-1
 1411 625 l 1,8,-1
 1274 729 l 1,9,-1
 119 729 l 1,10,-1
 119 827 l 1,11,-1
 1147 827 l 1,12,13
 1030 904 1030 904 1030 942 c 0,14,15
 1030 995 1030 995 1079 995 c 0,16,17
 1119 995 1119 995 1329 827 c 0,18,19
 1540 659 1540 659 1540 629 c 0,20,21
 1540 596 1540 596 1339 389 c 0,22,23
 1140 182 1140 182 1106 182 c 0,0,1
EndSplineSet
EndChar
StartChar: arrowdblboth
Encoding: 8660 8660 108
Width: 1900
GlyphClass: 2
Flags: W
Fore
1505 727 m 1,0,-1
 395 723 l 1,1,-1
 258 618 l 1,2,-1
 418 451 l 1,3,-1
 1489 451 l 1,4,-1
 1649 616 l 1,5,-1
 1505 727 l 1,0,-1
1395 352 m 1,6,-1
 512 352 l 1,7,8
 616 251 616 251 616 225 c 0,9,10
 616 176 616 176 561 176 c 0,11,12
 526 176 526 176 327 381 c 0,13,14
 127 586 127 586 127 623 c 0,15,16
 127 656 127 656 337 822 c 0,17,18
 546 989 546 989 588 989 c 0,19,20
 639 989 639 989 639 936 c 0,21,22
 639 900 639 900 522 821 c 1,23,-1
 1380 821 l 1,24,25
 1268 909 1268 909 1268 934 c 0,26,27
 1268 989 1268 989 1317 989 c 0,28,29
 1362 989 1362 989 1570 824 c 0,30,31
 1778 658 1778 658 1778 623 c 0,32,33
 1778 583 1778 583 1580 379 c 0,34,35
 1382 174 1382 174 1343 174 c 0,36,37
 1290 174 1290 174 1290 225 c 0,38,39
 1290 250 1290 250 1395 352 c 1,6,-1
EndSplineSet
EndChar
StartChar: uni21E4
Encoding: 8676 8676 109
Width: 2099
GlyphClass: 2
Flags: W
Fore
1921 858 m 1,0,-1
 1921 678 l 1,1,-1
 846 678 l 1,2,-1
 846 319 l 1,3,-1
 397 768 l 1,4,-1
 846 1217 l 1,5,-1
 846 858 l 1,6,-1
 1921 858 l 1,0,-1
307 1395 m 1,7,-1
 307 141 l 1,8,-1
 129 141 l 1,9,-1
 129 1395 l 1,10,-1
 307 1395 l 1,7,-1
EndSplineSet
EndChar
StartChar: uni21E5
Encoding: 8677 8677 110
Width: 2048
GlyphClass: 2
Flags: W
Fore
129 858 m 1,0,-1
 1204 858 l 1,1,-1
 1204 1217 l 1,2,-1
 1651 768 l 1,3,-1
 1204 319 l 1,4,-1
 1204 678 l 1,5,-1
 129 678 l 1,6,-1
 129 858 l 1,0,-1
1741 1395 m 1,7,-1
 1921 1395 l 1,8,-1
 1921 141 l 1,9,-1
 1741 141 l 1,10,-1
 1741 1395 l 1,7,-1
EndSplineSet
EndChar
StartChar: uni21E6
Encoding: 8678 8678 111
Width: 2390
GlyphClass: 2
Flags: W
Fore
1536 -170 m 1,0,-1
 512 854 l 1,1,-1
 1536 1878 l 1,2,-1
 1536 1366 l 1,3,-1
 1878 1366 l 1,4,-1
 1878 342 l 1,5,-1
 1536 342 l 1,6,-1
 1536 -170 l 1,0,-1
754 854 m 1,7,-1
 1366 240 l 1,8,-1
 1366 512 l 1,9,-1
 1708 512 l 1,10,-1
 1708 1194 l 1,11,-1
 1366 1194 l 1,12,-1
 1366 1466 l 1,13,-1
 754 854 l 1,7,-1
EndSplineSet
EndChar
StartChar: uni21E7
Encoding: 8679 8679 112
Width: 2390
GlyphClass: 2
Flags: W
Fore
170 512 m 1,0,-1
 1194 1536 l 1,1,-1
 2218 512 l 1,2,-1
 1706 512 l 1,3,-1
 1706 170 l 1,4,-1
 682 170 l 1,5,-1
 682 512 l 1,6,-1
 170 512 l 1,0,-1
1194 1294 m 1,7,-1
 582 682 l 1,8,-1
 854 682 l 1,9,-1
 854 342 l 1,10,-1
 1536 342 l 1,11,-1
 1536 682 l 1,12,-1
 1806 682 l 1,13,-1
 1194 1294 l 1,7,-1
EndSplineSet
EndChar
StartChar: uni21E8
Encoding: 8680 8680 113
Width: 2390
GlyphClass: 2
Flags: W
Fore
854 1878 m 1,0,-1
 1878 854 l 1,1,-1
 854 -170 l 1,2,-1
 854 342 l 1,3,-1
 512 342 l 1,4,-1
 512 1366 l 1,5,-1
 854 1366 l 1,6,-1
 854 1878 l 1,0,-1
1636 854 m 1,7,-1
 1024 1466 l 1,8,-1
 1024 1196 l 1,9,-1
 682 1196 l 1,10,-1
 682 512 l 1,11,-1
 1024 512 l 1,12,-1
 1024 242 l 1,13,-1
 1636 854 l 1,7,-1
EndSplineSet
EndChar
StartChar: uni21E9
Encoding: 8681 8681 114
Width: 2390
GlyphClass: 2
Flags: W
Fore
2218 1194 m 1,0,-1
 1194 170 l 1,1,-1
 170 1194 l 1,2,-1
 682 1194 l 1,3,-1
 682 1536 l 1,4,-1
 1706 1536 l 1,5,-1
 1706 1194 l 1,6,-1
 2218 1194 l 1,0,-1
1194 412 m 1,7,-1
 1808 1024 l 1,8,-1
 1536 1024 l 1,9,-1
 1536 1366 l 1,10,-1
 854 1366 l 1,11,-1
 854 1024 l 1,12,-1
 584 1024 l 1,13,-1
 1194 412 l 1,7,-1
EndSplineSet
EndChar
StartChar: universal
Encoding: 8704 8704 115
Width: 1771
GlyphClass: 2
Flags: W
Fore
1350 1087 m 1,0,-1
 1559 1522 l 1,1,-1
 1743 1522 l 1,2,-1
 1028 0 l 1,3,-1
 776 0 l 1,4,-1
 55 1522 l 1,5,-1
 248 1522 l 1,6,-1
 459 1087 l 1,7,-1
 1350 1087 l 1,0,-1
1296 942 m 1,8,-1
 512 942 l 1,9,-1
 905 135 l 1,10,-1
 1296 942 l 1,8,-1
EndSplineSet
EndChar
StartChar: partialdiff
Encoding: 8706 8706 116
Width: 1091
GlyphClass: 2
Flags: W
Fore
946 717 m 1,0,1
 958 828 958 828 958 901 c 0,2,3
 958 1072 958 1072 872 1174 c 0,4,5
 781 1280 781 1280 612 1280 c 0,6,7
 417 1280 417 1280 311 1120 c 1,8,-1
 266 1120 l 1,9,10
 405 1421 405 1421 647 1421 c 0,11,12
 840 1421 840 1421 936 1260 c 0,13,14
 1012 1126 1012 1126 1012 920 c 0,15,16
 1012 582 1012 582 885 311 c 0,17,18
 723 -31 723 -31 422 -31 c 0,19,20
 268 -31 268 -31 174 58 c 0,21,22
 82 148 82 148 82 303 c 0,23,24
 82 543 82 543 236 721 c 0,25,26
 396 907 396 907 633 907 c 0,27,28
 861 907 861 907 946 717 c 1,0,1
930 629 m 1,29,30
 851 852 851 852 643 852 c 0,31,32
 457 852 457 852 344 643 c 0,33,34
 252 468 252 468 252 264 c 0,35,36
 252 164 252 164 297 98 c 0,37,38
 350 27 350 27 446 27 c 0,39,40
 633 27 633 27 774 244 c 0,41,42
 881 406 881 406 930 629 c 1,29,30
EndSplineSet
EndChar
StartChar: existential
Encoding: 8707 8707 117
Width: 1345
GlyphClass: 2
Flags: W
Fore
117 2 m 1,0,-1
 117 131 l 1,1,-1
 1034 131 l 1,2,-1
 1034 670 l 1,3,-1
 217 670 l 1,4,-1
 217 805 l 1,5,-1
 1034 805 l 1,6,-1
 1034 1274 l 1,7,-1
 117 1274 l 1,8,-1
 117 1409 l 1,9,-1
 1190 1409 l 1,10,-1
 1190 2 l 1,11,-1
 117 2 l 1,0,-1
EndSplineSet
EndChar
StartChar: emptyset
Encoding: 8709 8709 118
Width: 1798
GlyphClass: 2
Flags: W
Fore
1354 1145 m 1,0,1
 1409 983 1409 983 1409 723 c 0,2,3
 1409 -25 1409 -25 932 -25 c 0,4,5
 632 -25 632 -25 522 264 c 1,6,7
 230 -57 230 -57 197 -57 c 0,8,9
 143 -57 143 -57 143 -4 c 0,10,11
 143 28 143 28 487 377 c 1,12,13
 455 520 455 520 455 723 c 0,14,15
 455 1473 455 1473 932 1473 c 0,16,17
 1189 1473 1189 1473 1311 1247 c 1,18,19
 1558 1524 1558 1524 1591 1524 c 0,20,21
 1645 1524 1645 1524 1645 1470 c 0,22,23
 1645 1433 1645 1433 1354 1145 c 1,0,1
1184 1112 m 1,24,25
 1123 1323 1123 1323 930 1323 c 0,26,27
 744 1323 744 1323 678 1100 c 0,28,29
 639 968 639 968 639 723 c 0,30,31
 639 626 639 626 645 545 c 1,32,-1
 1184 1112 l 1,24,25
1225 723 m 0,33,34
 1225 867 1225 867 1208 991 c 1,35,-1
 662 414 l 1,36,37
 714 123 714 123 932 123 c 0,38,39
 1120 123 1120 123 1186 346 c 0,40,41
 1225 475 1225 475 1225 723 c 0,33,34
EndSplineSet
EndChar
StartChar: gradient
Encoding: 8711 8711 119
Width: 1679
GlyphClass: 2
Flags: W
Fore
813 -188 m 1,0,-1
 0 1640 l 1,1,-1
 1735 1640 l 1,2,-1
 813 -188 l 1,0,-1
901 229 m 1,3,-1
 1563 1534 l 1,4,-1
 315 1534 l 1,5,-1
 901 229 l 1,3,-1
EndSplineSet
EndChar
StartChar: element
Encoding: 8712 8712 120
Width: 1460
GlyphClass: 2
Flags: W
Fore
1257 1133 m 1,0,-1
 1257 1018 l 1,1,2
 1200 1018 1200 1018 1071 1024 c 0,3,4
 964 1028 964 1028 887 1028 c 0,5,6
 628 1028 628 1028 487 961 c 0,7,8
 298 869 298 869 258 645 c 1,9,-1
 1257 645 l 1,10,-1
 1257 524 l 1,11,-1
 260 524 l 1,12,13
 317 297 317 297 504 207 c 0,14,15
 645 139 645 139 895 139 c 0,16,17
 945 139 945 139 1082 144 c 0,18,19
 1206 150 1206 150 1257 150 c 1,20,-1
 1257 35 l 1,21,-1
 780 35 l 2,22,23
 500 35 500 35 330 168 c 0,24,25
 139 315 139 315 139 586 c 0,26,27
 139 852 139 852 330 999 c 0,28,29
 502 1133 502 1133 776 1133 c 2,30,-1
 1257 1133 l 1,0,-1
EndSplineSet
EndChar
StartChar: notelement
Encoding: 8713 8713 121
Width: 1460
GlyphClass: 2
Flags: W
Fore
1264 1133 m 1,0,-1
 1264 1018 l 1,1,-1
 1020 1018 l 1,2,-1
 807 645 l 1,3,-1
 1264 645 l 1,4,-1
 1264 524 l 1,5,-1
 739 524 l 1,6,-1
 549 186 l 1,7,8
 699 141 699 141 918 141 c 0,9,10
 938 141 938 141 1092 145 c 0,11,12
 1229 150 1229 150 1264 150 c 1,13,-1
 1264 35 l 1,14,-1
 786 35 l 2,15,16
 594 35 594 35 487 80 c 1,17,-1
 358 -137 l 1,18,-1
 229 -137 l 1,19,-1
 387 129 l 1,20,21
 145 327 145 327 145 586 c 0,22,23
 145 916 145 916 403 1042 c 0,24,25
 585 1133 585 1133 954 1133 c 1,26,-1
 1065 1325 l 1,27,-1
 1198 1325 l 1,28,-1
 1090 1133 l 1,29,-1
 1264 1133 l 1,0,-1
887 1018 m 1,30,-1
 768 1018 l 2,31,32
 340 1018 340 1018 264 645 c 1,33,-1
 672 645 l 1,34,-1
 887 1018 l 1,30,-1
608 524 m 1,35,-1
 266 524 l 1,36,37
 320 341 320 341 449 233 c 1,38,-1
 608 524 l 1,35,-1
EndSplineSet
EndChar
StartChar: suchthat
Encoding: 8715 8715 122
Width: 1460
GlyphClass: 2
Flags: W
Fore
164 1139 m 1,0,-1
 645 1139 l 2,1,2
 918 1139 918 1139 1092 1006 c 0,3,4
 1282 858 1282 858 1282 592 c 0,5,6
 1282 321 1282 321 1092 174 c 0,7,8
 920 41 920 41 641 41 c 2,9,-1
 164 41 l 1,10,-1
 164 156 l 1,11,12
 180 156 180 156 348 152 c 0,13,14
 461 145 461 145 530 145 c 0,15,16
 786 145 786 145 926 217 c 0,17,18
 1105 307 1105 307 1161 530 c 1,19,-1
 164 530 l 1,20,-1
 164 651 l 1,21,-1
 1163 651 l 1,22,23
 1122 877 1122 877 934 967 c 0,24,25
 794 1034 794 1034 535 1034 c 0,26,27
 458 1034 458 1034 350 1030 c 0,28,29
 221 1024 221 1024 164 1024 c 1,30,-1
 164 1139 l 1,0,-1
EndSplineSet
EndChar
StartChar: uni220D
Encoding: 8717 8717 123
Width: 899
GlyphClass: 2
Flags: W
Fore
168 500 m 1,0,-1
 629 500 l 1,1,2
 606 676 606 676 497 781 c 0,3,4
 388 887 388 887 211 887 c 0,5,6
 167 887 167 887 104 870 c 1,7,-1
 104 928 l 1,8,9
 219 956 219 956 315 956 c 0,10,11
 534 956 534 956 674 831 c 0,12,13
 821 700 821 700 821 485 c 0,14,15
 821 254 821 254 672 117 c 0,16,17
 525 -20 525 -20 291 -20 c 0,18,19
 212 -20 212 -20 51 25 c 1,20,-1
 51 86 l 1,21,22
 160 47 160 47 256 47 c 0,23,24
 411 47 411 47 516 160 c 0,25,26
 609 262 609 262 629 426 c 1,27,-1
 168 426 l 1,28,-1
 168 500 l 1,0,-1
EndSplineSet
EndChar
StartChar: product
Encoding: 8719 8719 124
Width: 1804
GlyphClass: 2
Flags: W
Fore
1296 1458 m 1,0,-1
 502 1458 l 1,1,-1
 502 10 l 2,2,3
 502 -85 502 -85 557 -119 c 0,4,5
 599 -145 599 -145 700 -145 c 1,6,-1
 700 -184 l 1,7,-1
 102 -184 l 1,8,-1
 102 -145 l 1,9,10
 204 -145 204 -145 246 -119 c 0,11,12
 301 -85 301 -85 301 10 c 2,13,-1
 301 1343 l 2,14,15
 301 1437 301 1437 246 1473 c 0,16,17
 202 1499 202 1499 102 1499 c 1,18,-1
 102 1536 l 1,19,-1
 1696 1536 l 1,20,-1
 1696 1499 l 1,21,22
 1596 1499 1596 1499 1552 1473 c 0,23,24
 1499 1437 1499 1437 1499 1343 c 2,25,-1
 1499 10 l 2,26,27
 1499 -83 1499 -83 1552 -119 c 0,28,29
 1592 -145 1592 -145 1678 -145 c 0,30,31
 1696 -145 l 1,32,-1
 1696 -184 l 1,33,-1
 1100 -184 l 1,34,-1
 1100 -147 l 1,35,-1
 1154 -144 l 2,36,37
 1296 -126 1296 -126 1296 10 c 2,38,-1
 1296 1458 l 1,0,-1
EndSplineSet
EndChar
StartChar: uni2210
Encoding: 8720 8720 125
Width: 1832
GlyphClass: 2
Flags: W
Fore
522 -127 m 1,0,-1
 1317 -127 l 1,1,-1
 1317 1321 l 2,2,3
 1317 1415 1317 1415 1262 1450 c 0,4,5
 1218 1477 1218 1477 1118 1477 c 1,6,-1
 1118 1516 l 1,7,-1
 1716 1516 l 1,8,-1
 1716 1477 l 1,9,10
 1616 1477 1616 1477 1573 1450 c 0,11,12
 1518 1416 1518 1416 1518 1321 c 2,13,-1
 1518 -12 l 2,14,15
 1518 -107 1518 -107 1573 -141 c 0,16,17
 1616 -168 1616 -168 1716 -168 c 1,18,-1
 1716 -205 l 1,19,-1
 123 -205 l 1,20,-1
 123 -168 l 1,21,22
 224 -168 224 -168 264 -145 c 0,23,24
 319 -114 319 -114 319 -12 c 2,25,-1
 319 1321 l 2,26,27
 319 1416 319 1416 266 1450 c 0,28,29
 224 1477 224 1477 123 1477 c 1,30,-1
 123 1516 l 1,31,-1
 719 1516 l 1,32,-1
 719 1479 l 1,33,-1
 665 1476 l 1,34,-1
 623 1467 l 2,35,36
 522 1435 522 1435 522 1321 c 2,37,-1
 522 -127 l 1,0,-1
EndSplineSet
EndChar
StartChar: summation
Encoding: 8721 8721 126
Width: 1622
GlyphClass: 2
Flags: W
Fore
1436 -205 m 1,0,-1
 123 -205 l 1,1,-1
 123 -168 l 1,2,-1
 793 664 l 1,3,-1
 123 1481 l 1,4,-1
 123 1518 l 1,5,-1
 1401 1518 l 1,6,-1
 1427 1180 l 1,7,-1
 1386 1180 l 1,8,9
 1360 1436 1360 1436 1139 1436 c 2,10,-1
 399 1436 l 1,11,-1
 961 750 l 1,12,-1
 332 -29 l 1,13,-1
 1149 -29 l 2,14,15
 1396 -29 1396 -29 1460 217 c 1,16,-1
 1499 211 l 1,17,-1
 1436 -205 l 1,0,-1
EndSplineSet
EndChar
StartChar: uni2213
Encoding: 8723 8723 127
Width: 1628
GlyphClass: 2
Flags: W
Fore
1407 1184 m 1,0,-1
 1407 1085 l 1,1,-1
 221 1085 l 1,2,-1
 221 1184 l 1,3,-1
 1407 1184 l 1,0,-1
864 889 m 1,4,-1
 864 494 l 1,5,-1
 1407 494 l 1,6,-1
 1407 395 l 1,7,-1
 864 395 l 1,8,-1
 864 0 l 1,9,-1
 766 0 l 1,10,-1
 766 395 l 1,11,-1
 221 395 l 1,12,-1
 221 494 l 1,13,-1
 766 494 l 1,14,-1
 766 889 l 1,15,-1
 864 889 l 1,4,-1
EndSplineSet
EndChar
StartChar: uni2216
Encoding: 8726 8726 128
Width: 927
GlyphClass: 2
Flags: W
Fore
0 1491 m 1,0,-1
 145 1491 l 1,1,-1
 938 -25 l 1,2,-1
 795 -25 l 1,3,-1
 0 1491 l 1,0,-1
EndSplineSet
EndChar
StartChar: asteriskmath
Encoding: 8727 8727 129
Width: 1480
GlyphClass: 2
Flags: W
Fore
666 147 m 1,0,-1
 702 528 l 1,1,-1
 393 305 l 1,2,-1
 319 434 l 1,3,-1
 666 592 l 1,4,-1
 319 750 l 1,5,-1
 393 879 l 1,6,-1
 702 655 l 1,7,-1
 666 1036 l 1,8,-1
 815 1036 l 1,9,-1
 778 655 l 1,10,-1
 1087 879 l 1,11,-1
 1163 752 l 1,12,-1
 815 592 l 1,13,-1
 1163 434 l 1,14,-1
 1087 305 l 1,15,-1
 778 528 l 1,16,-1
 815 147 l 1,17,-1
 666 147 l 1,0,-1
EndSplineSet
EndChar
StartChar: radical
Encoding: 8730 8730 130
Width: 1091
GlyphClass: 2
Flags: W
Fore
569 0 m 1,0,-1
 233 668 l 1,1,-1
 90 582 l 1,2,-1
 66 623 l 1,3,-1
 301 764 l 1,4,-1
 608 145 l 1,5,-1
 1061 1647 l 1,6,-1
 1110 1647 l 1,7,-1
 614 0 l 1,8,-1
 569 0 l 1,0,-1
EndSplineSet
EndChar
StartChar: proportional
Encoding: 8733 8733 131
Width: 1460
GlyphClass: 2
Flags: W
Fore
682 668 m 1,0,1
 745 806 745 806 819 868 c 0,2,3
 907 944 907 944 1047 944 c 0,4,5
 1201 944 1201 944 1337 838 c 1,6,-1
 1337 778 l 1,7,8
 1223 868 1223 868 1106 868 c 0,9,10
 974 868 974 868 887 723 c 0,11,12
 845 656 845 656 778 465 c 1,13,14
 897 188 897 188 1114 188 c 0,15,16
 1235 188 1235 188 1337 270 c 1,17,-1
 1337 213 l 1,18,19
 1230 106 1230 106 1094 106 c 0,20,21
 905 106 905 106 750 395 c 1,22,23
 636 160 636 160 424 160 c 0,24,25
 273 160 273 160 177 268 c 0,26,27
 82 378 82 378 82 530 c 0,28,29
 82 675 82 675 162 782 c 0,30,31
 250 897 250 897 391 897 c 0,32,33
 571 897 571 897 682 668 c 1,0,1
653 590 m 1,34,35
 561 805 561 805 385 805 c 0,36,37
 275 805 275 805 206 724 c 128,-1,38
 137 643 137 643 137 530 c 0,39,40
 137 419 137 419 195 334 c 0,41,42
 260 238 260 238 367 238 c 0,43,44
 484 238 484 238 559 362 c 0,45,46
 597 422 597 422 653 590 c 1,34,35
EndSplineSet
EndChar
StartChar: infinity
Encoding: 8734 8734 132
Width: 1540
GlyphClass: 2
Flags: W
Fore
702 668 m 1,0,1
 764 807 764 807 842 870 c 0,2,3
 931 944 931 944 1073 944 c 0,4,5
 1244 944 1244 944 1354 819 c 0,6,7
 1456 700 1456 700 1456 526 c 0,8,9
 1456 366 1456 366 1364 242 c 0,10,11
 1261 106 1261 106 1106 106 c 0,12,13
 923 106 923 106 770 393 c 1,14,15
 653 160 653 160 444 160 c 0,16,17
 290 160 290 160 197 266 c 0,18,19
 102 373 102 373 102 528 c 0,20,21
 102 671 102 671 182 780 c 0,22,23
 270 897 270 897 410 897 c 0,24,25
 515 897 515 897 588 827 c 0,26,27
 642 778 642 778 702 668 c 1,0,1
799 465 m 1,28,29
 918 201 918 201 1110 201 c 0,30,31
 1246 201 1246 201 1325 297 c 0,32,33
 1399 389 1399 389 1399 526 c 0,34,35
 1399 656 1399 656 1323 756 c 0,36,37
 1240 866 1240 866 1116 866 c 0,38,39
 996 866 996 866 907 719 c 0,40,41
 872 657 872 657 799 465 c 1,28,29
674 590 m 1,42,43
 581 805 581 805 406 805 c 0,44,45
 295 805 295 805 226 724 c 0,46,47
 158 642 158 642 158 530 c 0,48,49
 158 420 158 420 215 334 c 0,50,51
 281 238 281 238 387 238 c 0,52,53
 504 238 504 238 580 362 c 0,54,55
 618 422 618 422 674 590 c 1,42,43
EndSplineSet
EndChar
StartChar: uni2221
Encoding: 8737 8737 133
Width: 1536
GlyphClass: 2
Flags: W
Fore
922 102 m 1,0,1
 892 312 892 312 758 492 c 1,2,-1
 389 102 l 1,3,-1
 922 102 l 1,0,1
1331 1188 m 1,4,-1
 1331 1044 l 1,5,-1
 840 553 l 1,6,7
 986 363 986 363 1024 102 c 1,8,-1
 1331 102 l 1,9,-1
 1331 0 l 1,10,-1
 143 0 l 1,11,-1
 1331 1188 l 1,4,-1
EndSplineSet
EndChar
StartChar: uni2222
Encoding: 8738 8738 134
Width: 1628
GlyphClass: 2
Flags: W
Fore
1075 344 m 1,0,-1
 1407 209 l 1,1,-1
 1368 117 l 1,2,-1
 1042 252 l 1,3,4
 972 90 972 90 850 -37 c 1,5,-1
 780 35 l 1,6,7
 886 147 886 147 950 291 c 1,8,-1
 221 592 l 1,9,-1
 950 895 l 1,10,11
 876 1055 876 1055 780 1151 c 1,12,-1
 850 1221 l 1,13,14
 969 1088 969 1088 1042 932 c 1,15,-1
 1368 1067 l 1,16,-1
 1407 977 l 1,17,-1
 1075 840 l 1,18,19
 1110 698 1110 698 1110 592 c 0,20,21
 1110 487 1110 487 1075 344 c 1,0,-1
983 383 m 1,22,23
 1012 510 1012 510 1012 592 c 0,24,25
 1012 680 1012 680 983 801 c 1,26,-1
 481 592 l 1,27,-1
 983 383 l 1,22,23
EndSplineSet
EndChar
StartChar: uni2223
Encoding: 8739 8739 135
Width: 813
GlyphClass: 2
Flags: W
Fore
358 -440 m 1,0,-1
 358 1620 l 1,1,-1
 457 1620 l 1,2,-1
 457 -440 l 1,3,-1
 358 -440 l 1,0,-1
EndSplineSet
EndChar
StartChar: uni2224
Encoding: 8740 8740 136
Width: 972
GlyphClass: 2
Flags: W
Fore
539 588 m 1,0,-1
 539 -481 l 1,1,-1
 440 -481 l 1,2,-1
 440 487 l 1,3,4
 179 195 179 195 127 195 c 0,5,6
 76 195 76 195 76 246 c 0,7,8
 76 285 76 285 440 633 c 1,9,-1
 440 1579 l 1,10,-1
 539 1579 l 1,11,-1
 539 733 l 1,12,13
 798 1018 798 1018 844 1018 c 0,14,15
 895 1018 895 1018 895 967 c 0,16,17
 895 927 895 927 539 588 c 1,0,-1
EndSplineSet
EndChar
StartChar: uni2225
Encoding: 8741 8741 137
Width: 1183
GlyphClass: 2
Flags: W
Fore
334 -430 m 1,0,-1
 334 1620 l 1,1,-1
 432 1620 l 1,2,-1
 432 -430 l 1,3,-1
 334 -430 l 1,0,-1
752 -430 m 1,4,-1
 752 1620 l 1,5,-1
 850 1620 l 1,6,-1
 850 -430 l 1,7,-1
 752 -430 l 1,4,-1
EndSplineSet
EndChar
StartChar: logicaland
Encoding: 8743 8743 138
Width: 1628
GlyphClass: 2
Flags: W
Fore
221 0 m 1,0,-1
 809 1174 l 1,1,-1
 1401 0 l 1,2,-1
 1292 0 l 1,3,-1
 811 958 l 1,4,-1
 330 0 l 1,5,-1
 221 0 l 1,0,-1
EndSplineSet
EndChar
StartChar: logicalor
Encoding: 8744 8744 139
Width: 1628
GlyphClass: 2
Flags: W
Fore
221 1180 m 1,0,-1
 330 1180 l 1,1,-1
 811 215 l 1,2,-1
 1292 1180 l 1,3,-1
 1401 1180 l 1,4,-1
 811 0 l 1,5,-1
 221 1180 l 1,0,-1
EndSplineSet
EndChar
StartChar: intersection
Encoding: 8745 8745 140
Width: 1628
GlyphClass: 2
Flags: W
Fore
221 0 m 1,0,-1
 221 592 l 2,1,2
 221 860 221 860 383 1022 c 128,-1,3
 545 1184 545 1184 813 1184 c 0,4,5
 1082 1184 1082 1184 1245 1023 c 0,6,7
 1407 862 1407 862 1407 592 c 2,8,-1
 1407 0 l 1,9,-1
 1309 0 l 1,10,11
 1309 60 1309 60 1315 199 c 0,12,13
 1319 315 1319 315 1319 397 c 0,14,15
 1319 716 1319 716 1229 877 c 0,16,17
 1111 1085 1111 1085 813 1085 c 0,18,19
 594 1085 594 1085 458 948 c 0,20,21
 322 812 322 812 322 592 c 2,22,-1
 322 0 l 1,23,-1
 221 0 l 1,0,-1
EndSplineSet
EndChar
StartChar: union
Encoding: 8746 8746 141
Width: 1628
GlyphClass: 2
Flags: W
Fore
1407 1184 m 1,0,-1
 1407 592 l 2,1,2
 1407 322 1407 322 1245 161 c 0,3,4
 1082 0 1082 0 813 0 c 0,5,6
 542 0 542 0 383 161 c 0,7,8
 223 321 223 321 223 592 c 2,9,-1
 223 1184 l 1,10,-1
 322 1184 l 1,11,-1
 322 592 l 2,12,13
 322 372 322 372 459 236 c 0,14,15
 594 98 594 98 813 98 c 0,16,17
 1114 98 1114 98 1233 313 c 0,18,19
 1319 471 1319 471 1319 788 c 0,20,21
 1319 877 1319 877 1315 993 c 0,22,23
 1309 1132 1309 1132 1309 1184 c 1,24,-1
 1407 1184 l 1,0,-1
EndSplineSet
EndChar
StartChar: integral
Encoding: 8747 8747 142
Width: 1183
GlyphClass: 2
Flags: W
Fore
367 -211 m 1,0,1
 385 -223 385 -223 406 -223 c 0,2,3
 518 -223 518 -223 518 -12 c 0,4,5
 518 60 518 60 512 205 c 128,-1,6
 506 350 506 350 506 422 c 2,7,-1
 506 907 l 2,8,9
 506 1616 506 1616 813 1616 c 0,10,11
 875 1616 875 1616 919 1579 c 0,12,13
 963 1541 963 1541 963 1481 c 0,14,15
 963 1442 963 1442 936 1409 c 128,-1,16
 909 1376 909 1376 870 1376 c 0,17,18
 784 1376 784 1376 784 1460 c 0,19,20
 784 1498 784 1498 817 1530 c 1,21,-1
 778 1542 l 2,22,23
 664 1542 664 1542 664 1360 c 0,24,25
 664 1272 664 1272 671 1129 c 0,26,27
 678 952 678 952 678 899 c 2,28,-1
 678 453 l 2,29,30
 678 -295 678 -295 371 -295 c 0,31,32
 221 -295 221 -295 221 -162 c 0,33,34
 221 -55 221 -55 315 -55 c 0,35,36
 397 -55 397 -55 397 -145 c 0,37,38
 397 -172 397 -172 367 -211 c 1,0,1
EndSplineSet
EndChar
StartChar: uni222C
Encoding: 8748 8748 143
Width: 1751
GlyphClass: 3
Flags: W
Fore
367 -211 m 1,0,1
 385 -223 385 -223 406 -223 c 0,2,3
 518 -223 518 -223 518 -12 c 0,4,5
 518 60 518 60 512 205 c 128,-1,6
 506 350 506 350 506 422 c 2,7,-1
 506 907 l 2,8,9
 506 1616 506 1616 813 1616 c 0,10,11
 875 1616 875 1616 919 1579 c 0,12,13
 963 1541 963 1541 963 1481 c 0,14,15
 963 1442 963 1442 936 1409 c 128,-1,16
 909 1376 909 1376 870 1376 c 0,17,18
 784 1376 784 1376 784 1460 c 0,19,20
 784 1498 784 1498 817 1530 c 1,21,-1
 778 1542 l 2,22,23
 664 1542 664 1542 664 1360 c 0,24,25
 664 1272 664 1272 671 1129 c 0,26,27
 678 952 678 952 678 899 c 2,28,-1
 678 453 l 2,29,30
 678 -295 678 -295 371 -295 c 0,31,32
 221 -295 221 -295 221 -162 c 0,33,34
 221 -55 221 -55 315 -55 c 0,35,36
 397 -55 397 -55 397 -145 c 0,37,38
 397 -172 397 -172 367 -211 c 1,0,1
934 -211 m 1,39,40
 952 -223 952 -223 973 -223 c 0,41,42
 1085 -223 1085 -223 1085 -10 c 0,43,44
 1085 62 1085 62 1079 206 c 128,-1,45
 1073 350 1073 350 1073 422 c 2,46,-1
 1073 883 l 2,47,48
 1073 1616 1073 1616 1382 1616 c 0,49,50
 1444 1616 1444 1616 1487 1579 c 0,51,52
 1530 1542 1530 1542 1530 1481 c 0,53,54
 1530 1442 1530 1442 1503 1409 c 128,-1,55
 1476 1376 1476 1376 1438 1376 c 0,56,57
 1354 1376 1354 1376 1354 1460 c 0,58,59
 1354 1498 1354 1498 1384 1530 c 1,60,61
 1366 1542 1366 1542 1346 1542 c 0,62,63
 1231 1542 1231 1542 1231 1358 c 0,64,65
 1231 1272 1231 1272 1238 1129 c 0,66,67
 1245 988 1245 988 1245 899 c 2,68,-1
 1245 453 l 2,69,70
 1245 -295 1245 -295 938 -295 c 0,71,72
 788 -295 788 -295 788 -162 c 0,73,74
 788 -55 788 -55 883 -55 c 0,75,76
 965 -55 965 -55 965 -145 c 0,77,78
 965 -175 965 -175 934 -211 c 1,39,40
EndSplineSet
Ligature: 0 0 'liga' integral integral
EndChar
StartChar: uni222D
Encoding: 8749 8749 144
Width: 2318
GlyphClass: 3
Flags: W
Fore
367 -211 m 1,0,1
 385 -223 385 -223 406 -223 c 0,2,3
 518 -223 518 -223 518 -12 c 0,4,5
 518 60 518 60 512 205 c 128,-1,6
 506 350 506 350 506 422 c 2,7,-1
 506 907 l 2,8,9
 506 1616 506 1616 813 1616 c 0,10,11
 875 1616 875 1616 919 1579 c 0,12,13
 963 1541 963 1541 963 1481 c 0,14,15
 963 1442 963 1442 936 1409 c 128,-1,16
 909 1376 909 1376 870 1376 c 0,17,18
 784 1376 784 1376 784 1460 c 0,19,20
 784 1498 784 1498 817 1530 c 1,21,-1
 778 1542 l 2,22,23
 664 1542 664 1542 664 1360 c 0,24,25
 664 1272 664 1272 671 1129 c 0,26,27
 678 952 678 952 678 899 c 2,28,-1
 678 453 l 2,29,30
 678 -295 678 -295 371 -295 c 0,31,32
 221 -295 221 -295 221 -162 c 0,33,34
 221 -55 221 -55 315 -55 c 0,35,36
 397 -55 397 -55 397 -145 c 0,37,38
 397 -172 397 -172 367 -211 c 1,0,1
934 -211 m 1,39,40
 952 -223 952 -223 973 -223 c 0,41,42
 1085 -223 1085 -223 1085 -10 c 0,43,44
 1085 62 1085 62 1079 206 c 128,-1,45
 1073 350 1073 350 1073 422 c 2,46,-1
 1073 883 l 2,47,48
 1073 1616 1073 1616 1382 1616 c 0,49,50
 1444 1616 1444 1616 1487 1579 c 0,51,52
 1530 1542 1530 1542 1530 1481 c 0,53,54
 1530 1442 1530 1442 1503 1409 c 128,-1,55
 1476 1376 1476 1376 1438 1376 c 0,56,57
 1354 1376 1354 1376 1354 1460 c 0,58,59
 1354 1498 1354 1498 1384 1530 c 1,60,61
 1366 1542 1366 1542 1346 1542 c 0,62,63
 1231 1542 1231 1542 1231 1358 c 0,64,65
 1231 1272 1231 1272 1238 1129 c 0,66,67
 1245 988 1245 988 1245 899 c 2,68,-1
 1245 453 l 2,69,70
 1245 -295 1245 -295 938 -295 c 0,71,72
 788 -295 788 -295 788 -162 c 0,73,74
 788 -55 788 -55 883 -55 c 0,75,76
 965 -55 965 -55 965 -145 c 0,77,78
 965 -175 965 -175 934 -211 c 1,39,40
1501 -211 m 1,79,80
 1519 -223 1519 -223 1540 -223 c 0,81,82
 1655 -223 1655 -223 1655 -12 c 0,83,84
 1655 60 1655 60 1649 205 c 0,85,86
 1642 375 1642 375 1642 422 c 2,87,-1
 1642 907 l 2,88,89
 1642 1616 1642 1616 1950 1616 c 0,90,91
 2011 1616 2011 1616 2054 1579 c 0,92,93
 2097 1542 2097 1542 2097 1481 c 0,94,95
 2097 1444 2097 1444 2071 1409 c 0,96,97
 2044 1376 2044 1376 2005 1376 c 0,98,99
 1921 1376 1921 1376 1921 1460 c 0,100,101
 1921 1499 1921 1499 1952 1530 c 1,102,-1
 1913 1542 l 2,103,104
 1800 1542 1800 1542 1800 1358 c 0,105,106
 1800 1308 1800 1308 1807 1128 c 0,107,108
 1815 965 1815 965 1815 899 c 2,109,-1
 1815 453 l 2,110,111
 1815 -295 1815 -295 1505 -295 c 0,112,113
 1358 -295 1358 -295 1358 -162 c 0,114,115
 1358 -55 1358 -55 1450 -55 c 0,116,117
 1532 -55 1532 -55 1532 -145 c 0,118,119
 1532 -183 1532 -183 1501 -211 c 1,79,80
EndSplineSet
Ligature: 0 0 'liga' integral integral integral
EndChar
StartChar: uni222E
Encoding: 8750 8750 145
Width: 1257
GlyphClass: 2
Flags: W
Fore
545 983 m 1,0,1
 434 955 434 955 365 864 c 0,2,3
 295 775 295 775 295 659 c 0,4,5
 295 547 295 547 367 457 c 0,6,7
 438 366 438 366 547 338 c 1,8,9
 539 485 539 485 539 661 c 0,10,11
 539 810 539 810 545 983 c 1,0,1
711 338 m 1,12,13
 818 366 818 366 891 457 c 0,14,15
 963 547 963 547 963 659 c 0,16,17
 963 774 963 774 892 865 c 0,18,19
 822 956 822 956 711 985 c 1,20,-1
 715 521 l 2,21,22
 714 395 714 395 711 338 c 1,12,13
403 -211 m 1,23,24
 422 -223 422 -223 442 -223 c 0,25,26
 555 -223 555 -223 555 8 c 0,27,28
 555 136 555 136 549 260 c 1,29,30
 400 288 400 288 310 398 c 0,31,32
 221 508 221 508 221 659 c 0,33,34
 221 807 221 807 312 921 c 0,35,36
 404 1033 404 1033 549 1061 c 1,37,38
 566 1297 566 1297 606 1411 c 0,39,40
 679 1616 679 1616 852 1616 c 0,41,42
 999 1616 999 1616 999 1481 c 0,43,44
 999 1376 999 1376 907 1376 c 0,45,46
 821 1376 821 1376 821 1462 c 0,47,48
 821 1496 821 1496 854 1530 c 1,49,-1
 815 1542 l 2,50,51
 700 1542 700 1542 700 1358 c 0,52,53
 700 1314 700 1314 709 1061 c 1,54,55
 855 1033 855 1033 946 922 c 0,56,57
 1036 811 1036 811 1036 659 c 0,58,59
 1036 506 1036 506 946 396 c 0,60,61
 857 287 857 287 707 260 c 1,62,63
 670 -295 670 -295 408 -295 c 0,64,65
 258 -295 258 -295 258 -162 c 0,66,67
 258 -55 258 -55 352 -55 c 0,68,69
 434 -55 434 -55 434 -145 c 0,70,71
 434 -183 434 -183 403 -211 c 1,23,24
EndSplineSet
EndChar
StartChar: uni222F
Encoding: 8751 8751 146
Width: 1826
GlyphClass: 3
Flags: W
Fore
1604 659 m 0,0,1
 1604 435 1604 435 1278 313 c 1,2,3
 1246 -295 1246 -295 975 -295 c 0,4,5
 825 -295 825 -295 825 -162 c 0,6,7
 825 -55 825 -55 920 -55 c 0,8,9
 1001 -55 1001 -55 1001 -145 c 0,10,11
 1001 -176 1001 -176 971 -211 c 1,12,13
 989 -223 989 -223 1010 -223 c 0,14,15
 1122 -223 1122 -223 1122 -10 c 0,16,17
 1122 134 1122 134 1116 270 c 1,18,19
 1017 254 1017 254 913 254 c 0,20,21
 807 254 807 254 707 270 c 1,22,23
 669 -295 669 -295 408 -295 c 0,24,25
 258 -295 258 -295 258 -162 c 0,26,27
 258 -55 258 -55 352 -55 c 0,28,29
 434 -55 434 -55 434 -145 c 0,30,31
 434 -183 434 -183 403 -211 c 1,32,33
 422 -223 422 -223 442 -223 c 0,34,35
 555 -223 555 -223 555 -10 c 0,36,37
 555 139 555 139 549 313 c 1,38,39
 221 433 221 433 221 659 c 0,40,41
 221 882 221 882 547 1008 c 1,42,43
 565 1616 565 1616 852 1616 c 0,44,45
 999 1616 999 1616 999 1481 c 0,46,47
 999 1376 999 1376 907 1376 c 0,48,49
 821 1376 821 1376 821 1462 c 0,50,51
 821 1496 821 1496 854 1530 c 1,52,-1
 815 1542 l 2,53,54
 700 1542 700 1542 700 1360 c 0,55,56
 700 1348 700 1348 711 1051 c 1,57,58
 811 1067 811 1067 913 1067 c 0,59,60
 1017 1067 1017 1067 1116 1051 c 1,61,62
 1132 1291 1132 1291 1171 1407 c 0,63,64
 1243 1616 1243 1616 1419 1616 c 0,65,66
 1567 1616 1567 1616 1567 1481 c 0,67,68
 1567 1376 1567 1376 1475 1376 c 0,69,70
 1391 1376 1391 1376 1391 1460 c 0,71,72
 1391 1498 1391 1498 1421 1530 c 1,73,74
 1403 1542 1403 1542 1382 1542 c 0,75,76
 1268 1542 1268 1542 1268 1358 c 0,77,78
 1268 1275 1268 1275 1276 1010 c 1,79,80
 1604 884 1604 884 1604 659 c 0,0,1
547 393 m 1,81,82
 541 487 541 487 541 645 c 0,83,84
 541 769 541 769 545 928 c 1,85,86
 295 825 295 825 295 657 c 0,87,88
 295 494 295 494 547 393 c 1,81,82
1114 346 m 1,89,90
 1106 492 1106 492 1107 667 c 0,91,92
 1107 812 1107 812 1112 977 c 1,93,94
 1013 993 1013 993 911 993 c 0,95,96
 808 993 808 993 713 977 c 1,97,98
 725 684 725 684 713 344 c 1,99,100
 808 328 808 328 911 328 c 0,101,102
 1020 328 1020 328 1114 346 c 1,89,90
1530 659 m 0,103,104
 1530 830 1530 830 1278 930 c 1,105,106
 1284 838 1284 838 1284 683 c 2,107,-1
 1280 395 l 1,108,109
 1530 491 1530 491 1530 659 c 0,103,104
EndSplineSet
Ligature: 0 0 'liga' uni222E uni222E
EndChar
StartChar: uni2230
Encoding: 8752 8752 147
Width: 2392
GlyphClass: 3
Flags: W
Fore
2171 659 m 0,0,1
 2171 478 2171 478 1849 358 c 1,2,3
 1825 -295 1825 -295 1542 -295 c 0,4,5
 1395 -295 1395 -295 1395 -162 c 0,6,7
 1395 -55 1395 -55 1487 -55 c 0,8,9
 1569 -55 1569 -55 1569 -145 c 0,10,11
 1569 -179 1569 -179 1538 -211 c 1,12,13
 1556 -223 1556 -223 1579 -223 c 0,14,15
 1692 -223 1692 -223 1692 0 c 0,16,17
 1692 6 l 1,18,-1
 1692 6 l 1,19,-1
 1683 307 l 1,20,21
 1497 262 1497 262 1274 256 c 1,22,23
 1233 -295 1233 -295 975 -295 c 0,24,25
 825 -295 825 -295 825 -162 c 0,26,27
 825 -55 825 -55 920 -55 c 0,28,29
 1001 -55 1001 -55 1001 -145 c 0,30,31
 1001 -176 1001 -176 971 -211 c 1,32,33
 989 -223 989 -223 1010 -223 c 0,34,35
 1122 -223 1122 -223 1122 -10 c 0,36,37
 1122 107 1122 107 1118 256 c 1,38,39
 905 262 905 262 711 309 c 1,40,41
 680 -295 680 -295 408 -295 c 0,42,43
 258 -295 258 -295 258 -162 c 0,44,45
 258 -55 258 -55 352 -55 c 0,46,47
 434 -55 434 -55 434 -145 c 0,48,49
 434 -183 434 -183 403 -211 c 1,50,51
 422 -223 422 -223 442 -223 c 0,52,53
 555 -223 555 -223 555 -10 c 0,54,55
 555 152 555 152 547 358 c 1,56,57
 221 480 221 480 221 655 c 0,58,59
 221 838 221 838 545 965 c 1,60,61
 556 1239 556 1239 592 1368 c 0,62,63
 664 1616 664 1616 852 1616 c 0,64,65
 999 1616 999 1616 999 1481 c 0,66,67
 999 1376 999 1376 907 1376 c 0,68,69
 821 1376 821 1376 821 1462 c 0,70,71
 821 1496 821 1496 854 1530 c 1,72,-1
 815 1542 l 2,73,74
 700 1542 700 1542 700 1358 c 0,75,76
 700 1357 700 1357 711 1018 c 1,77,78
 886 1061 886 1061 1116 1067 c 1,79,80
 1149 1616 1149 1616 1419 1616 c 0,81,82
 1567 1616 1567 1616 1567 1481 c 0,83,84
 1567 1376 1567 1376 1475 1376 c 0,85,86
 1391 1376 1391 1376 1391 1460 c 0,87,88
 1391 1498 1391 1498 1421 1530 c 1,89,90
 1403 1542 1403 1542 1382 1542 c 0,91,92
 1268 1542 1268 1542 1268 1358 c 0,93,94
 1268 1285 1268 1285 1276 1065 c 1,95,96
 1504 1059 1504 1059 1683 1016 c 1,97,98
 1702 1616 1702 1616 1987 1616 c 0,99,100
 2134 1616 2134 1616 2134 1481 c 0,101,102
 2134 1376 2134 1376 2044 1376 c 0,103,104
 1958 1376 1958 1376 1958 1460 c 0,105,106
 1958 1503 1958 1503 1989 1530 c 1,107,-1
 1950 1542 l 2,108,109
 1835 1542 1835 1542 1835 1362 c 0,110,111
 1835 1346 1835 1346 1847 965 c 1,112,113
 2171 838 2171 838 2171 659 c 0,0,1
545 430 m 1,114,115
 541 498 541 498 541 656 c 0,116,117
 541 757 541 757 543 889 c 1,118,119
 295 796 295 796 295 657 c 0,120,121
 295 520 295 520 545 430 c 1,114,115
1114 330 m 1,122,123
 1105 488 1105 488 1105 655 c 0,124,125
 1105 819 1105 819 1114 991 c 1,126,127
 888 985 888 985 713 942 c 1,128,-1
 717 640 l 2,129,130
 717 506 717 506 713 379 c 1,131,132
 895 336 895 336 1114 330 c 1,122,123
1681 381 m 1,133,-1
 1680 813 l 2,134,135
 1680 876 1680 876 1681 942 c 1,136,137
 1502 985 1502 985 1278 991 c 1,138,-1
 1282 525 l 2,139,140
 1281 395 1281 395 1278 330 c 1,141,142
 1489 331 1489 331 1681 381 c 1,133,-1
2097 659 m 0,143,144
 2097 797 2097 797 1849 891 c 1,145,146
 1853 826 1853 826 1853 667 c 0,147,148
 1853 566 1853 566 1851 432 c 1,149,150
 2097 526 2097 526 2097 659 c 0,143,144
EndSplineSet
Ligature: 0 0 'liga' uni222E uni222E uni222E
EndChar
StartChar: uni2243
Encoding: 8771 8771 148
Width: 1628
GlyphClass: 2
Flags: W
Fore
221 260 m 1,0,-1
 221 358 l 1,1,-1
 1405 358 l 1,2,-1
 1405 260 l 1,3,-1
 221 260 l 1,0,-1
283 629 m 1,4,-1
 221 629 l 1,5,6
 236 948 236 948 485 948 c 0,7,8
 600 948 600 948 843 828 c 0,9,10
 1087 709 1087 709 1176 709 c 0,11,12
 1321 709 1321 709 1343 926 c 1,13,-1
 1405 926 l 1,14,15
 1387 606 1387 606 1141 606 c 0,16,17
 1014 606 1014 606 795 726 c 128,-1,18
 576 846 576 846 449 846 c 0,19,20
 370 846 370 846 324 774 c 0,21,22
 283 712 283 712 283 629 c 1,4,-1
EndSplineSet
EndChar
StartChar: congruent
Encoding: 8773 8773 149
Width: 1628
GlyphClass: 2
Flags: W
Fore
221 424 m 1,0,-1
 221 522 l 1,1,-1
 1405 522 l 1,2,-1
 1405 424 l 1,3,-1
 221 424 l 1,0,-1
283 670 m 1,4,-1
 221 670 l 1,5,6
 236 989 236 989 485 989 c 0,7,8
 600 989 600 989 843 869 c 0,9,10
 1087 750 1087 750 1176 750 c 0,11,12
 1321 750 1321 750 1343 967 c 1,13,-1
 1405 967 l 1,14,15
 1387 647 1387 647 1141 647 c 0,16,17
 1014 647 1014 647 795 767 c 128,-1,18
 576 887 576 887 449 887 c 0,19,20
 370 887 370 887 324 815 c 0,21,22
 283 754 283 754 283 670 c 1,4,-1
221 219 m 1,23,-1
 221 317 l 1,24,-1
 1405 317 l 1,25,-1
 1405 219 l 1,26,-1
 221 219 l 1,23,-1
EndSplineSet
EndChar
StartChar: approxequal
Encoding: 8776 8776 150
Width: 1628
GlyphClass: 2
Flags: W
Fore
307 621 m 1,0,-1
 246 621 l 1,1,2
 259 940 259 940 510 940 c 0,3,4
 622 940 622 940 864 820 c 128,-1,5
 1106 700 1106 700 1200 700 c 0,6,7
 1345 700 1345 700 1368 918 c 1,8,-1
 1430 918 l 1,9,10
 1410 598 1410 598 1165 598 c 0,11,12
 1038 598 1038 598 819 718 c 128,-1,13
 600 838 600 838 473 838 c 0,14,15
 396 838 396 838 348 766 c 0,16,17
 307 702 307 702 307 621 c 1,0,-1
340 317 m 1,18,-1
 279 317 l 1,19,20
 293 637 293 637 543 637 c 0,21,22
 656 637 656 637 897 517 c 128,-1,23
 1138 397 1138 397 1233 397 c 0,24,25
 1378 397 1378 397 1401 614 c 1,26,-1
 1462 614 l 1,27,28
 1444 295 1444 295 1198 295 c 0,29,30
 1071 295 1071 295 852 415 c 128,-1,31
 633 535 633 535 506 535 c 0,32,33
 428 535 428 535 381 463 c 0,34,35
 340 399 340 399 340 317 c 1,18,-1
EndSplineSet
EndChar
StartChar: uni2254
Encoding: 8788 8788 151
Width: 1738
GlyphClass: 2
Flags: W
Fore
446 358 m 1,0,-1
 446 457 l 1,1,-1
 1630 457 l 1,2,-1
 1630 358 l 1,3,-1
 446 358 l 1,0,-1
446 729 m 1,4,-1
 446 827 l 1,5,-1
 1630 827 l 1,6,-1
 1630 729 l 1,7,-1
 446 729 l 1,4,-1
207 1087 m 0,8,9
 253 1087 253 1087 285 1055 c 128,-1,10
 317 1023 317 1023 317 977 c 128,-1,11
 317 931 317 931 285 899 c 0,12,13
 252 866 252 866 207 866 c 128,-1,14
 162 866 162 866 129 899 c 128,-1,15
 96 932 96 932 96 977 c 128,-1,16
 96 1022 96 1022 129 1055 c 0,17,18
 161 1087 161 1087 207 1087 c 0,8,9
205 338 m 0,19,20
 250 338 250 338 284 305 c 0,21,22
 317 272 317 272 317 227 c 0,23,24
 317 182 317 182 284 148 c 0,25,26
 250 115 250 115 205 115 c 0,27,28
 160 115 160 115 127 148 c 0,29,30
 94 182 94 182 94 227 c 0,31,32
 94 272 94 272 127 305 c 128,-1,33
 160 338 160 338 205 338 c 0,19,20
EndSplineSet
EndChar
StartChar: uni2255
Encoding: 8789 8789 152
Width: 1685
GlyphClass: 2
Flags: W
Fore
78 358 m 1,0,-1
 78 457 l 1,1,-1
 1262 457 l 1,2,-1
 1262 358 l 1,3,-1
 78 358 l 1,0,-1
78 729 m 1,4,-1
 78 827 l 1,5,-1
 1262 827 l 1,6,-1
 1262 729 l 1,7,-1
 78 729 l 1,4,-1
1497 1087 m 0,8,9
 1543 1087 1543 1087 1575 1055 c 0,10,11
 1608 1022 1608 1022 1608 977 c 128,-1,12
 1608 932 1608 932 1575 899 c 128,-1,13
 1542 866 1542 866 1497 866 c 128,-1,14
 1452 866 1452 866 1419 899 c 128,-1,15
 1386 932 1386 932 1386 977 c 128,-1,16
 1386 1022 1386 1022 1419 1055 c 0,17,18
 1451 1087 1451 1087 1497 1087 c 0,8,9
1495 338 m 0,19,20
 1540 338 1540 338 1574 305 c 0,21,22
 1608 271 1608 271 1608 227 c 0,23,24
 1608 184 1608 184 1574 148 c 0,25,26
 1540 115 1540 115 1495 115 c 0,27,28
 1450 115 1450 115 1417 148 c 0,29,30
 1384 182 1384 182 1384 227 c 0,31,32
 1384 272 1384 272 1417 305 c 128,-1,33
 1450 338 1450 338 1495 338 c 0,19,20
EndSplineSet
EndChar
StartChar: uni2259
Encoding: 8793 8793 153
Width: 1628
GlyphClass: 2
Flags: W
Fore
229 938 m 1,0,-1
 811 1434 l 1,1,-1
 1374 954 l 1,2,-1
 1270 954 l 1,3,-1
 807 1282 l 1,4,-1
 336 938 l 1,5,-1
 229 938 l 1,0,-1
221 358 m 1,6,-1
 221 457 l 1,7,-1
 1405 457 l 1,8,-1
 1405 358 l 1,9,-1
 221 358 l 1,6,-1
221 729 m 1,10,-1
 221 827 l 1,11,-1
 1405 827 l 1,12,-1
 1405 729 l 1,13,-1
 221 729 l 1,10,-1
EndSplineSet
EndChar
StartChar: uni225D
Encoding: 8797 8797 154
Width: 1628
GlyphClass: 2
Flags: W
Fore
221 164 m 1,0,-1
 221 262 l 1,1,-1
 1407 262 l 1,2,-1
 1407 164 l 1,3,-1
 221 164 l 1,0,-1
221 535 m 1,4,-1
 221 633 l 1,5,-1
 1407 633 l 1,6,-1
 1407 535 l 1,7,-1
 221 535 l 1,4,-1
553 854 m 1,8,-1
 553 938 l 1,9,10
 502 846 502 846 406 846 c 0,11,12
 233 846 233 846 233 1063 c 0,13,14
 233 1164 233 1164 279 1231 c 0,15,16
 330 1311 330 1311 424 1311 c 0,17,18
 503 1311 503 1311 553 1249 c 1,19,-1
 553 1501 l 1,20,-1
 635 1501 l 1,21,-1
 635 854 l 1,22,-1
 553 854 l 1,8,-1
553 1192 m 1,23,24
 496 1249 496 1249 434 1249 c 0,25,26
 319 1249 319 1249 319 1071 c 0,27,28
 319 915 319 915 422 915 c 0,29,30
 479 915 479 915 553 989 c 1,31,-1
 553 1192 l 1,23,24
1071 868 m 1,32,33
 984 846 984 846 932 846 c 0,34,35
 831 846 831 846 771 911 c 0,36,37
 711 977 711 977 711 1079 c 0,38,39
 711 1170 711 1170 763 1240 c 0,40,41
 816 1311 816 1311 903 1311 c 0,42,43
 1073 1311 1073 1311 1073 1065 c 1,44,-1
 793 1065 l 1,45,46
 806 905 806 905 946 905 c 0,47,48
 1004 905 1004 905 1071 932 c 1,49,-1
 1071 868 l 1,32,33
797 1124 m 1,50,-1
 991 1124 l 1,51,52
 991 1249 991 1249 899 1249 c 0,53,54
 809 1249 809 1249 797 1124 c 1,50,-1
1169 854 m 1,55,-1
 1169 1239 l 1,56,-1
 1106 1239 l 1,57,-1
 1106 1300 l 1,58,-1
 1169 1300 l 1,59,60
 1169 1402 1169 1402 1192 1446 c 0,61,62
 1222 1511 1222 1511 1315 1511 c 0,63,64
 1350 1511 1350 1511 1407 1499 c 1,65,-1
 1407 1434 l 1,66,67
 1346 1450 1346 1450 1319 1450 c 0,68,69
 1250 1450 1250 1450 1249 1349 c 2,70,-1
 1249 1341 l 1,71,-1
 1249 1300 l 1,72,-1
 1362 1300 l 1,73,-1
 1362 1239 l 1,74,-1
 1249 1239 l 1,75,-1
 1249 854 l 1,76,-1
 1169 854 l 1,55,-1
EndSplineSet
EndChar
StartChar: notequal
Encoding: 8800 8800 155
Width: 1628
GlyphClass: 2
Flags: W
Fore
883 827 m 1,0,-1
 1098 1204 l 1,1,-1
 1208 1204 l 1,2,-1
 993 827 l 1,3,-1
 1405 827 l 1,4,-1
 1405 729 l 1,5,-1
 936 729 l 1,6,-1
 780 457 l 1,7,-1
 1405 457 l 1,8,-1
 1405 358 l 1,9,-1
 725 358 l 1,10,-1
 518 -4 l 1,11,-1
 401 -4 l 1,12,-1
 610 358 l 1,13,-1
 221 358 l 1,14,-1
 221 457 l 1,15,-1
 668 457 l 1,16,-1
 825 729 l 1,17,-1
 221 729 l 1,18,-1
 221 827 l 1,19,-1
 883 827 l 1,0,-1
EndSplineSet
EndChar
StartChar: equivalence
Encoding: 8801 8801 156
Width: 1628
GlyphClass: 2
Flags: W
Fore
221 172 m 1,0,-1
 221 270 l 1,1,-1
 1405 270 l 1,2,-1
 1405 172 l 1,3,-1
 221 172 l 1,0,-1
221 543 m 1,4,-1
 221 641 l 1,5,-1
 1405 641 l 1,6,-1
 1405 543 l 1,7,-1
 221 543 l 1,4,-1
221 913 m 1,8,-1
 221 1012 l 1,9,-1
 1405 1012 l 1,10,-1
 1405 913 l 1,11,-1
 221 913 l 1,8,-1
EndSplineSet
EndChar
StartChar: lessequal
Encoding: 8804 8804 157
Width: 1628
GlyphClass: 2
Flags: W
Fore
221 0 m 1,0,-1
 221 98 l 1,1,-1
 1405 98 l 1,2,-1
 1405 0 l 1,3,-1
 221 0 l 1,0,-1
1405 1184 m 1,4,-1
 1405 1077 l 1,5,-1
 489 711 l 1,6,-1
 1405 342 l 1,7,-1
 1405 238 l 1,8,-1
 221 711 l 1,9,-1
 1405 1184 l 1,4,-1
EndSplineSet
EndChar
StartChar: greaterequal
Encoding: 8805 8805 158
Width: 1628
GlyphClass: 2
Flags: W
Fore
1405 0 m 1,0,-1
 221 0 l 1,1,-1
 221 98 l 1,2,-1
 1405 98 l 1,3,-1
 1405 0 l 1,0,-1
221 1184 m 1,4,-1
 1405 711 l 1,5,-1
 221 238 l 1,6,-1
 221 342 l 1,7,-1
 1139 713 l 1,8,-1
 221 1077 l 1,9,-1
 221 1184 l 1,4,-1
EndSplineSet
EndChar
StartChar: uni226A
Encoding: 8810 8810 159
Width: 2289
GlyphClass: 2
Flags: W
Fore
1407 0 m 1,0,-1
 223 592 l 1,1,-1
 1407 1184 l 1,2,-1
 1407 1073 l 1,3,-1
 446 592 l 1,4,-1
 1407 111 l 1,5,-1
 1407 0 l 1,0,-1
2068 0 m 1,6,-1
 885 592 l 1,7,-1
 2068 1184 l 1,8,-1
 2068 1073 l 1,9,-1
 1108 592 l 1,10,-1
 2068 111 l 1,11,-1
 2068 0 l 1,6,-1
EndSplineSet
EndChar
StartChar: uni226B
Encoding: 8811 8811 160
Width: 2289
GlyphClass: 2
Flags: W
Fore
885 0 m 1,0,-1
 885 111 l 1,1,-1
 1845 594 l 1,2,-1
 885 1073 l 1,3,-1
 885 1184 l 1,4,-1
 2068 592 l 1,5,-1
 885 0 l 1,0,-1
223 0 m 1,6,-1
 223 111 l 1,7,-1
 1184 594 l 1,8,-1
 223 1073 l 1,9,-1
 223 1184 l 1,10,-1
 1407 592 l 1,11,-1
 223 0 l 1,6,-1
EndSplineSet
EndChar
StartChar: propersubset
Encoding: 8834 8834 161
Width: 1628
GlyphClass: 2
Flags: W
Fore
1407 281 m 1,0,-1
 1407 182 l 1,1,-1
 641 182 l 2,2,3
 458 182 458 182 341 301 c 0,4,5
 223 419 223 419 223 602 c 0,6,7
 223 782 223 782 342 901 c 128,-1,8
 461 1020 461 1020 641 1020 c 2,9,-1
 1407 1020 l 1,10,-1
 1407 922 l 1,11,-1
 641 922 l 2,12,13
 508 922 508 922 415 828 c 0,14,15
 322 735 322 735 322 602 c 0,16,17
 322 470 322 470 415 375 c 0,18,19
 508 281 508 281 641 281 c 2,20,-1
 1407 281 l 1,0,-1
EndSplineSet
EndChar
StartChar: propersuperset
Encoding: 8835 8835 162
Width: 1628
GlyphClass: 2
Flags: W
Fore
221 281 m 1,0,-1
 987 281 l 2,1,2
 1121 281 1121 281 1214 375 c 0,3,4
 1309 470 1309 470 1309 602 c 0,5,6
 1309 734 1309 734 1214 827 c 0,7,8
 1121 922 1121 922 987 922 c 2,9,-1
 221 922 l 1,10,-1
 221 1020 l 1,11,-1
 987 1020 l 2,12,13
 1170 1020 1170 1020 1288 902 c 0,14,15
 1407 785 1407 785 1407 602 c 0,16,17
 1407 422 1407 422 1287 302 c 128,-1,18
 1167 182 1167 182 987 182 c 2,19,-1
 221 182 l 1,20,-1
 221 281 l 1,0,-1
EndSplineSet
EndChar
StartChar: notsubset
Encoding: 8836 8836 163
Width: 1628
GlyphClass: 2
Flags: W
Fore
948 922 m 1,0,-1
 641 922 l 2,1,2
 508 922 508 922 415 828 c 0,3,4
 322 735 322 735 322 602 c 0,5,6
 322 487 322 487 394 397 c 0,7,8
 468 306 468 306 580 287 c 1,9,-1
 948 922 l 1,0,-1
1407 281 m 1,10,-1
 1407 182 l 1,11,-1
 637 182 l 1,12,13
 525 -35 525 -35 483 -35 c 0,14,15
 430 -35 430 -35 430 14 c 0,16,17
 430 36 430 36 526 197 c 1,18,19
 390 228 390 228 306 344 c 0,20,21
 223 460 223 460 223 602 c 0,22,23
 223 816 223 816 352 920 c 0,24,25
 456 1000 456 1000 655 1016 c 0,26,27
 699 1020 699 1020 1006 1020 c 1,28,29
 1152 1313 1152 1313 1204 1313 c 0,30,31
 1257 1313 1257 1313 1257 1264 c 0,32,33
 1257 1243 1257 1243 1124 1020 c 1,34,-1
 1407 1020 l 1,35,-1
 1407 922 l 1,36,-1
 1067 922 l 1,37,-1
 694 281 l 1,38,-1
 1407 281 l 1,10,-1
EndSplineSet
EndChar
StartChar: uni2285
Encoding: 8837 8837 164
Width: 1628
GlyphClass: 2
Flags: W
Fore
1061 913 m 1,0,-1
 694 281 l 1,1,-1
 987 281 l 2,2,3
 1121 281 1121 281 1214 375 c 0,4,5
 1309 470 1309 470 1309 602 c 0,6,7
 1309 709 1309 709 1238 800 c 0,8,9
 1167 889 1167 889 1061 913 c 1,0,-1
1114 1004 m 1,10,11
 1247 967 1247 967 1327 855 c 0,12,13
 1407 743 1407 743 1407 602 c 0,14,15
 1407 389 1407 389 1282 287 c 0,16,17
 1184 208 1184 208 985 188 c 0,18,19
 922 182 922 182 637 182 c 1,20,21
 535 -29 535 -29 487 -29 c 0,22,23
 434 -29 434 -29 434 20 c 0,24,25
 434 42 434 42 518 182 c 1,26,-1
 221 182 l 1,27,-1
 221 281 l 1,28,-1
 575 281 l 1,29,-1
 948 922 l 1,30,-1
 221 922 l 1,31,-1
 221 1020 l 1,32,-1
 1004 1020 l 1,33,34
 1145 1307 1145 1307 1198 1307 c 0,35,36
 1251 1307 1251 1307 1251 1257 c 0,37,38
 1251 1235 1251 1235 1114 1004 c 1,10,11
EndSplineSet
EndChar
StartChar: reflexsubset
Encoding: 8838 8838 165
Width: 1628
GlyphClass: 2
Flags: W
Fore
1407 98 m 1,0,-1
 1407 0 l 1,1,-1
 223 0 l 1,2,-1
 223 98 l 1,3,-1
 1407 98 l 1,0,-1
1407 444 m 1,4,-1
 1407 346 l 1,5,-1
 641 346 l 2,6,7
 458 346 458 346 341 465 c 0,8,9
 223 583 223 583 223 766 c 0,10,11
 223 946 223 946 342 1065 c 128,-1,12
 461 1184 461 1184 641 1184 c 2,13,-1
 1407 1184 l 1,14,-1
 1407 1085 l 1,15,-1
 641 1085 l 2,16,17
 508 1085 508 1085 415 992 c 128,-1,18
 322 899 322 899 322 766 c 0,19,20
 322 632 322 632 415 539 c 0,21,22
 508 444 508 444 641 444 c 2,23,-1
 1407 444 l 1,4,-1
EndSplineSet
EndChar
StartChar: reflexsuperset
Encoding: 8839 8839 166
Width: 1628
GlyphClass: 2
Flags: W
Fore
221 98 m 1,0,-1
 1407 98 l 1,1,-1
 1407 0 l 1,2,-1
 221 0 l 1,3,-1
 221 98 l 1,0,-1
221 444 m 1,4,-1
 987 444 l 2,5,6
 1121 444 1121 444 1214 539 c 0,7,8
 1309 632 1309 632 1309 766 c 0,9,10
 1309 896 1309 896 1214 991 c 0,11,12
 1121 1085 1121 1085 987 1085 c 2,13,-1
 221 1085 l 1,14,-1
 221 1184 l 1,15,-1
 987 1184 l 2,16,17
 1168 1184 1168 1184 1288 1066 c 0,18,19
 1407 947 1407 947 1407 766 c 0,20,21
 1407 586 1407 586 1287 466 c 128,-1,22
 1167 346 1167 346 987 346 c 2,23,-1
 221 346 l 1,24,-1
 221 444 l 1,4,-1
EndSplineSet
EndChar
StartChar: uni2288
Encoding: 8840 8840 167
Width: 1628
GlyphClass: 2
Flags: W
Fore
756 444 m 1,0,-1
 1407 444 l 1,1,-1
 1407 346 l 1,2,-1
 700 346 l 1,3,-1
 559 98 l 1,4,-1
 1407 98 l 1,5,-1
 1407 0 l 1,6,-1
 504 0 l 1,7,-1
 453 -90 l 1,8,-1
 336 -90 l 1,9,-1
 387 0 l 1,10,-1
 223 0 l 1,11,-1
 223 98 l 1,12,-1
 444 98 l 1,13,-1
 588 348 l 1,14,15
 431 366 431 366 327 487 c 0,16,17
 223 609 223 609 223 766 c 0,18,19
 223 1022 223 1022 410 1118 c 0,20,21
 540 1188 540 1188 813 1188 c 0,22,23
 831 1188 831 1188 947 1186 c 0,24,25
 1005 1184 1005 1184 1067 1184 c 1,26,-1
 1126 1286 l 1,27,-1
 1237 1286 l 1,28,-1
 1178 1184 l 1,29,-1
 1407 1184 l 1,30,-1
 1407 1085 l 1,31,-1
 1122 1085 l 1,32,-1
 756 444 l 1,0,-1
1012 1085 m 1,33,-1
 641 1085 l 2,34,35
 508 1085 508 1085 415 992 c 128,-1,36
 322 899 322 899 322 766 c 0,37,38
 322 632 322 632 416 539 c 0,39,40
 511 444 511 444 643 444 c 1,41,-1
 1012 1085 l 1,33,-1
EndSplineSet
EndChar
StartChar: uni2289
Encoding: 8841 8841 168
Width: 1628
GlyphClass: 2
Flags: W
Fore
1012 1085 m 1,0,-1
 221 1085 l 1,1,-1
 221 1184 l 1,2,3
 339 1184 339 1184 489 1189 c 0,4,5
 691 1194 691 1194 762 1194 c 0,6,7
 966 1194 966 1194 1065 1178 c 1,8,-1
 1126 1286 l 1,9,-1
 1237 1286 l 1,10,-1
 1159 1149 l 1,11,12
 1407 1026 1407 1026 1407 766 c 0,13,14
 1407 586 1407 586 1287 466 c 128,-1,15
 1167 346 1167 346 987 346 c 2,16,-1
 700 346 l 1,17,-1
 559 98 l 1,18,-1
 1407 98 l 1,19,-1
 1407 0 l 1,20,-1
 504 0 l 1,21,-1
 453 -90 l 1,22,-1
 336 -90 l 1,23,-1
 387 0 l 1,24,-1
 221 0 l 1,25,-1
 221 98 l 1,26,-1
 444 98 l 1,27,-1
 586 346 l 1,28,-1
 221 346 l 1,29,-1
 221 444 l 1,30,-1
 643 444 l 1,31,-1
 1012 1085 l 1,0,-1
756 444 m 1,32,-1
 987 444 l 2,33,34
 1121 444 1121 444 1214 539 c 0,35,36
 1309 632 1309 632 1309 766 c 0,37,38
 1309 864 1309 864 1254 947 c 0,39,40
 1201 1031 1201 1031 1110 1063 c 1,41,-1
 756 444 l 1,32,-1
EndSplineSet
EndChar
StartChar: circleplus
Encoding: 8853 8853 169
Width: 1628
GlyphClass: 2
Flags: W
Fore
813 0 m 0,0,1
 545 0 545 0 383 162 c 128,-1,2
 221 324 221 324 221 592 c 0,3,4
 221 862 221 862 382 1023 c 128,-1,5
 543 1184 543 1184 813 1184 c 0,6,7
 1081 1184 1081 1184 1243 1022 c 128,-1,8
 1405 860 1405 860 1405 592 c 0,9,10
 1405 322 1405 322 1244 161 c 128,-1,11
 1083 0 1083 0 813 0 c 0,0,1
862 641 m 1,12,-1
 1305 641 l 1,13,14
 1279 822 1279 822 1161 940 c 0,15,16
 1042 1059 1042 1059 862 1083 c 1,17,-1
 862 641 l 1,12,-1
766 543 m 1,18,-1
 322 543 l 1,19,20
 368 161 368 161 764 100 c 1,21,-1
 766 543 l 1,18,-1
764 641 m 1,22,-1
 766 1083 l 1,23,24
 585 1059 585 1059 465 940 c 0,25,26
 345 823 345 823 322 641 c 1,27,-1
 764 641 l 1,22,-1
862 543 m 1,28,-1
 862 100 l 1,29,30
 1043 126 1043 126 1161 244 c 128,-1,31
 1279 362 1279 362 1305 543 c 1,32,-1
 862 543 l 1,28,-1
EndSplineSet
EndChar
StartChar: uni2296
Encoding: 8854 8854 170
Width: 1628
GlyphClass: 2
Flags: W
Fore
813 0 m 0,0,1
 545 0 545 0 383 162 c 128,-1,2
 221 324 221 324 221 592 c 0,3,4
 221 862 221 862 382 1023 c 128,-1,5
 543 1184 543 1184 813 1184 c 0,6,7
 1081 1184 1081 1184 1243 1022 c 128,-1,8
 1405 860 1405 860 1405 592 c 0,9,10
 1405 322 1405 322 1244 161 c 128,-1,11
 1083 0 1083 0 813 0 c 0,0,1
1305 641 m 1,12,13
 1280 836 1280 836 1144 961 c 0,14,15
 1008 1085 1008 1085 813 1085 c 0,16,17
 618 1085 618 1085 482 959 c 0,18,19
 346 834 346 834 322 641 c 1,20,-1
 1305 641 l 1,12,13
322 543 m 1,21,22
 346 350 346 350 482 223 c 0,23,24
 619 98 619 98 813 98 c 0,25,26
 1011 98 1011 98 1147 223 c 0,27,28
 1275 344 1275 344 1305 543 c 1,29,-1
 322 543 l 1,21,22
EndSplineSet
EndChar
StartChar: circlemultiply
Encoding: 8855 8855 171
Width: 1628
GlyphClass: 2
Flags: W
Fore
885 592 m 1,0,-1
 1196 281 l 1,1,2
 1309 424 1309 424 1309 592 c 0,3,4
 1309 760 1309 760 1196 903 c 1,5,-1
 885 592 l 1,0,-1
743 592 m 1,6,-1
 432 903 l 1,7,8
 322 762 322 762 322 592 c 0,9,10
 322 431 322 431 432 281 c 1,11,-1
 743 592 l 1,6,-1
813 662 m 1,12,-1
 1126 975 l 1,13,14
 985 1085 985 1085 815 1085 c 0,15,16
 640 1085 640 1085 502 975 c 1,17,-1
 813 662 l 1,12,-1
813 522 m 1,18,-1
 502 211 l 1,19,20
 645 98 645 98 815 98 c 0,21,22
 983 98 983 98 1126 211 c 1,23,-1
 813 522 l 1,18,-1
813 0 m 0,24,25
 542 0 542 0 383 161 c 0,26,27
 223 321 223 321 223 592 c 128,-1,28
 223 863 223 863 383 1023 c 0,29,30
 542 1184 542 1184 813 1184 c 0,31,32
 1082 1184 1082 1184 1245 1023 c 0,33,34
 1407 862 1407 862 1407 592 c 128,-1,35
 1407 322 1407 322 1245 161 c 0,36,37
 1082 0 1082 0 813 0 c 0,24,25
EndSplineSet
EndChar
StartChar: uni2298
Encoding: 8856 8856 172
Width: 1628
GlyphClass: 2
Flags: W
Fore
1126 975 m 1,0,1
 985 1085 985 1085 813 1085 c 0,2,3
 593 1085 593 1085 457 949 c 0,4,5
 319 812 319 812 319 594 c 0,6,7
 319 419 319 419 432 281 c 1,8,-1
 1126 975 l 1,0,1
502 211 m 1,9,10
 645 98 645 98 815 98 c 0,11,12
 1035 98 1035 98 1170 236 c 0,13,14
 1307 373 1307 373 1307 592 c 0,15,16
 1307 760 1307 760 1196 903 c 1,17,-1
 502 211 l 1,9,10
813 0 m 0,18,19
 545 0 545 0 383 162 c 128,-1,20
 221 324 221 324 221 592 c 0,21,22
 221 862 221 862 382 1023 c 128,-1,23
 543 1184 543 1184 813 1184 c 0,24,25
 1081 1184 1081 1184 1243 1022 c 128,-1,26
 1405 860 1405 860 1405 592 c 0,27,28
 1405 322 1405 322 1244 161 c 128,-1,29
 1083 0 1083 0 813 0 c 0,18,19
EndSplineSet
EndChar
StartChar: uni2299
Encoding: 8857 8857 173
Width: 1628
GlyphClass: 2
Flags: W
Fore
813 0 m 0,0,1
 542 0 542 0 383 161 c 0,2,3
 223 321 223 321 223 592 c 128,-1,4
 223 863 223 863 383 1023 c 0,5,6
 542 1184 542 1184 813 1184 c 0,7,8
 1082 1184 1082 1184 1245 1023 c 0,9,10
 1407 862 1407 862 1407 592 c 128,-1,11
 1407 322 1407 322 1245 161 c 0,12,13
 1082 0 1082 0 813 0 c 0,0,1
813 98 m 0,14,15
 1032 98 1032 98 1170 236 c 0,16,17
 1309 372 1309 372 1309 592 c 128,-1,18
 1309 812 1309 812 1170 948 c 0,19,20
 1033 1085 1033 1085 813 1085 c 0,21,22
 594 1085 594 1085 458 948 c 0,23,24
 322 812 322 812 322 592 c 0,25,26
 322 372 322 372 459 236 c 0,27,28
 594 98 594 98 813 98 c 0,14,15
702 481 m 1,29,-1
 702 702 l 1,30,-1
 924 702 l 1,31,-1
 924 481 l 1,32,-1
 702 481 l 1,29,-1
EndSplineSet
EndChar
StartChar: uni22A4
Encoding: 8868 8868 174
Width: 1400
GlyphClass: 2
Flags: W
Fore
668 0 m 1,0,-1
 668 1260 l 1,1,-1
 82 1260 l 1,2,-1
 82 1356 l 1,3,-1
 1356 1356 l 1,4,-1
 1356 1260 l 1,5,-1
 764 1260 l 1,6,-1
 764 0 l 1,7,-1
 668 0 l 1,0,-1
EndSplineSet
EndChar
StartChar: perpendicular
Encoding: 8869 8869 175
Width: 1431
GlyphClass: 2
Flags: W
Fore
770 1356 m 1,0,-1
 770 96 l 1,1,-1
 1356 96 l 1,2,-1
 1356 0 l 1,3,-1
 82 0 l 1,4,-1
 82 96 l 1,5,-1
 674 96 l 1,6,-1
 674 1356 l 1,7,-1
 770 1356 l 1,0,-1
EndSplineSet
EndChar
StartChar: uni22B6
Encoding: 8886 8886 176
Width: 1851
GlyphClass: 2
Flags: W
Fore
686 543 m 1,0,1
 669 463 669 463 603 412 c 0,2,3
 537 358 537 358 457 358 c 0,4,5
 360 358 360 358 291 427 c 0,6,7
 221 496 221 496 221 592 c 0,8,9
 221 686 221 686 292 757 c 0,10,11
 362 827 362 827 457 827 c 0,12,13
 647 827 647 827 686 641 c 1,14,-1
 1165 641 l 1,15,16
 1208 827 1208 827 1395 827 c 0,17,18
 1494 827 1494 827 1561 759 c 0,19,20
 1628 691 1628 691 1628 592 c 0,21,22
 1628 497 1628 497 1560 427 c 0,23,24
 1491 358 1491 358 1395 358 c 0,25,26
 1313 358 1313 358 1248 411 c 0,27,28
 1185 461 1185 461 1165 543 c 1,29,-1
 686 543 l 1,0,1
319 592 m 0,30,31
 319 536 319 536 359 496 c 0,32,33
 400 457 400 457 457 457 c 0,34,35
 512 457 512 457 552 497 c 0,36,37
 592 536 592 536 592 592 c 0,38,39
 592 647 592 647 552 687 c 128,-1,40
 512 727 512 727 457 727 c 0,41,42
 401 727 401 727 360 687 c 0,43,44
 319 646 319 646 319 592 c 0,30,31
EndSplineSet
EndChar
StartChar: uni22B7
Encoding: 8887 8887 177
Width: 1851
GlyphClass: 2
Flags: W
Fore
1165 543 m 1,0,-1
 686 543 l 1,1,2
 669 463 669 463 603 412 c 0,3,4
 537 358 537 358 457 358 c 0,5,6
 360 358 360 358 291 427 c 0,7,8
 221 496 221 496 221 592 c 0,9,10
 221 686 221 686 292 757 c 0,11,12
 362 827 362 827 457 827 c 0,13,14
 642 827 642 827 686 641 c 1,15,-1
 1165 641 l 1,16,17
 1202 827 1202 827 1395 827 c 0,18,19
 1494 827 1494 827 1561 759 c 0,20,21
 1628 691 1628 691 1628 592 c 0,22,23
 1628 497 1628 497 1560 427 c 0,24,25
 1491 358 1491 358 1395 358 c 0,26,27
 1313 358 1313 358 1248 411 c 0,28,29
 1185 461 1185 461 1165 543 c 1,0,-1
1530 592 m 0,30,31
 1530 647 1530 647 1490 687 c 128,-1,32
 1450 727 1450 727 1395 727 c 0,33,34
 1339 727 1339 727 1298 687 c 0,35,36
 1257 646 1257 646 1257 592 c 0,37,38
 1257 536 1257 536 1297 496 c 0,39,40
 1338 457 1338 457 1395 457 c 0,41,42
 1450 457 1450 457 1490 497 c 0,43,44
 1530 536 1530 536 1530 592 c 0,30,31
EndSplineSet
EndChar
StartChar: uni22BE
Encoding: 8894 8894 178
Width: 1478
GlyphClass: 2
Flags: W
Fore
29 -8 m 1,0,-1
 31 1335 l 1,1,-1
 131 1335 l 1,2,-1
 131 770 l 1,3,-1
 235 767 l 2,4,5
 827 727 827 727 855 149 c 2,6,-1
 856 90 l 1,7,-1
 1403 90 l 1,8,-1
 1403 -10 l 1,9,-1
 29 -8 l 1,0,-1
760 96 m 1,10,11
 744 393 744 393 582 530 c 0,12,13
 431 659 431 659 140 659 c 0,14,15
 134 659 134 659 127 659 c 1,16,-1
 127 96 l 1,17,-1
 760 96 l 1,10,11
295 334 m 0,18,19
 295 360 295 360 315 382 c 0,20,21
 336 403 336 403 362 403 c 0,22,23
 392 403 392 403 412 383 c 0,24,25
 432 361 432 361 432 334 c 0,26,27
 432 306 432 306 411 287 c 0,28,29
 388 266 388 266 362 266 c 0,30,31
 336 266 336 266 315 287 c 0,32,33
 295 307 295 307 295 334 c 0,18,19
EndSplineSet
EndChar
StartChar: dotmath
Encoding: 8901 8901 179
Width: 1183
GlyphClass: 2
Flags: W
Fore
469 592 m 0,0,1
 469 634 469 634 502 669 c 0,2,3
 535 702 535 702 578 702 c 0,4,5
 624 702 624 702 655 670 c 0,6,7
 688 637 688 637 688 592 c 128,-1,8
 688 547 688 547 655 514 c 0,9,10
 624 481 624 481 578 481 c 0,11,12
 536 481 536 481 502 515 c 0,13,14
 469 550 469 550 469 592 c 0,0,1
EndSplineSet
EndChar
StartChar: uni22EE
Encoding: 8942 8942 180
Width: 1210
GlyphClass: 2
Flags: W
Fore
567 20 m 0,0,1
 615 20 615 20 647 -11 c 0,2,3
 680 -42 680 -42 680 -90 c 0,4,5
 680 -135 680 -135 646 -168 c 0,6,7
 613 -201 613 -201 567 -201 c 0,8,9
 522 -201 522 -201 489 -168 c 0,10,11
 457 -134 457 -134 457 -90 c 0,12,13
 457 -46 457 -46 489 -12 c 0,14,15
 521 20 521 20 567 20 c 0,0,1
567 702 m 0,16,17
 614 702 614 702 646 671 c 0,18,19
 680 640 680 640 680 594 c 0,20,21
 680 549 680 549 646 515 c 128,-1,22
 612 481 612 481 567 481 c 0,23,24
 523 481 523 481 489 515 c 0,25,26
 457 550 457 550 457 594 c 0,27,28
 457 702 457 702 567 702 c 0,16,17
567 1386 m 0,29,30
 615 1386 615 1386 647 1355 c 0,31,32
 680 1324 680 1324 680 1276 c 0,33,34
 680 1231 680 1231 646 1198 c 0,35,36
 613 1165 613 1165 567 1165 c 0,37,38
 522 1165 522 1165 489 1198 c 0,39,40
 457 1232 457 1232 457 1276 c 128,-1,41
 457 1320 457 1320 489 1354 c 0,42,43
 521 1386 521 1386 567 1386 c 0,29,30
EndSplineSet
EndChar
StartChar: uni22EF
Encoding: 8943 8943 181
Width: 2048
GlyphClass: 2
Flags: W
Fore
410 590 m 0,0,1
 410 544 410 544 378 510 c 0,2,3
 346 477 346 477 299 477 c 0,4,5
 254 477 254 477 221 511 c 0,6,7
 188 546 188 546 188 590 c 0,8,9
 188 635 188 635 221 668 c 0,10,11
 255 700 255 700 299 700 c 128,-1,12
 343 700 343 700 377 668 c 0,13,14
 410 635 410 635 410 590 c 0,0,1
1092 590 m 0,15,16
 1092 546 1092 546 1060 511 c 0,17,18
 1029 477 1029 477 983 477 c 0,19,20
 938 477 938 477 904 511 c 0,21,22
 870 547 870 547 870 590 c 0,23,24
 870 634 870 634 904 668 c 0,25,26
 939 700 939 700 983 700 c 0,27,28
 1092 700 1092 700 1092 590 c 0,15,16
1776 590 m 0,29,30
 1776 544 1776 544 1744 510 c 0,31,32
 1712 477 1712 477 1665 477 c 0,33,34
 1620 477 1620 477 1587 511 c 0,35,36
 1554 546 1554 546 1554 590 c 0,37,38
 1554 635 1554 635 1587 668 c 0,39,40
 1621 700 1621 700 1665 700 c 128,-1,41
 1709 700 1709 700 1743 668 c 0,42,43
 1776 635 1776 635 1776 590 c 0,29,30
EndSplineSet
EndChar
StartChar: uni22F0
Encoding: 8944 8944 182
Width: 1693
GlyphClass: 2
Flags: W
Fore
422 113 m 0,0,1
 422 68 422 68 389 35 c 128,-1,2
 356 2 356 2 311 2 c 0,3,4
 265 2 265 2 231 34 c 0,5,6
 199 66 199 66 199 113 c 0,7,8
 199 159 199 159 230 191 c 0,9,10
 263 225 263 225 305 225 c 0,11,12
 351 225 351 225 386 191 c 0,13,14
 422 158 422 158 422 113 c 0,0,1
905 596 m 0,15,16
 905 551 905 551 872 518 c 0,17,18
 840 485 840 485 795 485 c 0,19,20
 684 485 684 485 684 596 c 0,21,22
 684 640 684 640 716 674 c 0,23,24
 748 707 748 707 793 707 c 0,25,26
 838 707 838 707 871 674 c 0,27,28
 905 641 905 641 905 596 c 0,15,16
1389 1079 m 0,29,30
 1389 1033 1389 1033 1357 999 c 0,31,32
 1325 967 1325 967 1278 967 c 0,33,34
 1234 967 1234 967 1199 1000 c 0,35,36
 1165 1036 1165 1036 1165 1079 c 0,37,38
 1165 1123 1165 1123 1199 1157 c 0,39,40
 1234 1190 1234 1190 1278 1190 c 0,41,42
 1321 1190 1321 1190 1355 1156 c 128,-1,43
 1389 1122 1389 1122 1389 1079 c 0,29,30
EndSplineSet
EndChar
StartChar: uni22F1
Encoding: 8945 8945 183
Width: 1667
GlyphClass: 2
Flags: W
Fore
311 973 m 0,0,1
 266 973 266 973 233 1006 c 0,2,3
 201 1038 201 1038 201 1083 c 0,4,5
 201 1131 201 1131 232 1163 c 0,6,7
 265 1196 265 1196 311 1196 c 0,8,9
 356 1196 356 1196 390 1164 c 0,10,11
 424 1133 424 1133 424 1090 c 0,12,13
 424 1044 424 1044 390 1009 c 0,14,15
 357 973 357 973 311 973 c 0,0,1
788 489 m 0,16,17
 746 489 746 489 715 523 c 0,18,19
 684 557 684 557 684 600 c 0,20,21
 684 711 684 711 795 711 c 0,22,23
 905 711 905 711 905 602 c 0,24,25
 905 557 905 557 870 523 c 0,26,27
 834 489 834 489 788 489 c 0,16,17
1278 6 m 0,28,29
 1232 6 1232 6 1198 38 c 0,30,31
 1165 70 1165 70 1165 117 c 0,32,33
 1165 160 1165 160 1199 196 c 0,34,35
 1234 229 1234 229 1278 229 c 0,36,37
 1323 229 1323 229 1356 196 c 0,38,39
 1389 162 1389 162 1389 117 c 0,40,41
 1389 74 1389 74 1355 40 c 128,-1,42
 1321 6 1321 6 1278 6 c 0,28,29
EndSplineSet
EndChar
StartChar: uni2308
Encoding: 8968 8968 184
Width: 577
GlyphClass: 2
Flags: W
Fore
150 -403 m 1,0,-1
 150 1622 l 1,1,-1
 504 1622 l 1,2,-1
 504 1581 l 1,3,-1
 248 1581 l 1,4,-1
 248 -403 l 1,5,-1
 150 -403 l 1,0,-1
EndSplineSet
EndChar
StartChar: uni2309
Encoding: 8969 8969 185
Width: 577
GlyphClass: 2
Flags: W
Fore
428 -403 m 1,0,-1
 330 -403 l 1,1,-1
 330 1581 l 1,2,-1
 74 1581 l 1,3,-1
 74 1622 l 1,4,-1
 428 1622 l 1,5,-1
 428 -403 l 1,0,-1
EndSplineSet
EndChar
StartChar: uni230A
Encoding: 8970 8970 186
Width: 577
GlyphClass: 2
Flags: W
Fore
150 -403 m 1,0,-1
 150 1622 l 1,1,-1
 248 1622 l 1,2,-1
 248 -360 l 1,3,-1
 504 -360 l 1,4,-1
 504 -403 l 1,5,-1
 150 -403 l 1,0,-1
EndSplineSet
EndChar
StartChar: uni230B
Encoding: 8971 8971 187
Width: 577
GlyphClass: 2
Flags: W
Fore
428 -403 m 1,0,-1
 74 -403 l 1,1,-1
 74 -360 l 1,2,-1
 330 -360 l 1,3,-1
 330 1622 l 1,4,-1
 428 1622 l 1,5,-1
 428 -403 l 1,0,-1
EndSplineSet
EndChar
StartChar: angleleft
Encoding: 9001 9001 188
Width: 686
GlyphClass: 2
Flags: W
Fore
86 592 m 1,0,-1
 578 1606 l 1,1,-1
 625 1581 l 1,2,-1
 145 592 l 1,3,-1
 625 -397 l 1,4,-1
 578 -422 l 1,5,-1
 86 592 l 1,0,-1
EndSplineSet
EndChar
StartChar: angleright
Encoding: 9002 9002 189
Width: 686
GlyphClass: 2
Flags: W
Fore
600 592 m 1,0,-1
 109 -422 l 1,1,-1
 59 -397 l 1,2,-1
 539 592 l 1,3,-1
 59 1581 l 1,4,-1
 109 1606 l 1,5,-1
 600 592 l 1,0,-1
EndSplineSet
EndChar
StartChar: uni2334
Encoding: 9012 9012 190
Width: 619
GlyphClass: 2
Flags: W
Fore
24 0 m 1,0,-1
 117 0 l 1,1,-1
 117 -106 l 1,2,-1
 525 -106 l 1,3,-1
 525 0 l 1,4,-1
 609 0 l 1,5,-1
 609 -171 l 1,6,-1
 24 -171 l 1,7,-1
 24 0 l 1,0,-1
EndSplineSet
EndChar
StartChar: uni2373
Encoding: 9075 9075 191
Width: 569
GlyphClass: 2
Flags: W
Fore
471 905 m 1,0,-1
 348 504 l 2,1,2
 254 192 254 192 254 119 c 0,3,4
 254 84 254 84 285 84 c 0,5,6
 335 84 335 84 436 227 c 1,7,-1
 471 205 l 1,8,9
 319 -25 319 -25 180 -25 c 0,10,11
 88 -25 88 -25 88 61 c 0,12,13
 88 184 88 184 181 416 c 0,14,15
 274 647 274 647 274 770 c 0,16,17
 274 821 274 821 209 821 c 0,18,19
 193 821 193 821 127 811 c 1,20,-1
 127 850 l 1,21,-1
 471 905 l 1,0,-1
EndSplineSet
EndChar
StartChar: uni2460
Encoding: 9312 9312 192
Width: 1826
GlyphClass: 2
Flags: W
Fore
172 740 m 0,0,1
 172 1046 172 1046 390 1264 c 0,2,3
 606 1480 606 1480 914 1480 c 0,4,5
 1220 1480 1220 1480 1436 1264 c 0,6,7
 1652 1045 1652 1045 1652 740 c 0,8,9
 1652 431 1652 431 1436 218 c 0,10,11
 1221 0 1221 0 914 0 c 0,12,13
 605 0 605 0 390 218 c 0,14,15
 172 430 172 430 172 740 c 0,0,1
272 740 m 0,16,17
 272 472 272 472 458 286 c 0,18,19
 649 98 649 98 914 98 c 0,20,21
 1178 98 1178 98 1366 286 c 0,22,23
 1554 471 1554 471 1554 740 c 0,24,25
 1554 1006 1554 1006 1366 1194 c 0,26,27
 1181 1382 1181 1382 914 1382 c 0,28,29
 646 1382 646 1382 458 1194 c 0,30,31
 272 1005 272 1005 272 740 c 0,16,17
864 270 m 1,32,-1
 864 1110 l 1,33,-1
 716 1110 l 1,34,-1
 716 1190 l 1,35,-1
 988 1212 l 1,36,-1
 988 270 l 1,37,-1
 864 270 l 1,32,-1
EndSplineSet
EndChar
StartChar: uni2461
Encoding: 9313 9313 193
Width: 1812
GlyphClass: 2
Flags: W
Fore
172 740 m 0,0,1
 172 1046 172 1046 390 1264 c 0,2,3
 606 1480 606 1480 914 1480 c 0,4,5
 1220 1480 1220 1480 1436 1264 c 0,6,7
 1652 1045 1652 1045 1652 740 c 0,8,9
 1652 431 1652 431 1436 218 c 0,10,11
 1221 0 1221 0 914 0 c 0,12,13
 605 0 605 0 390 218 c 0,14,15
 172 430 172 430 172 740 c 0,0,1
272 740 m 0,16,17
 272 472 272 472 458 286 c 0,18,19
 649 98 649 98 914 98 c 0,20,21
 1178 98 1178 98 1366 286 c 0,22,23
 1554 471 1554 471 1554 740 c 0,24,25
 1554 1006 1554 1006 1366 1194 c 0,26,27
 1181 1382 1181 1382 914 1382 c 0,28,29
 646 1382 646 1382 458 1194 c 0,30,31
 272 1005 272 1005 272 740 c 0,16,17
642 284 m 1,32,-1
 642 394 l 1,33,34
 692 516 692 516 860 668 c 2,35,-1
 932 734 l 2,36,37
 1070 857 1070 857 1070 978 c 0,38,39
 1070 1061 1070 1061 1024 1104 c 0,40,41
 982 1146 982 1146 892 1146 c 0,42,43
 796 1146 796 1146 666 1072 c 1,44,-1
 666 1182 l 1,45,46
 791 1240 791 1240 912 1240 c 0,47,48
 1043 1240 1043 1240 1122 1170 c 0,49,50
 1200 1098 1200 1098 1200 980 c 0,51,52
 1200 895 1200 895 1162 834 c 0,53,54
 1121 770 1121 770 1012 676 c 2,55,-1
 964 634 l 2,56,57
 817 511 817 511 792 394 c 1,58,-1
 1196 394 l 1,59,-1
 1196 284 l 1,60,-1
 642 284 l 1,32,-1
EndSplineSet
EndChar
StartChar: uni2462
Encoding: 9314 9314 194
Width: 1866
GlyphClass: 2
Flags: W
Fore
172 740 m 0,0,1
 172 1046 172 1046 390 1264 c 0,2,3
 606 1480 606 1480 914 1480 c 0,4,5
 1220 1480 1220 1480 1436 1264 c 0,6,7
 1652 1045 1652 1045 1652 740 c 0,8,9
 1652 431 1652 431 1436 218 c 0,10,11
 1221 0 1221 0 914 0 c 0,12,13
 605 0 605 0 390 218 c 0,14,15
 172 430 172 430 172 740 c 0,0,1
272 740 m 0,16,17
 272 472 272 472 458 286 c 0,18,19
 649 98 649 98 914 98 c 0,20,21
 1178 98 1178 98 1366 286 c 0,22,23
 1554 471 1554 471 1554 740 c 0,24,25
 1554 1006 1554 1006 1366 1194 c 0,26,27
 1181 1382 1181 1382 914 1382 c 0,28,29
 646 1382 646 1382 458 1194 c 0,30,31
 272 1005 272 1005 272 740 c 0,16,17
674 280 m 1,32,-1
 674 398 l 1,33,34
 809 344 809 344 884 344 c 0,35,36
 973 344 973 344 1028 396 c 0,37,38
 1086 448 1086 448 1086 530 c 0,39,40
 1086 631 1086 631 1016 680 c 0,41,42
 947 728 947 728 812 728 c 2,43,-1
 762 728 l 1,44,-1
 762 812 l 1,45,-1
 804 812 l 2,46,47
 937 812 937 812 1000 858 c 0,48,49
 1062 902 1062 902 1062 994 c 0,50,51
 1062 1066 1062 1066 1020 1102 c 0,52,53
 980 1136 980 1136 890 1136 c 0,54,55
 798 1136 798 1136 686 1086 c 1,56,-1
 686 1194 l 1,57,58
 797 1230 797 1230 902 1230 c 0,59,60
 1047 1230 1047 1230 1116 1178 c 0,61,62
 1188 1121 1188 1121 1188 1014 c 0,63,64
 1188 931 1188 931 1138 874 c 0,65,66
 1092 817 1092 817 994 780 c 1,67,68
 1107 752 1107 752 1162 692 c 0,69,70
 1218 633 1218 633 1218 532 c 0,71,72
 1218 399 1218 399 1130 326 c 0,73,74
 1047 252 1047 252 892 252 c 0,75,76
 811 252 811 252 674 280 c 1,32,-1
EndSplineSet
EndChar
StartChar: uni2463
Encoding: 9315 9315 195
Width: 1850
GlyphClass: 2
Flags: W
Fore
172 740 m 0,0,1
 172 1046 172 1046 390 1264 c 0,2,3
 606 1480 606 1480 914 1480 c 0,4,5
 1220 1480 1220 1480 1436 1264 c 0,6,7
 1652 1045 1652 1045 1652 740 c 0,8,9
 1652 431 1652 431 1436 218 c 0,10,11
 1221 0 1221 0 914 0 c 0,12,13
 605 0 605 0 390 218 c 0,14,15
 172 430 172 430 172 740 c 0,0,1
272 740 m 0,16,17
 272 472 272 472 458 286 c 0,18,19
 649 98 649 98 914 98 c 0,20,21
 1178 98 1178 98 1366 286 c 0,22,23
 1554 471 1554 471 1554 740 c 0,24,25
 1554 1006 1554 1006 1366 1194 c 0,26,27
 1181 1382 1181 1382 914 1382 c 0,28,29
 646 1382 646 1382 458 1194 c 0,30,31
 272 1005 272 1005 272 740 c 0,16,17
938 284 m 1,32,-1
 938 548 l 1,33,-1
 518 548 l 1,34,-1
 518 642 l 1,35,-1
 938 1216 l 1,36,-1
 1054 1216 l 1,37,-1
 1054 650 l 1,38,-1
 1180 650 l 1,39,-1
 1180 548 l 1,40,-1
 1054 548 l 1,41,-1
 1054 284 l 1,42,-1
 938 284 l 1,32,-1
638 650 m 1,43,-1
 946 650 l 1,44,-1
 946 1064 l 1,45,-1
 638 650 l 1,43,-1
EndSplineSet
EndChar
StartChar: uni2464
Encoding: 9316 9316 196
Width: 1806
GlyphClass: 2
Flags: W
Fore
172 740 m 0,0,1
 172 1046 172 1046 390 1264 c 0,2,3
 606 1480 606 1480 914 1480 c 0,4,5
 1220 1480 1220 1480 1436 1264 c 0,6,7
 1652 1045 1652 1045 1652 740 c 0,8,9
 1652 431 1652 431 1436 218 c 0,10,11
 1221 0 1221 0 914 0 c 0,12,13
 605 0 605 0 390 218 c 0,14,15
 172 430 172 430 172 740 c 0,0,1
272 740 m 0,16,17
 272 472 272 472 458 286 c 0,18,19
 649 98 649 98 914 98 c 0,20,21
 1178 98 1178 98 1366 286 c 0,22,23
 1554 471 1554 471 1554 740 c 0,24,25
 1554 1006 1554 1006 1366 1194 c 0,26,27
 1181 1382 1181 1382 914 1382 c 0,28,29
 646 1382 646 1382 458 1194 c 0,30,31
 272 1005 272 1005 272 740 c 0,16,17
682 268 m 1,32,-1
 682 378 l 1,33,34
 775 342 775 342 858 342 c 0,35,36
 958 342 958 342 1008 392 c 0,37,38
 1056 443 1056 443 1056 544 c 0,39,40
 1056 647 1056 647 986 702 c 0,41,42
 914 756 914 756 768 756 c 0,43,44
 734 756 734 756 698 750 c 1,45,-1
 698 1204 l 1,46,-1
 1172 1204 l 1,47,-1
 1172 1096 l 1,48,-1
 808 1096 l 1,49,-1
 808 850 l 1,50,51
 985 850 985 850 1088 768 c 0,52,53
 1190 684 1190 684 1190 538 c 0,54,55
 1190 400 1190 400 1098 326 c 0,56,57
 1005 248 1005 248 846 248 c 0,58,59
 765 248 765 248 682 268 c 1,32,-1
EndSplineSet
EndChar
StartChar: uni2465
Encoding: 9317 9317 197
Width: 1840
GlyphClass: 2
Flags: W
Fore
172 740 m 0,0,1
 172 1046 172 1046 390 1264 c 0,2,3
 606 1480 606 1480 914 1480 c 0,4,5
 1220 1480 1220 1480 1436 1264 c 0,6,7
 1652 1045 1652 1045 1652 740 c 0,8,9
 1652 431 1652 431 1436 218 c 0,10,11
 1221 0 1221 0 914 0 c 0,12,13
 605 0 605 0 390 218 c 0,14,15
 172 430 172 430 172 740 c 0,0,1
272 740 m 0,16,17
 272 472 272 472 458 286 c 0,18,19
 649 98 649 98 914 98 c 0,20,21
 1178 98 1178 98 1366 286 c 0,22,23
 1554 471 1554 471 1554 740 c 0,24,25
 1554 1006 1554 1006 1366 1194 c 0,26,27
 1181 1382 1181 1382 914 1382 c 0,28,29
 646 1382 646 1382 458 1194 c 0,30,31
 272 1005 272 1005 272 740 c 0,16,17
718 754 m 1,32,33
 764 813 764 813 820 842 c 0,34,35
 876 870 876 870 942 870 c 0,36,37
 1066 870 1066 870 1142 788 c 0,38,39
 1220 710 1220 710 1220 582 c 0,40,41
 1220 434 1220 434 1132 342 c 0,42,43
 1047 248 1047 248 912 248 c 0,44,45
 758 248 758 248 670 372 c 0,46,47
 584 497 584 497 584 716 c 0,48,49
 584 960 584 960 682 1094 c 0,50,51
 780 1228 780 1228 962 1228 c 0,52,53
 1056 1228 1056 1228 1172 1194 c 1,54,-1
 1172 1084 l 1,55,56
 1043 1134 1043 1134 954 1134 c 0,57,58
 838 1134 838 1134 778 1038 c 0,59,60
 718 945 718 945 718 754 c 1,32,33
1096 558 m 0,61,62
 1096 669 1096 669 1050 724 c 0,63,64
 1009 780 1009 780 918 780 c 0,65,66
 838 780 838 780 780 728 c 0,67,68
 724 672 724 672 724 600 c 0,69,70
 724 484 724 484 778 412 c 0,71,72
 833 342 833 342 920 342 c 0,73,74
 1007 342 1007 342 1052 396 c 0,75,76
 1096 446 1096 446 1096 558 c 0,61,62
EndSplineSet
EndChar
StartChar: uni2466
Encoding: 9318 9318 198
Width: 1802
GlyphClass: 2
Flags: W
Fore
172 740 m 0,0,1
 172 1046 172 1046 390 1264 c 0,2,3
 606 1480 606 1480 914 1480 c 0,4,5
 1220 1480 1220 1480 1436 1264 c 0,6,7
 1652 1045 1652 1045 1652 740 c 0,8,9
 1652 431 1652 431 1436 218 c 0,10,11
 1221 0 1221 0 914 0 c 0,12,13
 605 0 605 0 390 218 c 0,14,15
 172 430 172 430 172 740 c 0,0,1
272 740 m 0,16,17
 272 472 272 472 458 286 c 0,18,19
 649 98 649 98 914 98 c 0,20,21
 1178 98 1178 98 1366 286 c 0,22,23
 1554 471 1554 471 1554 740 c 0,24,25
 1554 1006 1554 1006 1366 1194 c 0,26,27
 1181 1382 1181 1382 914 1382 c 0,28,29
 646 1382 646 1382 458 1194 c 0,30,31
 272 1005 272 1005 272 740 c 0,16,17
686 234 m 1,32,33
 716 412 716 412 858 642 c 2,34,-1
 1112 1050 l 1,35,-1
 632 1050 l 1,36,-1
 632 1168 l 1,37,-1
 1230 1168 l 1,38,-1
 1230 1050 l 1,39,40
 872 520 872 520 830 234 c 1,41,-1
 686 234 l 1,32,33
EndSplineSet
EndChar
StartChar: uni2467
Encoding: 9319 9319 199
Width: 1786
GlyphClass: 2
Flags: W
Fore
172 740 m 0,0,1
 172 1046 172 1046 390 1264 c 0,2,3
 606 1480 606 1480 914 1480 c 0,4,5
 1220 1480 1220 1480 1436 1264 c 0,6,7
 1652 1045 1652 1045 1652 740 c 0,8,9
 1652 431 1652 431 1436 218 c 0,10,11
 1221 0 1221 0 914 0 c 0,12,13
 605 0 605 0 390 218 c 0,14,15
 172 430 172 430 172 740 c 0,0,1
272 740 m 0,16,17
 272 472 272 472 458 286 c 0,18,19
 649 98 649 98 914 98 c 0,20,21
 1178 98 1178 98 1366 286 c 0,22,23
 1554 471 1554 471 1554 740 c 0,24,25
 1554 1006 1554 1006 1366 1194 c 0,26,27
 1181 1382 1181 1382 914 1382 c 0,28,29
 646 1382 646 1382 458 1194 c 0,30,31
 272 1005 272 1005 272 740 c 0,16,17
776 778 m 1,32,33
 642 873 642 873 642 990 c 0,34,35
 642 1098 642 1098 718 1162 c 0,36,37
 797 1226 797 1226 922 1226 c 0,38,39
 1036 1226 1036 1226 1108 1172 c 0,40,41
 1180 1115 1180 1115 1180 1026 c 0,42,43
 1180 892 1180 892 1006 778 c 1,44,45
 1216 676 1216 676 1216 512 c 0,46,47
 1216 393 1216 393 1128 322 c 0,48,49
 1042 248 1042 248 902 248 c 0,50,51
 763 248 763 248 678 318 c 0,52,53
 592 386 592 386 592 502 c 0,54,55
 592 666 592 666 776 778 c 1,32,33
936 818 m 1,56,57
 1068 902 1068 902 1068 1010 c 0,58,59
 1068 1063 1068 1063 1022 1100 c 0,60,61
 979 1134 979 1134 910 1134 c 0,62,63
 842 1134 842 1134 796 1100 c 0,64,65
 754 1067 754 1067 754 1014 c 0,66,67
 754 919 754 919 936 818 c 1,56,57
846 730 m 1,68,69
 717 631 717 631 716 520 c 0,70,71
 716 442 716 442 768 392 c 0,72,73
 818 342 818 342 904 342 c 0,74,75
 984 342 984 342 1036 382 c 0,76,77
 1088 428 1088 428 1088 494 c 0,78,79
 1088 585 1088 585 934 676 c 2,80,-1
 846 730 l 1,68,69
EndSplineSet
EndChar
StartChar: uni2468
Encoding: 9320 9320 200
Width: 1792
GlyphClass: 2
Flags: W
Fore
172 740 m 0,0,1
 172 1046 172 1046 390 1264 c 0,2,3
 606 1480 606 1480 914 1480 c 0,4,5
 1220 1480 1220 1480 1436 1264 c 0,6,7
 1652 1045 1652 1045 1652 740 c 0,8,9
 1652 431 1652 431 1436 218 c 0,10,11
 1221 0 1221 0 914 0 c 0,12,13
 605 0 605 0 390 218 c 0,14,15
 172 430 172 430 172 740 c 0,0,1
272 740 m 0,16,17
 272 472 272 472 458 286 c 0,18,19
 649 98 649 98 914 98 c 0,20,21
 1178 98 1178 98 1366 286 c 0,22,23
 1554 471 1554 471 1554 740 c 0,24,25
 1554 1006 1554 1006 1366 1194 c 0,26,27
 1181 1382 1181 1382 914 1382 c 0,28,29
 646 1382 646 1382 458 1194 c 0,30,31
 272 1005 272 1005 272 740 c 0,16,17
656 276 m 1,32,-1
 656 382 l 1,33,34
 779 342 779 342 858 342 c 0,35,36
 983 342 983 342 1042 434 c 0,37,38
 1104 526 1104 526 1104 714 c 1,39,40
 1053 653 1053 653 1004 626 c 0,41,42
 948 598 948 598 888 598 c 0,43,44
 770 598 770 598 690 684 c 0,45,46
 608 772 608 772 608 898 c 0,47,48
 608 1040 608 1040 694 1132 c 0,49,50
 779 1226 779 1226 914 1226 c 0,51,52
 1066 1226 1066 1226 1156 1106 c 0,53,54
 1242 980 1242 980 1242 772 c 0,55,56
 1242 531 1242 531 1134 390 c 0,57,58
 1030 248 1030 248 846 248 c 0,59,60
 777 248 777 248 656 276 c 1,32,-1
732 916 m 0,61,62
 732 802 732 802 776 746 c 0,63,64
 821 686 821 686 912 686 c 0,65,66
 993 686 993 686 1046 742 c 0,67,68
 1102 792 1102 792 1102 870 c 0,69,70
 1102 991 1102 991 1048 1060 c 0,71,72
 998 1134 998 1134 908 1134 c 0,73,74
 818 1134 818 1134 776 1080 c 0,75,76
 732 1024 732 1024 732 916 c 0,61,62
EndSplineSet
EndChar
StartChar: uni2469
Encoding: 9321 9321 201
Width: 1816
GlyphClass: 3
Flags: W
Fore
172 740 m 0,0,1
 172 1046 172 1046 390 1264 c 0,2,3
 606 1480 606 1480 914 1480 c 0,4,5
 1220 1480 1220 1480 1436 1264 c 0,6,7
 1652 1045 1652 1045 1652 740 c 0,8,9
 1652 431 1652 431 1436 218 c 0,10,11
 1221 0 1221 0 914 0 c 0,12,13
 605 0 605 0 390 218 c 0,14,15
 172 430 172 430 172 740 c 0,0,1
272 740 m 0,16,17
 272 472 272 472 458 286 c 0,18,19
 649 98 649 98 914 98 c 0,20,21
 1178 98 1178 98 1366 286 c 0,22,23
 1554 471 1554 471 1554 740 c 0,24,25
 1554 1006 1554 1006 1366 1194 c 0,26,27
 1181 1382 1181 1382 914 1382 c 0,28,29
 646 1382 646 1382 458 1194 c 0,30,31
 272 1005 272 1005 272 740 c 0,16,17
604 270 m 1,32,-1
 604 1110 l 1,33,-1
 506 1110 l 1,34,-1
 506 1190 l 1,35,-1
 730 1212 l 1,36,-1
 730 270 l 1,37,-1
 604 270 l 1,32,-1
1110 248 m 0,38,39
 984 248 984 248 910 382 c 0,40,41
 834 514 834 514 834 738 c 0,42,43
 834 960 834 960 910 1092 c 0,44,45
 984 1226 984 1226 1110 1226 c 0,46,47
 1238 1226 1238 1226 1312 1092 c 0,48,49
 1388 960 1388 960 1388 738 c 0,50,51
 1388 514 1388 514 1312 382 c 0,52,53
 1238 248 1238 248 1110 248 c 0,38,39
1110 342 m 0,54,55
 1184 342 1184 342 1220 440 c 0,56,57
 1256 542 1256 542 1256 740 c 0,58,59
 1256 937 1256 937 1220 1036 c 0,60,61
 1184 1134 1184 1134 1110 1134 c 0,62,63
 1036 1134 1036 1134 1004 1034 c 0,64,65
 966 938 966 938 966 738 c 0,66,67
 966 539 966 539 1004 440 c 0,68,69
 1037 342 1037 342 1110 342 c 0,54,55
EndSplineSet
EndChar
StartChar: uni24EA
Encoding: 9450 9450 202
Width: 1826
GlyphClass: 2
Flags: W
Fore
172 740 m 0,0,1
 172 1046 172 1046 390 1264 c 0,2,3
 606 1480 606 1480 914 1480 c 0,4,5
 1220 1480 1220 1480 1436 1264 c 0,6,7
 1652 1045 1652 1045 1652 740 c 0,8,9
 1652 431 1652 431 1436 218 c 0,10,11
 1221 0 1221 0 914 0 c 0,12,13
 605 0 605 0 390 218 c 0,14,15
 172 430 172 430 172 740 c 0,0,1
272 740 m 0,16,17
 272 472 272 472 458 286 c 0,18,19
 649 98 649 98 914 98 c 0,20,21
 1178 98 1178 98 1366 286 c 0,22,23
 1554 471 1554 471 1554 740 c 0,24,25
 1554 1006 1554 1006 1366 1194 c 0,26,27
 1181 1382 1181 1382 914 1382 c 0,28,29
 646 1382 646 1382 458 1194 c 0,30,31
 272 1005 272 1005 272 740 c 0,16,17
914 252 m 0,32,33
 765 252 765 252 676 386 c 0,34,35
 588 523 588 523 588 742 c 0,36,37
 588 959 588 959 676 1096 c 0,38,39
 765 1230 765 1230 914 1230 c 0,40,41
 1061 1230 1061 1230 1150 1096 c 0,42,43
 1240 961 1240 961 1240 742 c 0,44,45
 1240 521 1240 521 1150 386 c 0,46,47
 1061 252 1061 252 914 252 c 0,32,33
914 344 m 0,48,49
 1013 344 1013 344 1058 444 c 0,50,51
 1108 541 1108 541 1108 742 c 0,52,53
 1108 941 1108 941 1058 1038 c 0,54,55
 1013 1136 1013 1136 914 1136 c 0,56,57
 816 1136 816 1136 768 1038 c 0,58,59
 718 935 718 935 718 742 c 0,60,61
 718 547 718 547 768 444 c 0,62,63
 816 344 816 344 914 344 c 0,48,49
EndSplineSet
EndChar
StartChar: SF100000
Encoding: 9472 9472 203
Width: 1628
GlyphClass: 2
Flags: W
Fore
221 543 m 1,0,-1
 221 641 l 1,1,-1
 1405 641 l 1,2,-1
 1405 543 l 1,3,-1
 221 543 l 1,0,-1
EndSplineSet
EndChar
StartChar: uni2501
Encoding: 9473 9473 204
Width: 681
GlyphClass: 2
Flags: W
Fore
66 502 m 1,0,-1
 66 682 l 1,1,-1
 618 682 l 1,2,-1
 618 502 l 1,3,-1
 66 502 l 1,0,-1
EndSplineSet
EndChar
StartChar: SF110000
Encoding: 9474 9474 205
Width: 741
GlyphClass: 2
Flags: W
Fore
391 993 m 1,0,-1
 494 993 l 1,1,-1
 494 0 l 1,2,-1
 391 0 l 1,3,-1
 391 993 l 1,0,-1
EndSplineSet
EndChar
StartChar: uni2503
Encoding: 9475 9475 206
Width: 567
GlyphClass: 2
Flags: W
Fore
508 1458 m 1,0,-1
 508 0 l 1,1,-1
 59 0 l 1,2,-1
 59 1458 l 1,3,-1
 508 1458 l 1,0,-1
EndSplineSet
EndChar
StartChar: filledbox
Encoding: 9632 9632 207
Width: 1531
GlyphClass: 2
Flags: W
Fore
174 147 m 5,0,-1
 174 1331 l 1,1,-1
 1358 1331 l 1,2,-1
 1358 147 l 1,3,-1
 174 147 l 5,0,-1
EndSplineSet
EndChar
StartChar: H22073
Encoding: 9633 9633 208
Width: 1826
GlyphClass: 2
Flags: W
Fore
371 197 m 1,0,-1
 1456 197 l 1,1,-1
 1456 1284 l 1,2,-1
 371 1284 l 1,3,-1
 371 197 l 1,0,-1
174 0 m 1,4,-1
 174 1483 l 1,5,-1
 1653 1483 l 1,6,-1
 1653 0 l 1,7,-1
 174 0 l 1,4,-1
EndSplineSet
EndChar
StartChar: triagup
Encoding: 9650 9650 209
Width: 1903
GlyphClass: 2
Flags: W
Fore
80 0 m 1,0,-1
 898 1485 l 1,1,-1
 1790 0 l 1,2,-1
 80 0 l 1,0,-1
EndSplineSet
EndChar
StartChar: uni25B3
Encoding: 9651 9651 210
Width: 1903
GlyphClass: 2
Flags: W
Fore
80 0 m 1,0,-1
 898 1485 l 1,1,-1
 1790 0 l 1,2,-1
 80 0 l 1,0,-1
249 100 m 1,3,-1
 1613 100 l 1,4,-1
 902 1285 l 1,5,-1
 249 100 l 1,3,-1
EndSplineSet
EndChar
StartChar: uni25B4
Encoding: 9652 9652 211
Width: 1351
GlyphClass: 2
Flags: W
Fore
1178 193 m 1,0,-1
 176 193 l 1,1,-1
 684 1192 l 1,2,-1
 1178 193 l 1,0,-1
EndSplineSet
EndChar
StartChar: uni25B5
Encoding: 9653 9653 212
Width: 1351
GlyphClass: 2
Flags: W
Fore
1178 193 m 1,0,-1
 176 193 l 1,1,-1
 684 1192 l 1,2,-1
 1178 193 l 1,0,-1
1079 260 m 1,3,-1
 684 1061 l 1,4,-1
 279 260 l 1,5,-1
 1079 260 l 1,3,-1
EndSplineSet
EndChar
StartChar: uni25B6
Encoding: 9654 9654 213
Width: 1903
GlyphClass: 2
Flags: W
Fore
192 1598 m 1,0,-1
 1678 780 l 1,1,-1
 192 -112 l 1,2,-1
 192 1598 l 1,0,-1
EndSplineSet
EndChar
StartChar: uni25B7
Encoding: 9655 9655 214
Width: 1903
GlyphClass: 2
Flags: W
Fore
192 1598 m 1,0,-1
 1678 780 l 1,1,-1
 192 -112 l 1,2,-1
 192 1598 l 1,0,-1
292 1428 m 1,3,-1
 292 64 l 1,4,-1
 1477 776 l 1,5,-1
 292 1428 l 1,3,-1
EndSplineSet
EndChar
StartChar: uni25B8
Encoding: 9656 9656 215
Width: 1351
GlyphClass: 2
Flags: W
Fore
178 192 m 1,0,-1
 178 1194 l 1,1,-1
 1176 686 l 1,2,-1
 178 192 l 1,0,-1
EndSplineSet
EndChar
StartChar: uni25B9
Encoding: 9657 9657 216
Width: 1351
GlyphClass: 2
Flags: W
Fore
178 192 m 1,0,-1
 178 1194 l 1,1,-1
 1176 686 l 1,2,-1
 178 192 l 1,0,-1
244 290 m 1,3,-1
 1046 686 l 1,4,-1
 244 1090 l 1,5,-1
 244 290 l 1,3,-1
EndSplineSet
EndChar
StartChar: triagrt
Encoding: 9658 9658 217
Width: 1670
GlyphClass: 2
Flags: W
Fore
178 192 m 1,0,-1
 178 1194 l 1,1,-1
 1496 686 l 1,2,-1
 178 192 l 1,0,-1
EndSplineSet
EndChar
StartChar: uni25BB
Encoding: 9659 9659 218
Width: 1670
GlyphClass: 2
Flags: W
Fore
178 192 m 1,0,-1
 178 1194 l 1,1,-1
 1496 686 l 1,2,-1
 178 192 l 1,0,-1
244 290 m 1,3,-1
 1364 686 l 1,4,-1
 244 1090 l 1,5,-1
 244 290 l 1,3,-1
EndSplineSet
EndChar
StartChar: triagdn
Encoding: 9660 9660 219
Width: 1903
GlyphClass: 2
Flags: W
Fore
1790 1485 m 1,0,-1
 972 0 l 1,1,-1
 80 1485 l 1,2,-1
 1790 1485 l 1,0,-1
EndSplineSet
EndChar
StartChar: uni25BD
Encoding: 9661 9661 220
Width: 1903
GlyphClass: 2
Flags: W
Fore
1790 1485 m 1,0,-1
 972 0 l 1,1,-1
 80 1485 l 1,2,-1
 1790 1485 l 1,0,-1
1621 1385 m 1,3,-1
 257 1385 l 1,4,-1
 968 200 l 1,5,-1
 1621 1385 l 1,3,-1
EndSplineSet
EndChar
StartChar: uni25BE
Encoding: 9662 9662 221
Width: 1351
GlyphClass: 2
Flags: W
Fore
1178 1192 m 1,0,-1
 684 193 l 1,1,-1
 176 1192 l 1,2,-1
 1178 1192 l 1,0,-1
EndSplineSet
EndChar
StartChar: uni25BF
Encoding: 9663 9663 222
Width: 1351
GlyphClass: 2
Flags: W
Fore
1178 1192 m 1,0,-1
 684 193 l 1,1,-1
 176 1192 l 1,2,-1
 1178 1192 l 1,0,-1
1087 1130 m 1,3,-1
 285 1130 l 1,4,-1
 692 332 l 1,5,-1
 1087 1130 l 1,3,-1
EndSplineSet
EndChar
StartChar: uni25C0
Encoding: 9664 9664 223
Width: 1903
GlyphClass: 2
Flags: W
Fore
1678 -112 m 1,0,-1
 192 706 l 1,1,-1
 1678 1598 l 1,2,-1
 1678 -112 l 1,0,-1
EndSplineSet
EndChar
StartChar: uni25C1
Encoding: 9665 9665 224
Width: 1903
GlyphClass: 2
Flags: W
Fore
1678 -112 m 1,0,-1
 192 706 l 1,1,-1
 1678 1598 l 1,2,-1
 1678 -112 l 1,0,-1
1578 57 m 1,3,-1
 1578 1421 l 1,4,-1
 393 709 l 1,5,-1
 1578 57 l 1,3,-1
EndSplineSet
EndChar
StartChar: uni25C2
Encoding: 9666 9666 225
Width: 1351
GlyphClass: 2
Flags: W
Fore
1176 1194 m 1,0,-1
 1176 192 l 1,1,-1
 178 700 l 1,2,-1
 1176 1194 l 1,0,-1
EndSplineSet
EndChar
StartChar: uni25C3
Encoding: 9667 9667 226
Width: 1351
GlyphClass: 2
Flags: W
Fore
1176 1194 m 1,0,-1
 1176 192 l 1,1,-1
 178 700 l 1,2,-1
 1176 1194 l 1,0,-1
1110 1094 m 1,3,-1
 308 700 l 1,4,-1
 1110 294 l 1,5,-1
 1110 1094 l 1,3,-1
EndSplineSet
EndChar
StartChar: triaglf
Encoding: 9668 9668 227
Width: 1670
GlyphClass: 2
Flags: W
Fore
1496 1194 m 1,0,-1
 1496 192 l 1,1,-1
 178 700 l 1,2,-1
 1496 1194 l 1,0,-1
EndSplineSet
EndChar
StartChar: uni25C5
Encoding: 9669 9669 228
Width: 1670
GlyphClass: 2
Flags: W
Fore
1496 1194 m 1,0,-1
 1496 192 l 1,1,-1
 178 700 l 1,2,-1
 1496 1194 l 1,0,-1
1428 1094 m 1,3,-1
 308 700 l 1,4,-1
 1428 294 l 1,5,-1
 1428 1094 l 1,3,-1
EndSplineSet
EndChar
StartChar: H18533
Encoding: 9679 9679 229
Width: 1628
GlyphClass: 2
Flags: W
Fore
813 0 m 4,0,1
 542 0 542 0 383 161 c 4,2,3
 223 321 223 321 223 592 c 132,-1,4
 223 863 223 863 383 1023 c 4,5,6
 542 1184 542 1184 813 1184 c 4,7,8
 1082 1184 1082 1184 1245 1023 c 4,9,10
 1407 862 1407 862 1407 592 c 132,-1,11
 1407 322 1407 322 1245 161 c 4,12,13
 1082 0 1082 0 813 0 c 4,0,1
EndSplineSet
EndChar
StartChar: uni25D7
Encoding: 9687 9687 230
Width: 897
GlyphClass: 2
Flags: W
Fore
59 1489 m 1,0,1
 383 1489 383 1489 610 1271 c 0,2,3
 838 1052 838 1052 838 729 c 0,4,5
 838 400 838 400 614 188 c 0,6,7
 392 -25 392 -25 59 -31 c 1,8,-1
 59 1489 l 1,0,1
EndSplineSet
EndChar
StartChar: uni260E
Encoding: 9742 9742 231
Width: 2154
GlyphClass: 2
Flags: W
Fore
2056 1106 m 1,0,1
 2056 1013 2056 1013 1989 985 c 0,2,3
 1950 967 1950 967 1843 967 c 0,4,5
 1720 967 1720 967 1669 987 c 0,6,7
 1585 1020 1585 1020 1579 1120 c 1,8,9
 1724 1096 1724 1096 1871 1097 c 0,10,11
 1963 1097 1963 1097 2056 1106 c 1,0,1
2056 1155 m 1,12,13
 1986 1145 1986 1145 1919 1145 c 0,14,15
 1890 1145 1890 1145 1554 1171 c 1,16,17
 1542 1268 1542 1268 1409 1292 c 1,18,-1
 1413 1149 l 1,19,20
 1540 1026 1540 1026 1647 735 c 0,21,22
 1751 453 1751 453 1751 266 c 0,23,24
 1751 86 1751 86 1683 86 c 2,25,-1
 479 86 l 2,26,27
 393 86 393 86 393 236 c 0,28,29
 393 422 393 422 500 719 c 0,30,31
 612 1027 612 1027 737 1149 c 1,32,-1
 737 1292 l 1,33,34
 607 1269 607 1269 594 1171 c 1,35,36
 481 1145 481 1145 291 1145 c 0,37,38
 159 1145 159 1145 92 1155 c 1,39,40
 103 1439 103 1439 266 1542 c 0,41,42
 375 1612 375 1612 657 1651 c 0,43,44
 869 1679 869 1679 1075 1679 c 0,45,46
 1660 1679 1660 1679 1882 1542 c 0,47,48
 2050 1440 2050 1440 2056 1155 c 1,12,13
1339 1307 m 1,49,50
 1192 1348 1192 1348 1071 1348 c 0,51,52
 956 1348 956 1348 803 1307 c 1,53,-1
 852 1184 l 1,54,-1
 1292 1184 l 1,55,-1
 1339 1307 l 1,49,50
1405 707 m 0,56,57
 1405 824 1405 824 1294 893 c 0,58,59
 1203 952 1203 952 1075 952 c 0,60,61
 951 952 951 952 856 891 c 0,62,63
 743 820 743 820 743 707 c 0,64,65
 743 591 743 591 856 520 c 0,66,67
 951 459 951 459 1075 459 c 128,-1,68
 1199 459 1199 459 1294 520 c 0,69,70
 1405 590 1405 590 1405 707 c 0,56,57
1571 231 m 1,71,-1
 1591 252 l 1,72,-1
 1571 272 l 1,73,-1
 584 272 l 1,74,-1
 563 252 l 1,75,-1
 584 231 l 1,76,-1
 1571 231 l 1,71,-1
1354 801 m 0,77,78
 1354 754 1354 754 1305 754 c 0,79,80
 1253 754 1253 754 1253 801 c 0,81,82
 1253 850 1253 850 1305 850 c 0,83,84
 1354 850 1354 850 1354 801 c 0,77,78
1249 872 m 0,85,86
 1249 823 1249 823 1198 823 c 0,87,88
 1149 823 1149 823 1149 872 c 0,89,90
 1149 920 1149 920 1198 920 c 0,91,92
 1249 920 1249 920 1249 872 c 0,85,86
1386 684 m 0,93,94
 1386 635 1386 635 1335 635 c 0,95,96
 1286 635 1286 635 1286 684 c 0,97,98
 1286 731 1286 731 1335 731 c 0,99,100
 1386 731 1386 731 1386 684 c 0,93,94
1096 893 m 0,101,102
 1096 844 1096 844 1044 844 c 0,103,104
 995 844 995 844 995 893 c 0,105,106
 995 940 995 940 1044 940 c 0,107,108
 1096 940 1096 940 1096 893 c 0,101,102
1317 573 m 0,109,110
 1317 524 1317 524 1266 524 c 0,111,112
 1217 524 1217 524 1217 573 c 0,113,114
 1217 621 1217 621 1266 621 c 0,115,116
 1317 621 1317 621 1317 573 c 0,109,110
1280 709 m 0,117,118
 1280 645 1280 645 1206 598 c 0,119,120
 1142 559 1142 559 1071 559 c 0,121,122
 1001 559 1001 559 940 598 c 0,123,124
 868 643 868 643 868 709 c 0,125,126
 868 774 868 774 946 811 c 0,127,128
 1009 840 1009 840 1079 840 c 0,129,130
 1149 840 1149 840 1208 809 c 0,131,132
 1280 774 1280 774 1280 709 c 0,117,118
954 844 m 0,133,134
 954 797 954 797 905 797 c 0,135,136
 854 797 854 797 854 844 c 0,137,138
 854 893 854 893 905 893 c 0,139,140
 954 893 954 893 954 844 c 0,133,134
1192 516 m 0,141,142
 1192 467 1192 467 1141 467 c 0,143,144
 1092 467 1092 467 1092 516 c 0,145,146
 1092 563 1092 563 1141 563 c 0,147,148
 1192 563 1192 563 1192 516 c 0,141,142
868 741 m 0,149,150
 868 694 868 694 819 694 c 0,151,152
 768 694 768 694 768 741 c 0,153,154
 768 791 768 791 819 791 c 0,155,156
 868 791 868 791 868 741 c 0,149,150
1030 524 m 0,157,158
 1030 477 1030 477 981 477 c 0,159,160
 930 477 930 477 930 524 c 0,161,162
 930 573 930 573 981 573 c 0,163,164
 1030 573 1030 573 1030 524 c 0,157,158
897 596 m 0,165,166
 897 549 897 549 848 549 c 0,167,168
 797 549 797 549 797 596 c 0,169,170
 797 645 797 645 848 645 c 0,171,172
 897 645 897 645 897 596 c 0,165,166
571 1120 m 1,173,174
 565 1020 565 1020 469 985 c 0,175,176
 415 967 415 967 289 967 c 0,177,178
 194 967 194 967 154 989 c 0,179,180
 94 1020 94 1020 94 1106 c 1,181,182
 173 1098 173 1098 256 1098 c 0,183,184
 417 1098 417 1098 571 1120 c 1,173,174
EndSplineSet
EndChar
StartChar: uni2611
Encoding: 9745 9745 232
Width: 1826
GlyphClass: 2
Flags: W
Fore
1653 0 m 1,0,-1
 174 0 l 1,1,-1
 174 1483 l 1,2,-1
 1599 1483 l 1,3,-1
 1733 1561 l 1,4,-1
 1767 1509 l 1,5,6
 1728 1485 1728 1485 1653 1415 c 1,7,-1
 1653 0 l 1,0,-1
1505 1270 m 1,8,9
 1113 841 1113 841 901 397 c 1,10,-1
 702 252 l 1,11,12
 567 696 567 696 391 768 c 1,13,14
 492 883 492 883 590 883 c 0,15,16
 675 883 675 883 791 602 c 1,17,18
 976 914 976 914 1409 1335 c 1,19,-1
 322 1335 l 1,20,-1
 322 147 l 1,21,-1
 1505 147 l 1,22,-1
 1505 1270 l 1,8,9
EndSplineSet
EndChar
StartChar: uni2612
Encoding: 9746 9746 233
Width: 1826
GlyphClass: 2
Flags: W
Fore
322 147 m 1,0,-1
 1505 147 l 1,1,-1
 1505 1335 l 1,2,-1
 322 1335 l 1,3,-1
 322 147 l 1,0,-1
174 0 m 1,4,-1
 174 1483 l 1,5,-1
 1653 1483 l 1,6,-1
 1653 0 l 1,7,-1
 174 0 l 1,4,-1
907 551 m 1,8,9
 732 295 732 295 637 295 c 0,10,11
 518 295 518 295 410 481 c 1,12,-1
 446 479 l 1,13,-1
 486 480 l 2,14,15
 559 490 559 490 625 555 c 0,16,17
 655 583 655 583 752 715 c 1,18,19
 567 906 567 906 567 1018 c 0,20,21
 567 1110 567 1110 729 1227 c 1,22,23
 753 1066 753 1066 897 887 c 1,24,25
 1089 1130 1089 1130 1225 1130 c 0,26,27
 1332 1130 1332 1130 1384 971 c 1,28,-1
 1352 973 l 1,29,-1
 1312 972 l 2,30,31
 1236 961 1236 961 1171 891 c 0,32,33
 1170 889 1170 889 1049 721 c 1,34,35
 1242 537 1242 537 1413 537 c 1,36,37
 1323 346 1323 346 1219 346 c 0,38,39
 1128 346 1128 346 907 551 c 1,8,9
EndSplineSet
EndChar
StartChar: uni261B
Encoding: 9755 9755 234
Width: 1581
GlyphClass: 2
Flags: W
Fore
174 221 m 0,0,1
 106 221 106 221 76 340 c 0,2,3
 53 421 53 421 53 518 c 0,4,5
 53 606 53 606 84 700 c 0,6,7
 123 827 123 827 186 827 c 0,8,9
 217 827 217 827 231 801 c 1,10,11
 164 795 164 795 129 680 c 0,12,13
 106 599 106 599 106 504 c 0,14,15
 106 254 106 254 219 254 c 1,16,17
 208 221 208 221 174 221 c 0,0,1
653 182 m 0,18,19
 572 182 572 182 387 279 c 1,20,-1
 231 291 l 1,21,22
 156 338 156 338 156 535 c 0,23,24
 156 642 156 642 180 686 c 0,25,26
 201 721 201 721 258 739 c 2,27,-1
 395 784 l 1,28,-1
 717 913 l 1,29,30
 890 912 890 912 1153 856 c 0,31,32
 1493 784 1493 784 1493 684 c 0,33,34
 1493 657 1493 657 1452 639 c 0,35,36
 1420 623 1420 623 1389 623 c 0,37,38
 1313 623 1313 623 1044 670 c 1,39,40
 1110 631 1110 631 1110 571 c 0,41,42
 1110 493 1110 493 1016 481 c 1,43,44
 1057 464 1057 464 1057 412 c 0,45,46
 1057 354 1057 354 995 330 c 1,47,-1
 1001 301 l 2,48,49
 1001 182 1001 182 653 182 c 0,18,19
EndSplineSet
EndChar
StartChar: uni261E
Encoding: 9758 9758 235
Width: 2037
GlyphClass: 2
Flags: W
Fore
1952 952 m 1,0,-1
 1872 877 l 1,1,2
 1693 883 1693 883 1440 905 c 1,3,-1
 1317 840 l 1,4,-1
 1409 741 l 1,5,-1
 1479 565 l 1,6,-1
 1430 475 l 1,7,-1
 1382 457 l 1,8,-1
 1368 383 l 1,9,-1
 1274 332 l 1,10,-1
 1257 276 l 1,11,-1
 1159 223 l 1,12,-1
 1001 279 l 1,13,14
 840 270 840 270 821 270 c 0,15,16
 693 270 693 270 539 362 c 1,17,-1
 518 229 l 1,18,-1
 174 244 l 1,19,-1
 154 909 l 1,20,-1
 508 963 l 1,21,-1
 514 907 l 1,22,-1
 750 1030 l 2,23,24
 770 1040 770 1040 1056 1087 c 0,25,26
 1341 1135 1341 1135 1382 1135 c 0,27,28
 1716 1135 1716 1135 1946 1004 c 1,29,-1
 1952 952 l 1,0,-1
1909 975 m 1,30,31
 1679 1085 1679 1085 1405 1085 c 0,32,33
 1148 1085 1148 1085 952 1034 c 0,34,35
 743 978 743 978 539 848 c 1,36,-1
 524 846 l 1,37,38
 569 622 569 622 569 565 c 0,39,40
 569 537 569 537 553 418 c 1,41,-1
 580 428 l 1,42,-1
 633 373 l 1,43,44
 761 315 761 315 907 315 c 0,45,46
 960 315 960 315 1006 326 c 1,47,-1
 1157 270 l 1,48,-1
 1217 309 l 1,49,-1
 1241 356 l 1,50,51
 1147 424 1147 424 1032 469 c 1,52,-1
 1051 512 l 1,53,54
 1177 472 1177 472 1284 381 c 1,55,-1
 1339 430 l 1,56,-1
 1323 492 l 1,57,-1
 1210 616 l 1,58,-1
 1116 651 l 1,59,-1
 1135 696 l 1,60,-1
 1243 647 l 1,61,-1
 1370 494 l 1,62,-1
 1425 571 l 1,63,-1
 1352 737 l 1,64,-1
 1210 870 l 1,65,-1
 1247 901 l 1,66,-1
 1276 870 l 1,67,-1
 1438 952 l 1,68,-1
 1860 909 l 1,69,-1
 1909 975 l 1,30,31
262 401 m 1,70,-1
 262 307 l 1,71,-1
 455 307 l 1,72,-1
 455 401 l 1,73,-1
 262 401 l 1,70,-1
EndSplineSet
EndChar
StartChar: uni2639
Encoding: 9785 9785 236
Width: 1728
GlyphClass: 2
Flags: W
Fore
864 -33 m 0,0,1
 524 -33 524 -33 307 184 c 0,2,3
 90 400 90 400 90 741 c 0,4,5
 90 1083 90 1083 306 1299 c 0,6,7
 523 1516 523 1516 864 1516 c 128,-1,8
 1205 1516 1205 1516 1422 1299 c 0,9,10
 1638 1083 1638 1083 1638 741 c 0,11,12
 1638 400 1638 400 1421 184 c 0,13,14
 1206 -33 1206 -33 864 -33 c 0,0,1
864 66 m 0,15,16
 1164 66 1164 66 1352 254 c 0,17,18
 1540 444 1540 444 1540 741 c 0,19,20
 1540 1039 1540 1039 1352 1229 c 0,21,22
 1162 1417 1162 1417 864 1417 c 0,23,24
 569 1417 569 1417 379 1227 c 0,25,26
 188 1036 188 1036 188 741 c 0,27,28
 188 447 188 447 379 256 c 0,29,30
 569 66 569 66 864 66 c 0,15,16
408 254 m 1,31,32
 428 455 428 455 546 575 c 0,33,34
 663 696 663 696 862 696 c 0,35,36
 1061 696 1061 696 1182 571 c 0,37,38
 1297 454 1297 454 1321 254 c 1,39,-1
 1257 254 l 1,40,41
 1190 573 1190 573 862 573 c 0,42,43
 536 573 536 573 469 254 c 1,44,-1
 408 254 l 1,31,32
614 868 m 0,45,46
 567 868 567 868 528 905 c 0,47,48
 492 942 492 942 492 991 c 0,49,50
 492 1041 492 1041 528 1077 c 0,51,52
 565 1114 565 1114 614 1114 c 0,53,54
 664 1114 664 1114 700 1077 c 0,55,56
 737 1041 737 1041 737 991 c 0,57,58
 737 940 737 940 701 904 c 0,59,60
 666 868 666 868 614 868 c 0,45,46
1110 868 m 0,61,62
 1062 868 1062 868 1023 905 c 0,63,64
 985 943 985 943 985 991 c 0,65,66
 985 1042 985 1042 1022 1078 c 0,67,68
 1060 1114 1060 1114 1110 1114 c 0,69,70
 1161 1114 1161 1114 1197 1078 c 128,-1,71
 1233 1042 1233 1042 1233 991 c 0,72,73
 1233 942 1233 942 1196 905 c 0,74,75
 1157 868 1157 868 1110 868 c 0,61,62
EndSplineSet
EndChar
StartChar: smileface
Encoding: 9786 9786 237
Width: 1728
GlyphClass: 2
Flags: W
Fore
864 -33 m 0,0,1
 524 -33 524 -33 307 184 c 0,2,3
 90 400 90 400 90 741 c 0,4,5
 90 1083 90 1083 306 1299 c 0,6,7
 523 1516 523 1516 864 1516 c 128,-1,8
 1205 1516 1205 1516 1422 1299 c 0,9,10
 1638 1083 1638 1083 1638 741 c 0,11,12
 1638 400 1638 400 1421 184 c 0,13,14
 1206 -33 1206 -33 864 -33 c 0,0,1
864 66 m 0,15,16
 1164 66 1164 66 1352 254 c 0,17,18
 1540 444 1540 444 1540 741 c 0,19,20
 1540 1039 1540 1039 1352 1229 c 0,21,22
 1162 1417 1162 1417 864 1417 c 0,23,24
 569 1417 569 1417 379 1227 c 0,25,26
 188 1036 188 1036 188 741 c 0,27,28
 188 447 188 447 379 256 c 0,29,30
 569 66 569 66 864 66 c 0,15,16
408 696 m 1,31,-1
 469 696 l 1,32,33
 536 377 536 377 862 377 c 0,34,35
 1190 377 1190 377 1257 696 c 1,36,-1
 1321 696 l 1,37,38
 1297 497 1297 497 1182 379 c 0,39,40
 1060 254 1060 254 862 254 c 0,41,42
 666 254 666 254 543 379 c 0,43,44
 428 497 428 497 408 696 c 1,31,-1
614 868 m 0,45,46
 567 868 567 868 528 905 c 0,47,48
 492 942 492 942 492 991 c 0,49,50
 492 1041 492 1041 528 1077 c 0,51,52
 565 1114 565 1114 614 1114 c 0,53,54
 664 1114 664 1114 700 1077 c 0,55,56
 737 1041 737 1041 737 991 c 0,57,58
 737 940 737 940 701 904 c 0,59,60
 666 868 666 868 614 868 c 0,45,46
1110 868 m 0,61,62
 1062 868 1062 868 1023 905 c 0,63,64
 985 943 985 943 985 991 c 0,65,66
 985 1042 985 1042 1022 1078 c 0,67,68
 1060 1114 1060 1114 1110 1114 c 0,69,70
 1161 1114 1161 1114 1197 1078 c 128,-1,71
 1233 1042 1233 1042 1233 991 c 0,72,73
 1233 942 1233 942 1196 905 c 0,74,75
 1157 868 1157 868 1110 868 c 0,61,62
EndSplineSet
EndChar
StartChar: sun
Encoding: 9788 9788 238
Width: 1752
GlyphClass: 2
Flags: W
Fore
894 1010 m 0,0,1
 618 1010 618 1010 618 734 c 0,2,3
 618 454 618 454 894 454 c 0,4,5
 1174 454 1174 454 1174 734 c 0,6,7
 1174 1010 1174 1010 894 1010 c 0,0,1
168 730 m 1,8,-1
 536 824 l 1,9,-1
 290 1098 l 1,10,-1
 626 1026 l 1,11,-1
 550 1374 l 1,12,-1
 798 1098 l 1,13,-1
 890 1454 l 1,14,-1
 998 1098 l 1,15,-1
 1272 1360 l 1,16,-1
 1166 1008 l 1,17,-1
 1536 1098 l 1,18,-1
 1258 836 l 1,19,-1
 1628 730 l 1,20,-1
 1258 624 l 1,21,-1
 1536 376 l 1,22,-1
 1182 452 l 1,23,-1
 1288 100 l 1,24,-1
 998 376 l 1,25,-1
 890 12 l 1,26,-1
 798 376 l 1,27,-1
 536 100 l 1,28,-1
 626 452 l 1,29,-1
 274 362 l 1,30,-1
 536 624 l 1,31,-1
 168 730 l 1,8,-1
EndSplineSet
EndChar
StartChar: spade
Encoding: 9824 9824 239
Width: 1282
GlyphClass: 2
Flags: W
Fore
621 1444 m 1,0,-1
 662 1444 l 1,1,2
 694 1415 694 1415 729 1362 c 0,3,4
 765 1300 765 1300 784 1270 c 0,5,6
 839 1191 839 1191 981 1071 c 0,7,8
 1129 945 1129 945 1186 877 c 0,9,10
 1280 757 1280 757 1280 621 c 0,11,12
 1280 504 1280 504 1204 422 c 0,13,14
 1129 340 1129 340 1014 340 c 0,15,16
 864 340 864 340 731 518 c 1,17,18
 757 205 757 205 883 0 c 1,19,-1
 399 0 l 1,20,21
 527 208 527 208 551 518 c 1,22,23
 418 340 418 340 268 340 c 0,24,25
 149 340 149 340 76 422 c 0,26,27
 2 502 2 502 2 621 c 0,28,29
 2 753 2 753 96 872 c 0,30,31
 151 946 151 946 299 1073 c 0,32,33
 451 1205 451 1205 498 1270 c 2,34,-1
 621 1444 l 1,0,-1
EndSplineSet
EndChar
StartChar: club
Encoding: 9827 9827 240
Width: 1589
GlyphClass: 2
Flags: W
Fore
530 956 m 1,0,1
 465 1063 465 1063 465 1147 c 0,2,3
 465 1274 465 1274 567 1362 c 0,4,5
 665 1444 665 1444 795 1444 c 0,6,7
 926 1444 926 1444 1025 1360 c 128,-1,8
 1124 1276 1124 1276 1124 1147 c 0,9,10
 1124 1058 1124 1058 1059 956 c 1,11,12
 1131 981 1131 981 1192 981 c 0,13,14
 1331 981 1331 981 1424 891 c 0,15,16
 1518 801 1518 801 1518 662 c 0,17,18
 1518 528 1518 528 1424 434 c 0,19,20
 1331 340 1331 340 1198 340 c 0,21,22
 1028 340 1028 340 887 532 c 1,23,24
 922 179 922 179 1032 0 c 1,25,-1
 555 0 l 1,26,27
 666 180 666 180 702 532 c 1,28,29
 561 340 561 340 389 340 c 0,30,31
 255 340 255 340 164 434 c 0,32,33
 72 527 72 527 72 662 c 0,34,35
 72 801 72 801 166 891 c 0,36,37
 260 981 260 981 399 981 c 0,38,39
 458 981 458 981 530 956 c 1,0,1
EndSplineSet
EndChar
StartChar: heart
Encoding: 9829 9829 241
Width: 1421
GlyphClass: 2
Flags: W
Fore
711 1139 m 1,0,1
 795 1444 795 1444 1024 1444 c 0,2,3
 1164 1444 1164 1444 1264 1353 c 0,4,5
 1362 1261 1362 1261 1362 1120 c 0,6,7
 1362 950 1362 950 1233 739 c 0,8,9
 1207 696 1207 696 991 406 c 0,10,11
 959 360 959 360 860 199 c 0,12,13
 782 70 782 70 717 0 c 1,14,-1
 705 0 l 1,15,16
 662 39 662 39 627 111 c 2,17,-1
 569 236 l 2,18,19
 518 338 518 338 375 514 c 0,20,21
 210 714 210 714 160 797 c 0,22,23
 59 963 59 963 59 1110 c 0,24,25
 59 1256 59 1256 155 1350 c 0,26,27
 251 1444 251 1444 395 1444 c 0,28,29
 627 1444 627 1444 711 1139 c 1,0,1
EndSplineSet
EndChar
StartChar: diamond
Encoding: 9830 9830 242
Width: 1179
GlyphClass: 2
Flags: W
Fore
580 1141 m 1,0,-1
 1163 571 l 1,1,-1
 580 0 l 1,2,-1
 -4 571 l 1,3,-1
 580 1141 l 1,0,-1
EndSplineSet
EndChar
StartChar: uni2702
Encoding: 9986 9986 243
Width: 1968
GlyphClass: 2
Flags: W
Fore
764 778 m 1,0,-1
 1030 991 l 2,1,2
 1212 1133 1212 1133 1343 1202 c 0,3,4
 1520 1298 1520 1298 1657 1298 c 1,5,-1
 1686 1288 l 1,6,-1
 942 733 l 1,7,-1
 1313 733 l 1,8,-1
 1313 666 l 1,9,-1
 942 666 l 1,10,-1
 1681 109 l 1,11,-1
 1657 98 l 1,12,13
 1498 98 1498 98 1329 195 c 0,14,15
 1215 259 1215 259 1038 406 c 0,16,17
 840 570 840 570 764 621 c 1,18,19
 596 511 596 511 403 444 c 1,20,21
 549 414 549 414 549 289 c 0,22,23
 549 199 549 199 459 145 c 0,24,25
 382 100 382 100 287 100 c 0,26,27
 78 100 78 100 78 260 c 0,28,29
 78 335 78 335 317 500 c 0,30,31
 425 570 425 570 637 698 c 1,32,33
 385 848 385 848 315 895 c 0,34,35
 78 1057 78 1057 78 1137 c 128,-1,36
 78 1217 78 1217 150 1262 c 0,37,38
 207 1300 207 1300 293 1300 c 0,39,40
 392 1300 392 1300 465 1255 c 0,41,42
 549 1202 549 1202 549 1108 c 0,43,44
 549 979 549 979 399 952 c 1,45,46
 586 897 586 897 764 778 c 1,0,-1
283 1231 m 0,47,48
 147 1231 147 1231 147 1133 c 0,49,50
 147 1069 147 1069 217 1034 c 0,51,52
 272 1006 272 1006 342 1006 c 0,53,54
 479 1006 479 1006 479 1106 c 0,55,56
 479 1171 479 1171 410 1204 c 0,57,58
 356 1231 356 1231 283 1231 c 0,47,48
346 389 m 0,59,60
 147 389 147 389 147 268 c 0,61,62
 147 168 147 168 283 168 c 0,63,64
 357 168 357 168 408 193 c 0,65,66
 475 223 475 223 475 289 c 0,67,68
 475 389 475 389 346 389 c 0,59,60
158 733 m 1,69,-1
 575 733 l 1,70,-1
 575 666 l 1,71,-1
 158 666 l 1,72,-1
 158 733 l 1,69,-1
1475 733 m 1,73,-1
 1890 733 l 1,74,-1
 1890 666 l 1,75,-1
 1475 666 l 1,76,-1
 1475 733 l 1,73,-1
EndSplineSet
EndChar
StartChar: uni2708
Encoding: 9992 9992 244
Width: 1619
GlyphClass: 2
Flags: W
Fore
686 1325 m 1,0,1
 748 1256 748 1256 829 1110 c 0,2,3
 922 951 922 951 969 893 c 0,4,5
 1047 796 1047 796 1188 774 c 2,6,-1
 1419 762 l 2,7,8
 1540 750 1540 750 1581 672 c 1,9,10
 1546 598 1546 598 1432 580 c 0,11,12
 1398 573 1398 573 1245 573 c 0,13,14
 1104 573 1104 573 1053 541 c 0,15,16
 994 504 994 504 866 297 c 0,17,18
 716 52 716 52 686 14 c 1,19,20
 647 -2 647 -2 603 -2 c 0,21,22
 600 -2 600 -2 596 -2 c 2,23,-1
 522 0 l 1,24,-1
 496 23 l 1,25,26
 518 90 518 90 649 270 c 0,27,28
 760 422 760 422 760 535 c 1,29,-1
 745 557 l 1,30,31
 636 592 636 592 338 610 c 1,32,-1
 307 596 l 1,33,34
 284 530 284 530 238 426 c 1,35,-1
 205 412 l 1,36,-1
 117 420 l 1,37,-1
 82 446 l 1,38,39
 106 511 106 511 129 614 c 1,40,41
 93 630 93 630 35 670 c 1,42,43
 50 685 50 685 83 698 c 0,44,45
 118 714 118 714 129 725 c 1,46,47
 128 757 128 757 106 814 c 0,48,49
 86 871 86 871 82 895 c 1,50,-1
 117 920 l 1,51,-1
 205 928 l 1,52,-1
 240 911 l 1,53,54
 263 845 263 845 309 741 c 1,55,-1
 340 729 l 1,56,57
 433 729 433 729 561 745 c 0,58,59
 727 767 727 767 760 805 c 1,60,61
 760 918 760 918 647 1069 c 0,62,63
 519 1242 519 1242 496 1319 c 1,64,-1
 504 1333 l 1,65,66
 525 1341 525 1341 567 1341 c 0,67,68
 638 1341 638 1341 686 1325 c 1,0,1
EndSplineSet
EndChar
StartChar: uni270D
Encoding: 9997 9997 245
Width: 1376
GlyphClass: 2
Flags: W
Fore
596 567 m 1,0,-1
 483 440 l 1,1,-1
 510 434 l 2,2,3
 548 434 548 434 559 469 c 2,4,5
 596 512 596 512 596 567 c 1,0,-1
139 219 m 1,6,-1
 102 150 l 1,7,-1
 104 139 l 1,8,-1
 115 135 l 1,9,10
 176 147 176 147 190 180 c 1,11,12
 187 207 187 207 147 221 c 1,13,-1
 139 219 l 1,6,-1
215 469 m 1,14,-1
 233 466 l 2,15,16
 256 457 256 457 256 416 c 0,17,18
 256 374 256 374 215 315 c 1,19,-1
 240 315 l 1,20,21
 274 351 274 351 309 425 c 0,22,23
 348 504 348 504 373 532 c 2,24,-1
 621 819 l 1,25,-1
 555 852 l 1,26,27
 346 796 346 796 215 469 c 1,14,-1
156 315 m 1,28,-1
 168 309 l 1,29,30
 199 342 199 342 215 369 c 1,31,-1
 215 410 l 1,32,-1
 209 430 l 1,33,-1
 156 315 l 1,28,-1
432 236 m 1,34,-1
 535 231 l 2,35,36
 575 231 575 231 700 260 c 1,37,38
 758 246 758 246 852 246 c 0,39,40
 946 246 946 246 1040 274 c 1,41,42
 1057 364 1057 364 1057 401 c 0,43,44
 1057 456 1057 456 1028 596 c 1,45,-1
 940 596 l 1,46,-1
 725 721 l 1,47,48
 690 677 690 677 647 579 c 0,49,50
 603 478 603 478 571 440 c 1,51,-1
 590 438 l 1,52,53
 653 457 653 457 713 479 c 1,54,-1
 713 469 l 1,55,-1
 659 403 l 1,56,-1
 608 403 l 2,57,58
 490 403 490 403 426 389 c 0,59,60
 303 362 303 362 303 289 c 1,61,-1
 322 266 l 1,62,63
 344 254 344 254 362 254 c 0,64,65
 406 254 406 254 410 350 c 1,66,67
 444 322 444 322 449 289 c 1,68,-1
 432 236 l 1,34,-1
1065 188 m 1,69,-1
 1217 188 l 1,70,71
 1243 318 1243 318 1243 408 c 0,72,73
 1243 526 1243 526 1204 604 c 1,74,-1
 1079 604 l 1,75,76
 1096 476 1096 476 1096 414 c 0,77,78
 1096 278 1096 278 1065 188 c 1,69,-1
41 102 m 1,79,80
 41 124 41 124 139 303 c 1,81,-1
 117 303 l 1,82,83
 218 538 218 538 240 668 c 1,84,85
 386 814 386 814 559 911 c 1,86,-1
 647 848 l 1,87,88
 785 1018 785 1018 834 1018 c 0,89,90
 862 1018 862 1018 879 991 c 0,91,92
 895 965 895 965 895 936 c 2,93,-1
 889 899 l 1,94,-1
 764 760 l 1,95,96
 839 708 839 708 883 684 c 0,97,98
 957 643 957 643 1016 643 c 1,99,-1
 1028 668 l 1,100,-1
 1280 655 l 1,101,102
 1313 554 1313 554 1313 420 c 0,103,104
 1313 268 1313 268 1268 139 c 1,105,-1
 1040 139 l 1,106,-1
 999 213 l 1,107,108
 874 188 874 188 864 188 c 2,109,-1
 520 188 l 2,110,111
 443 188 443 188 293 221 c 1,112,-1
 227 150 l 1,113,114
 109 96 109 96 51 74 c 1,115,-1
 41 102 l 1,79,80
EndSplineSet
EndChar
StartChar: uni270E
Encoding: 9998 9998 246
Width: 1515
GlyphClass: 2
Flags: W
Fore
1100 567 m 1,0,-1
 791 764 l 2,1,2
 597 883 597 883 475 948 c 1,3,-1
 516 801 l 1,4,-1
 1100 440 l 1,5,6
 1110 481 1110 481 1110 514 c 0,7,8
 1110 543 1110 543 1100 567 c 1,0,-1
1083 391 m 1,9,-1
 487 760 l 1,10,-1
 399 596 l 1,11,-1
 983 240 l 1,12,13
 1048 286 1048 286 1083 391 c 1,9,-1
948 199 m 1,14,-1
 377 555 l 1,15,-1
 209 520 l 1,16,-1
 856 123 l 1,17,18
 921 168 921 168 948 199 c 1,14,-1
948 123 m 1,19,-1
 1225 123 l 2,20,21
 1259 123 1259 123 1280 154 c 0,22,23
 1300 183 1300 183 1300 221 c 1,24,-1
 1149 489 l 1,25,-1
 1151 436 l 1,26,-1
 1149 399 l 2,27,28
 1139 335 1139 335 1083 262 c 0,29,30
 1048 214 1048 214 948 123 c 1,19,-1
412 987 m 1,31,-1
 223 948 l 1,32,-1
 109 772 l 1,33,-1
 160 555 l 1,34,-1
 352 604 l 1,35,-1
 465 801 l 1,36,-1
 412 987 l 1,31,-1
1337 74 m 2,37,-1
 856 74 l 1,38,-1
 125 518 l 1,39,-1
 55 772 l 1,40,-1
 188 987 l 1,41,-1
 424 1036 l 1,42,-1
 1137 604 l 2,43,44
 1190 571 1190 571 1272 418 c 2,45,-1
 1380 199 l 2,46,47
 1417 130 1417 130 1417 109 c 0,48,49
 1417 74 1417 74 1337 74 c 2,37,-1
197 774 m 0,50,51
 197 818 197 818 233 846 c 0,52,53
 250 860 250 860 309 887 c 1,54,-1
 333 884 l 2,55,56
 365 874 365 874 365 829 c 0,57,58
 365 778 365 778 334 731 c 0,59,60
 301 680 301 680 250 680 c 0,61,62
 197 680 197 680 197 774 c 0,50,51
EndSplineSet
EndChar
StartChar: uni2713
Encoding: 10003 10003 247
Width: 1613
GlyphClass: 2
Flags: W
Fore
1499 1569 m 1,0,-1
 1534 1518 l 1,1,2
 1293 1335 1293 1335 1038 1004 c 0,3,4
 802 694 802 694 659 395 c 1,5,6
 548 322 548 322 461 252 c 1,7,8
 326 694 326 694 147 766 c 1,9,10
 248 881 248 881 346 881 c 0,11,12
 430 881 430 881 549 600 c 1,13,14
 931 1245 931 1245 1499 1569 c 1,0,-1
EndSplineSet
EndChar
StartChar: uni2714
Encoding: 10004 10004 248
Width: 1343
GlyphClass: 2
Flags: W
Fore
285 -33 m 0,0,1
 130 -33 130 -33 74 156 c 0,2,3
 41 264 41 264 41 471 c 0,4,5
 41 588 41 588 82 672 c 0,6,7
 133 778 133 778 240 778 c 0,8,9
 319 778 319 778 346 684 c 2,10,-1
 369 508 l 2,11,12
 381 412 381 412 428 410 c 1,13,-1
 1163 1116 l 2,14,15
 1180 1133 1180 1133 1229 1133 c 0,16,17
 1292 1133 1292 1133 1292 1087 c 2,18,-1
 1292 965 l 2,19,20
 1292 911 1292 911 1262 881 c 2,21,-1
 442 47 l 2,22,23
 364 -33 364 -33 285 -33 c 0,0,1
EndSplineSet
EndChar
StartChar: uni2717
Encoding: 10007 10007 249
Width: 983
GlyphClass: 2
Flags: W
Fore
0 -2 m 1,0,1
 -11 22 -11 22 -25 37 c 1,2,-1
 356 567 l 1,3,4
 215 951 215 951 215 954 c 0,5,6
 215 992 215 992 255 992 c 0,7,8
 269 992 269 992 289 987 c 1,9,10
 320 993 320 993 354 1012 c 1,11,-1
 381 999 l 1,12,-1
 492 748 l 1,13,-1
 772 1049 l 1,14,-1
 836 1024 l 1,15,-1
 860 1049 l 1,16,17
 891 1034 891 1034 922 1006 c 1,18,19
 868 903 868 903 770 784 c 0,20,21
 768 782 768 782 594 584 c 1,22,-1
 774 223 l 1,23,24
 774 182 774 182 711 139 c 1,25,-1
 727 119 l 1,26,27
 712 76 712 76 672 76 c 0,28,29
 626 76 626 76 457 381 c 1,30,-1
 164 -76 l 2,31,32
 131 -127 131 -127 72 -127 c 0,33,34
 9 -127 9 -127 8 -76 c 2,35,36
 -2 -62 -2 -62 -2 -32 c 0,37,38
 -2 -18 -2 -18 0 -2 c 1,0,1
EndSplineSet
EndChar
StartChar: uni2718
Encoding: 10008 10008 250
Width: 1056
GlyphClass: 2
Flags: W
Fore
72 152 m 1,0,-1
 33 201 l 1,1,-1
 311 532 l 1,2,3
 125 889 125 889 125 948 c 0,4,5
 125 979 125 979 160 1012 c 1,6,-1
 180 1020 l 1,7,8
 204 1010 204 1010 217 999 c 1,9,-1
 223 999 l 1,10,11
 256 1065 256 1065 299 1065 c 1,12,-1
 504 760 l 1,13,14
 823 1128 823 1128 879 1128 c 0,15,16
 920 1128 920 1128 948 1087 c 1,17,-1
 948 1049 l 1,18,19
 1020 1024 1020 1024 1020 977 c 1,20,-1
 651 545 l 1,21,-1
 885 276 l 1,22,-1
 893 252 l 1,23,24
 893 225 893 225 870 185 c 0,25,26
 848 148 848 148 821 145 c 1,27,-1
 815 164 l 1,28,29
 814 76 814 76 758 76 c 1,30,31
 739 88 739 88 721 113 c 1,32,-1
 670 57 l 1,33,-1
 651 49 l 1,34,35
 613 55 613 55 453 289 c 1,36,-1
 209 -25 l 1,37,-1
 182 -39 l 1,38,39
 157 -17 157 -17 147 25 c 1,40,-1
 96 25 l 1,41,42
 59 65 59 65 43 113 c 1,43,-1
 72 152 l 1,0,-1
EndSplineSet
EndChar
StartChar: uni2719
Encoding: 10009 10009 251
Width: 1196
GlyphClass: 2
Flags: W
Fore
754 1053 m 1,0,-1
 473 1053 l 1,1,-1
 473 686 l 1,2,-1
 111 686 l 1,3,-1
 111 418 l 1,4,-1
 473 418 l 1,5,-1
 473 49 l 1,6,-1
 754 49 l 1,7,-1
 754 418 l 1,8,-1
 1110 418 l 1,9,-1
 1110 686 l 1,10,-1
 754 688 l 1,11,-1
 754 1053 l 1,0,-1
1174 369 m 1,12,-1
 803 369 l 1,13,-1
 803 0 l 1,14,-1
 422 0 l 1,15,-1
 422 369 l 1,16,-1
 43 369 l 1,17,-1
 43 737 l 1,18,-1
 422 737 l 1,19,-1
 422 1114 l 1,20,-1
 803 1114 l 1,21,-1
 803 737 l 1,22,-1
 1174 737 l 1,23,-1
 1174 369 l 1,12,-1
688 100 m 1,24,-1
 524 100 l 1,25,-1
 524 469 l 1,26,-1
 156 469 l 1,27,-1
 156 633 l 1,28,-1
 524 633 l 1,29,-1
 524 999 l 1,30,-1
 688 999 l 1,31,-1
 688 633 l 1,32,-1
 1057 633 l 1,33,-1
 1057 469 l 1,34,-1
 688 469 l 1,35,-1
 688 100 l 1,24,-1
EndSplineSet
EndChar
StartChar: uni271A
Encoding: 10010 10010 252
Width: 1196
GlyphClass: 2
Flags: W
Fore
1171 360 m 1,0,-1
 801 360 l 1,1,-1
 801 0 l 1,2,-1
 408 0 l 1,3,-1
 408 360 l 1,4,-1
 41 360 l 1,5,-1
 41 737 l 1,6,-1
 408 737 l 1,7,-1
 408 1114 l 1,8,-1
 793 1114 l 1,9,-1
 793 737 l 1,10,-1
 1171 737 l 1,11,-1
 1171 360 l 1,0,-1
EndSplineSet
EndChar
StartChar: uni271B
Encoding: 10011 10011 253
Width: 1196
GlyphClass: 2
Flags: W
Fore
500 0 m 1,0,-1
 500 457 l 1,1,-1
 29 457 l 1,2,-1
 29 639 l 1,3,-1
 500 639 l 1,4,-1
 500 1114 l 1,5,-1
 688 1114 l 1,6,-1
 688 639 l 1,7,-1
 1159 639 l 1,8,-1
 1159 457 l 1,9,-1
 688 457 l 1,10,-1
 688 0 l 1,11,-1
 500 0 l 1,0,-1
512 623 m 1,12,-1
 512 475 l 1,13,-1
 678 475 l 1,14,-1
 678 623 l 1,15,-1
 512 623 l 1,12,-1
EndSplineSet
EndChar
StartChar: uni271C
Encoding: 10012 10012 254
Width: 1163
GlyphClass: 2
Flags: W
Fore
424 391 m 1,0,-1
 756 391 l 1,1,-1
 756 696 l 1,2,-1
 424 696 l 1,3,-1
 424 391 l 1,0,-1
768 -27 m 1,4,-1
 412 -27 l 1,5,-1
 412 367 l 1,6,-1
 33 367 l 1,7,-1
 33 719 l 1,8,-1
 412 719 l 1,9,-1
 412 1098 l 1,10,-1
 768 1098 l 1,11,-1
 768 719 l 1,12,-1
 1137 719 l 1,13,-1
 1137 367 l 1,14,-1
 768 367 l 1,15,-1
 768 -27 l 1,4,-1
EndSplineSet
EndChar
StartChar: uni2721
Encoding: 10017 10017 255
Width: 1417
GlyphClass: 2
Flags: W
Fore
707 1475 m 1,0,-1
 926 1102 l 1,1,-1
 1358 1102 l 1,2,-1
 1141 725 l 1,3,-1
 1358 348 l 1,4,-1
 926 348 l 1,5,-1
 707 -25 l 1,6,-1
 494 348 l 1,7,-1
 59 348 l 1,8,-1
 276 725 l 1,9,-1
 59 1102 l 1,10,-1
 494 1102 l 1,11,-1
 707 1475 l 1,0,-1
707 1376 m 1,12,-1
 551 1102 l 1,13,-1
 864 1102 l 1,14,-1
 707 1376 l 1,12,-1
147 1051 m 1,15,-1
 305 774 l 1,16,-1
 463 1051 l 1,17,-1
 147 1051 l 1,15,-1
520 1051 m 1,18,-1
 334 725 l 1,19,-1
 520 397 l 1,20,-1
 897 397 l 1,21,-1
 1083 725 l 1,22,-1
 897 1051 l 1,23,-1
 520 1051 l 1,18,-1
952 1051 m 1,24,-1
 1112 772 l 1,25,-1
 1274 1051 l 1,26,-1
 952 1051 l 1,24,-1
305 676 m 1,27,-1
 147 397 l 1,28,-1
 465 397 l 1,29,-1
 305 676 l 1,27,-1
1112 674 m 1,30,-1
 952 397 l 1,31,-1
 1272 397 l 1,32,-1
 1112 674 l 1,30,-1
551 348 m 1,33,-1
 707 72 l 1,34,-1
 868 348 l 1,35,-1
 551 348 l 1,33,-1
EndSplineSet
EndChar
StartChar: uni2722
Encoding: 10018 10018 256
Width: 1163
GlyphClass: 2
Flags: W
Fore
459 94 m 0,0,1
 459 182 459 182 489 295 c 1,2,3
 491 298 491 298 553 487 c 1,4,5
 484 487 484 487 355 444 c 0,6,7
 223 401 223 401 156 401 c 0,8,9
 4 401 4 401 4 524 c 0,10,11
 4 575 4 575 38 613 c 0,12,13
 71 653 71 653 119 653 c 0,14,15
 198 653 198 653 337 609 c 0,16,17
 481 565 481 565 553 565 c 1,18,19
 543 619 543 619 494 770 c 0,20,21
 453 894 453 894 453 979 c 0,22,23
 453 1035 453 1035 492 1074 c 0,24,25
 529 1114 529 1114 586 1114 c 0,26,27
 700 1114 700 1114 700 977 c 0,28,29
 700 903 700 903 656 771 c 0,30,31
 612 636 612 636 612 565 c 1,32,-1
 815 627 l 2,33,34
 932 657 932 657 1024 657 c 0,35,36
 1078 657 1078 657 1114 620 c 0,37,38
 1151 582 1151 582 1151 528 c 0,39,40
 1151 471 1151 471 1111 432 c 0,41,42
 1070 393 1070 393 1014 393 c 0,43,44
 906 393 906 393 612 492 c 1,45,46
 616 428 616 428 663 302 c 0,47,48
 709 173 709 173 709 104 c 0,49,50
 709 45 709 45 673 0 c 128,-1,51
 637 -45 637 -45 578 -45 c 0,52,53
 523 -45 523 -45 490 -3 c 0,54,55
 459 38 459 38 459 94 c 0,0,1
EndSplineSet
EndChar
StartChar: uni2723
Encoding: 10019 10019 257
Width: 1179
GlyphClass: 2
Flags: W
Fore
567 647 m 1,0,1
 566 706 566 706 496 828 c 0,2,3
 426 950 426 950 426 981 c 0,4,5
 426 1044 426 1044 477 1083 c 128,-1,6
 528 1122 528 1122 592 1122 c 0,7,8
 754 1122 754 1122 754 956 c 1,9,-1
 666 805 l 2,10,11
 611 701 611 701 608 647 c 1,12,13
 678 647 678 647 700 571 c 1,14,15
 756 574 756 574 870 642 c 0,16,17
 987 711 987 711 1030 711 c 0,18,19
 1095 711 1095 711 1133 662 c 0,20,21
 1169 612 1169 612 1169 545 c 0,22,23
 1169 479 1169 479 1135 430 c 0,24,25
 1093 377 1093 377 1030 377 c 0,26,27
 988 377 988 377 866 455 c 0,28,29
 748 532 748 532 700 535 c 1,30,31
 700 497 700 497 673 470 c 0,32,33
 643 442 643 442 608 442 c 1,34,35
 611 389 611 389 682 278 c 0,36,37
 754 164 754 164 754 121 c 0,38,39
 754 60 754 60 707 17 c 0,40,41
 659 -25 659 -25 596 -25 c 0,42,43
 535 -25 535 -25 487 20 c 0,44,45
 442 64 442 64 442 125 c 0,46,47
 442 174 442 174 494 268 c 2,48,-1
 571 408 l 1,49,-1
 567 442 l 1,50,51
 533 442 533 442 508 470 c 0,52,53
 483 498 483 498 483 532 c 1,54,55
 434 525 434 525 323 452 c 0,56,57
 214 379 214 379 170 379 c 0,58,59
 105 379 105 379 61 426 c 0,60,61
 16 476 16 476 16 543 c 0,62,63
 16 609 16 609 57 655 c 0,64,65
 99 700 99 700 164 700 c 0,66,67
 211 700 211 700 321 633 c 0,68,69
 431 565 431 565 461 565 c 2,70,-1
 483 567 l 1,71,72
 508 647 508 647 567 647 c 1,0,1
EndSplineSet
EndChar
StartChar: uni2724
Encoding: 10020 10020 258
Width: 1163
GlyphClass: 2
Flags: W
Fore
360 188 m 0,0,1
 360 223 360 223 445 344 c 0,2,3
 529 464 529 464 537 516 c 1,4,5
 261 328 261 328 209 328 c 0,6,7
 118 328 118 328 59 391 c 0,8,9
 2 454 2 454 2 549 c 0,10,11
 2 639 2 639 57 700 c 0,12,13
 113 762 113 762 201 762 c 0,14,15
 254 762 254 762 360 690 c 2,16,-1
 508 580 l 1,17,-1
 537 584 l 1,18,19
 529 640 529 640 445 763 c 0,20,21
 360 887 360 887 360 924 c 0,22,23
 360 1009 360 1009 425 1066 c 0,24,25
 488 1122 488 1122 575 1122 c 0,26,27
 661 1122 661 1122 727 1071 c 128,-1,28
 793 1020 793 1020 793 936 c 0,29,30
 793 876 793 876 711 758 c 0,31,32
 625 632 625 632 616 580 c 1,33,34
 667 592 667 592 786 680 c 0,35,36
 898 760 898 760 944 760 c 0,37,38
 1039 760 1039 760 1098 702 c 0,39,40
 1157 645 1157 645 1157 551 c 0,41,42
 1157 464 1157 464 1106 397 c 0,43,44
 1051 324 1051 324 969 324 c 0,45,46
 913 324 913 324 788 412 c 0,47,48
 652 506 652 506 604 516 c 1,49,50
 615 467 615 467 705 346 c 0,51,52
 791 233 791 233 791 184 c 0,53,54
 791 94 791 94 725 25 c 0,55,56
 659 -43 659 -43 569 -43 c 0,57,58
 477 -43 477 -43 418 25 c 0,59,60
 360 95 360 95 360 188 c 0,0,1
EndSplineSet
EndChar
StartChar: uni2725
Encoding: 10021 10021 259
Width: 1179
GlyphClass: 2
Flags: W
Fore
487 125 m 1,0,-1
 444 123 l 1,1,-1
 424 126 l 2,2,3
 385 141 385 141 385 225 c 0,4,5
 385 334 385 334 477 334 c 0,6,7
 519 334 519 334 557 315 c 1,8,-1
 557 520 l 1,9,-1
 340 532 l 1,10,11
 375 491 375 491 375 451 c 0,12,13
 375 403 375 403 336 370 c 0,14,15
 298 336 298 336 250 336 c 0,16,17
 158 336 158 336 143 455 c 1,18,19
 120 442 120 442 94 442 c 0,20,21
 53 442 53 442 27 477 c 0,22,23
 0 512 0 512 0 555 c 128,-1,24
 0 598 0 598 33 627 c 0,25,26
 64 653 64 653 106 653 c 0,27,28
 135 653 135 653 156 643 c 1,29,30
 168 754 168 754 260 754 c 0,31,32
 306 754 306 754 340 724 c 0,33,34
 375 694 375 694 375 651 c 0,35,36
 375 616 375 616 340 567 c 1,37,-1
 557 567 l 1,38,-1
 567 782 l 1,39,40
 528 752 528 752 487 752 c 0,41,42
 441 752 441 752 415 790 c 0,43,44
 387 827 387 827 387 872 c 0,45,46
 387 975 387 975 492 975 c 1,47,48
 479 1004 479 1004 479 1032 c 0,49,50
 479 1130 479 1130 588 1130 c 0,51,52
 696 1130 696 1130 696 1042 c 0,53,54
 696 1023 696 1023 680 985 c 1,55,56
 799 964 799 964 799 868 c 0,57,58
 799 824 799 824 764 792 c 0,59,60
 731 760 731 760 684 760 c 0,61,62
 644 760 644 760 604 782 c 1,63,-1
 616 567 l 1,64,-1
 813 567 l 1,65,66
 795 604 795 604 795 637 c 0,67,68
 795 683 795 683 829 714 c 0,69,70
 864 745 864 745 909 745 c 0,71,72
 1016 745 1016 745 1016 641 c 1,73,74
 1061 649 1061 649 1067 649 c 2,75,-1
 1112 647 l 1,76,77
 1163 617 1163 617 1163 557 c 0,78,79
 1163 442 1163 442 1069 442 c 0,80,81
 1043 442 1043 442 1016 457 c 1,82,83
 1010 389 1010 389 911 389 c 0,84,85
 788 389 788 389 788 455 c 0,86,87
 788 488 788 488 813 532 c 1,88,-1
 616 520 l 1,89,-1
 604 315 l 1,90,91
 654 336 654 336 690 336 c 0,92,93
 731 336 731 336 762 305 c 128,-1,94
 793 274 793 274 793 233 c 0,95,96
 793 119 793 119 682 125 c 1,97,98
 696 90 696 90 696 63 c 0,99,100
 696 23 696 23 664 -4 c 0,101,102
 628 -31 628 -31 588 -31 c 0,103,104
 545 -31 545 -31 509 -4 c 128,-1,105
 473 23 473 23 473 66 c 0,106,107
 473 97 473 97 487 125 c 1,0,-1
EndSplineSet
EndChar
StartChar: uni272B
Encoding: 10027 10027 260
Width: 1286
GlyphClass: 2
Flags: W
Fore
600 328 m 2,0,-1
 645 328 l 2,1,2
 709 328 709 328 746 372 c 0,3,4
 784 414 784 414 784 479 c 0,5,6
 784 545 784 545 735 594 c 128,-1,7
 686 643 686 643 621 643 c 0,8,9
 551 643 551 643 503 601 c 128,-1,10
 455 559 455 559 455 489 c 0,11,12
 455 426 455 426 497 377 c 0,13,14
 539 328 539 328 600 328 c 2,0,-1
836 416 m 1,15,-1
 1028 -47 l 1,16,-1
 621 264 l 1,17,-1
 227 -47 l 1,18,-1
 403 416 l 1,19,-1
 0 668 l 1,20,-1
 483 643 l 1,21,-1
 608 1128 l 1,22,-1
 760 643 l 1,23,-1
 1268 668 l 1,24,-1
 836 416 l 1,15,-1
EndSplineSet
EndChar
StartChar: uni272C
Encoding: 10028 10028 261
Width: 1269
GlyphClass: 2
Flags: W
Fore
518 633 m 1,0,-1
 102 668 l 1,1,-1
 442 440 l 1,2,-1
 449 430 l 1,3,4
 449 585 449 585 518 633 c 1,0,-1
725 643 m 1,5,-1
 637 1024 l 1,6,-1
 537 643 l 1,7,8
 578 674 578 674 639 674 c 0,9,10
 695 674 695 674 725 643 c 1,5,-1
819 440 m 1,11,-1
 1163 668 l 1,12,-1
 748 633 l 1,13,14
 819 585 819 585 819 440 c 1,11,-1
647 303 m 1,15,-1
 969 25 l 1,16,-1
 811 416 l 1,17,18
 754 303 754 303 647 303 c 1,15,-1
457 416 m 1,19,-1
 319 37 l 1,20,-1
 621 303 l 1,21,22
 514 303 514 303 457 416 c 1,19,-1
899 403 m 1,23,-1
 1016 -37 l 1,24,-1
 637 201 l 1,25,-1
 256 -37 l 1,26,-1
 356 403 l 1,27,-1
 0 696 l 1,28,-1
 457 721 l 1,29,-1
 637 1128 l 1,30,-1
 801 721 l 1,31,-1
 1255 696 l 1,32,-1
 899 403 l 1,23,-1
EndSplineSet
EndChar
StartChar: uni272D
Encoding: 10029 10029 262
Width: 1212
GlyphClass: 2
Flags: W
Fore
473 680 m 1,0,-1
 100 651 l 1,1,-1
 395 444 l 1,2,-1
 289 43 l 1,3,-1
 623 256 l 1,4,-1
 934 27 l 1,5,-1
 840 428 l 1,6,-1
 1110 649 l 1,7,-1
 754 678 l 1,8,-1
 608 1010 l 1,9,-1
 473 680 l 1,0,-1
233 -8 m 1,10,11
 233 86 233 86 266 209 c 1,12,13
 267 210 267 210 332 418 c 1,14,-1
 158 545 l 2,15,16
 26 646 26 646 10 676 c 1,17,18
 53 725 53 725 444 737 c 1,19,20
 502 911 502 911 514 944 c 0,21,22
 575 1103 575 1103 616 1114 c 1,23,24
 670 1064 670 1064 719 938 c 2,25,-1
 784 737 l 1,26,27
 839 735 839 735 1026 719 c 0,28,29
 1210 703 1210 703 1210 670 c 0,30,31
 1210 630 1210 630 899 418 c 1,32,-1
 995 -33 l 1,33,-1
 983 -49 l 1,34,35
 785 78 785 78 621 201 c 1,36,37
 464 82 464 82 444 70 c 0,38,39
 342 -2 342 -2 252 -35 c 1,40,-1
 233 -8 l 1,10,11
442 461 m 1,41,-1
 213 623 l 1,42,-1
 504 643 l 1,43,-1
 608 899 l 1,44,-1
 721 641 l 1,45,-1
 997 621 l 1,46,-1
 786 449 l 1,47,-1
 860 137 l 1,48,-1
 621 315 l 1,49,-1
 360 150 l 1,50,-1
 442 461 l 1,41,-1
EndSplineSet
EndChar
StartChar: uni272E
Encoding: 10030 10030 263
Width: 1212
GlyphClass: 2
Flags: W
Fore
496 643 m 1,0,-1
 188 621 l 1,1,-1
 432 457 l 1,2,-1
 344 125 l 1,3,-1
 621 303 l 1,4,-1
 877 113 l 1,5,-1
 801 440 l 1,6,-1
 1028 621 l 1,7,-1
 735 633 l 1,8,-1
 608 924 l 1,9,-1
 496 643 l 1,0,-1
233 -8 m 1,10,11
 233 86 233 86 266 209 c 1,12,13
 267 210 267 210 332 418 c 1,14,-1
 158 545 l 2,15,16
 26 646 26 646 10 676 c 1,17,18
 53 725 53 725 444 737 c 1,19,20
 502 911 502 911 514 944 c 0,21,22
 575 1103 575 1103 616 1114 c 1,23,24
 670 1064 670 1064 719 938 c 2,25,-1
 784 737 l 1,26,27
 839 735 839 735 1026 719 c 0,28,29
 1210 703 1210 703 1210 670 c 0,30,31
 1210 630 1210 630 899 418 c 1,32,-1
 995 -33 l 1,33,-1
 983 -49 l 1,34,35
 785 78 785 78 621 201 c 1,36,37
 464 82 464 82 444 70 c 0,38,39
 342 -2 342 -2 252 -35 c 1,40,-1
 233 -8 l 1,10,11
801 240 m 1,41,-1
 608 381 l 1,42,-1
 420 240 l 1,43,-1
 496 457 l 1,44,-1
 356 584 l 1,45,-1
 537 584 l 1,46,-1
 608 772 l 1,47,-1
 684 584 l 1,48,-1
 864 584 l 1,49,-1
 725 457 l 1,50,-1
 801 240 l 1,41,-1
EndSplineSet
EndChar
